<svg version="1.1" viewBox="0.0 0.0 231.3989501312336 100.0" fill="none" stroke="none" stroke-linecap="square" stroke-miterlimit="10" xmlns:xlink="http://www.w3.org/1999/xlink" xmlns="http://www.w3.org/2000/svg"><clipPath id="p.0"><path d="m0 0l231.39896 0l0 100.0l-231.39896 0l0 -100.0z" clip-rule="nonzero"/></clipPath><g clip-path="url(#p.0)"><path fill="#000000" fill-opacity="0.0" d="m0 0l231.39896 0l0 100.0l-231.39896 0z" fill-rule="evenodd"/><path fill="#000000" fill-opacity="0.0" d="m11.085288 28.992126l209.22835 0l0 42.015747l-209.22835 0z" fill-rule="evenodd"/><path fill="#000000" d="m103.90136 56.380875q-0.171875 -0.015625 -0.40625 -0.140625q-0.21875 -0.109375 -0.265625 -0.40625q-0.015625 -0.1875 -0.015625 -0.765625q0.015625 -0.578125 0.03125 -1.34375q0.015625 -0.78125 0.03125 -1.515625q0.03125 -0.75 0.046875 -1.28125q0.03125 -0.53125 0.03125 -0.609375q0 -0.0625 0 -0.390625q0.015625 -0.328125 0.015625 -0.75q0 -0.421875 0 -0.828125q0.015625 -0.421875 0.015625 -0.640625q0 -0.328125 -0.140625 -0.671875q-0.140625 -0.359375 -0.390625 -0.59375q-0.234375 -0.25 -0.59375 -0.21875q-0.625 0.09375 -1.28125 -0.265625q-0.65625 -0.375 -1.078125 -1.125q0.609375 -0.71875 1.359375 -1.34375q0.765625 -0.625 1.53125 -1.015625q0.78125 -0.40625 1.4375 -0.421875q0.75 -0.046875 1.4375 0.1875q0.6875 0.21875 1.046875 0.59375q0.296875 0.28125 0.390625 0.578125q0.09375 0.296875 -0.03125 0.828125q-0.03125 0.234375 -0.109375 0.578125q-0.0625 0.34375 -0.140625 0.8125q-0.046875 0.21875 -0.109375 0.78125q-0.046875 0.5625 -0.09375 1.234375q-0.046875 0.65625 -0.09375 1.234375q-0.03125 0.5625 -0.03125 0.796875q0 0.203125 0 0.6875q0 0.46875 0.015625 1.078125q0.015625 0.609375 0.03125 1.25q0.03125 0.640625 0.078125 1.1875q0.03125 0.421875 0.109375 0.8125q0.09375 0.390625 0.171875 0.53125q-0.21875 0.234375 -0.53125 0.40625q-0.296875 0.171875 -0.59375 0.28125q-0.296875 0.09375 -0.453125 0.15625q-0.140625 0.046875 -0.4375 0.125q-0.28125 0.078125 -0.5625 0.125q-0.28125 0.0625 -0.421875 0.0625zm10.387375 -0.671875q-0.9375 0.015625 -1.890625 -0.234375q-0.953125 -0.265625 -1.5 -0.6875q-0.515625 -0.390625 -1.109375 -1.125q-0.59375 -0.75 -0.90625 -2.0q-0.3125 -1.359375 -0.25 -2.546875q0.078125 -1.1875 0.34375 -2.125q0.28125 -0.953125 0.625 -1.578125q0.484375 -0.953125 1.328125 -1.859375q0.859375 -0.921875 2.25 -1.375q0.890625 -0.296875 1.78125 -0.21875q0.890625 0.078125 1.5625 0.34375q0.6875 0.25 0.953125 0.515625q0.875 0.78125 1.3125 1.921875q0.4375 1.140625 0.515625 2.46875q0.078125 1.3125 -0.1875 2.703125q-0.40625 2.15625 -1.390625 3.546875q-0.96875 1.390625 -2.1875 1.890625q-0.53125 0.234375 -0.734375 0.28125q-0.203125 0.03125 -0.515625 0.078125zm-0.828125 -3.71875q0.828125 0.078125 1.34375 -0.3125q0.515625 -0.40625 0.828125 -1.15625q0.328125 -0.765625 0.53125 -1.703125q0.203125 -0.953125 0.078125 -1.78125q-0.125 -0.84375 -0.625 -1.375q-0.5 -0.53125 -1.390625 -0.53125q-0.875 0.015625 -1.40625 0.75q-0.515625 0.71875 -0.734375 2.234375q-0.078125 0.5625 -0.09375 1.203125q0 0.640625 0.125 1.25q0.125 0.59375 0.453125 0.984375q0.328125 0.390625 0.890625 0.4375zm13.010666 3.71875q-0.9375 0.015625 -1.890625 -0.234375q-0.953125 -0.265625 -1.5 -0.6875q-0.515625 -0.390625 -1.109375 -1.125q-0.59375 -0.75 -0.90625 -2.0q-0.3125 -1.359375 -0.25 -2.546875q0.078125 -1.1875 0.34375 -2.125q0.28125 -0.953125 0.625 -1.578125q0.484375 -0.953125 1.328125 -1.859375q0.859375 -0.921875 2.25 -1.375q0.890625 -0.296875 1.78125 -0.21875q0.8906174 0.078125 1.5624924 0.34375q0.6875 0.25 0.953125 0.515625q0.875 0.78125 1.3125 1.921875q0.4375 1.140625 0.515625 2.46875q0.078125 1.3125 -0.1875 2.703125q-0.40625 2.15625 -1.390625 3.546875q-0.96875 1.390625 -2.1874924 1.890625q-0.53125 0.234375 -0.734375 0.28125q-0.203125 0.03125 -0.515625 0.078125zm-0.828125 -3.71875q0.828125 0.078125 1.34375 -0.3125q0.515625 -0.40625 0.828125 -1.15625q0.32811737 -0.765625 0.5312424 -1.703125q0.203125 -0.953125 0.078125 -1.78125q-0.125 -0.84375 -0.6249924 -1.375q-0.5 -0.53125 -1.390625 -0.53125q-0.875 0.015625 -1.40625 0.75q-0.515625 0.71875 -0.734375 2.234375q-0.078125 0.5625 -0.09375 1.203125q0 0.640625 0.125 1.25q0.125 0.59375 0.453125 0.984375q0.328125 0.390625 0.890625 0.4375z" fill-rule="nonzero"/></g></svg>