<svg version="1.1" viewBox="0.0 0.0 381.249343832021 100.0" fill="none" stroke="none" stroke-linecap="square" stroke-miterlimit="10" xmlns:xlink="http://www.w3.org/1999/xlink" xmlns="http://www.w3.org/2000/svg"><clipPath id="p.0"><path d="m0 0l381.24933 0l0 100.0l-381.24933 0l0 -100.0z" clip-rule="nonzero"/></clipPath><g clip-path="url(#p.0)"><path fill="#000000" fill-opacity="0.0" d="m0 0l381.24933 0l0 100.0l-381.24933 0z" fill-rule="evenodd"/><path fill="#6ce5e8" d="m15.868767 50.0l0 0c0 -1.8351517 1.4876842 -3.322834 3.322834 -3.322834l342.86615 0c0.8812866 0 1.7264404 0.3500824 2.3496094 0.9732361c0.6231384 0.6231499 0.9732361 1.4683266 0.9732361 2.349598l0 0l0 0c0 1.8351517 -1.4877014 3.322834 -3.3228455 3.322834l-342.86615 0c-1.8351498 0 -3.322834 -1.4876823 -3.322834 -3.322834z" fill-rule="evenodd"/></g></svg>