<svg version="1.1" viewBox="0.0 0.0 231.3989501312336 100.0" fill="none" stroke="none" stroke-linecap="square" stroke-miterlimit="10" xmlns:xlink="http://www.w3.org/1999/xlink" xmlns="http://www.w3.org/2000/svg"><clipPath id="p.0"><path d="m0 0l231.39896 0l0 100.0l-231.39896 0l0 -100.0z" clip-rule="nonzero"/></clipPath><g clip-path="url(#p.0)"><path fill="#000000" fill-opacity="0.0" d="m0 0l231.39896 0l0 100.0l-231.39896 0z" fill-rule="evenodd"/><path fill="#000000" fill-opacity="0.0" d="m11.085288 28.992126l209.22835 0l0 42.015747l-209.22835 0z" fill-rule="evenodd"/><path fill="#000000" d="m104.069275 56.380875q-0.171875 -0.015625 -0.40625 -0.140625q-0.21875 -0.109375 -0.265625 -0.40625q-0.015625 -0.1875 -0.015625 -0.765625q0.015625 -0.578125 0.03125 -1.34375q0.015625 -0.78125 0.03125 -1.515625q0.03125 -0.75 0.046875 -1.28125q0.03125 -0.53125 0.03125 -0.609375q0 -0.0625 0 -0.390625q0.015625 -0.328125 0.015625 -0.75q0 -0.421875 0 -0.828125q0.015625 -0.421875 0.015625 -0.640625q0 -0.328125 -0.140625 -0.671875q-0.140625 -0.359375 -0.390625 -0.59375q-0.234375 -0.25 -0.59375 -0.21875q-0.625 0.09375 -1.28125 -0.265625q-0.65625 -0.375 -1.078125 -1.125q0.609375 -0.71875 1.359375 -1.34375q0.765625 -0.625 1.53125 -1.015625q0.78125 -0.40625 1.4375 -0.421875q0.75 -0.046875 1.4375 0.1875q0.6875 0.21875 1.046875 0.59375q0.296875 0.28125 0.390625 0.578125q0.09375 0.296875 -0.03125 0.828125q-0.03125 0.234375 -0.109375 0.578125q-0.0625 0.34375 -0.140625 0.8125q-0.046875 0.21875 -0.109375 0.78125q-0.046875 0.5625 -0.09375 1.234375q-0.046875 0.65625 -0.09375 1.234375q-0.03125 0.5625 -0.03125 0.796875q0 0.203125 0 0.6875q0 0.46875 0.015625 1.078125q0.015625 0.609375 0.03125 1.25q0.03125 0.640625 0.078125 1.1875q0.03125 0.421875 0.109375 0.8125q0.09375 0.390625 0.171875 0.53125q-0.21875 0.234375 -0.53125 0.40625q-0.296875 0.171875 -0.59375 0.28125q-0.296875 0.09375 -0.453125 0.15625q-0.140625 0.046875 -0.4375 0.125q-0.28125 0.078125 -0.5625 0.125q-0.28125 0.0625 -0.421875 0.0625zm12.80925 -14.203125q0.421875 -0.265625 0.921875 -0.34375q0.5 -0.078125 0.890625 0.015625q0.40625 0.09375 0.578125 0.328125q0.1875 0.234375 -0.03125 0.578125q-0.1875 0.34375 -0.59375 1.078125q-0.40625 0.71875 -0.953125 1.71875q-0.53125 1.0 -1.140625 2.109375q-0.59375 1.09375 -1.171875 2.1875q-0.578125 1.078125 -1.0625 2.0q-0.484375 0.921875 -0.8125 1.546875q-0.328125 0.625 -0.390625 0.796875q-0.265625 0.625 -0.3125 0.734375q-0.046875 0.09375 -0.046875 0.09375q0.015625 0.421875 -0.265625 0.9375q-0.265625 0.515625 -0.65625 0.78125q0 0 -0.109375 -0.015625q-0.09375 -0.015625 -0.6875 -0.03125q-0.375 -0.015625 -0.78125 -0.265625q-0.390625 -0.25 -0.546875 -0.75q-0.140625 -0.5 0.203125 -1.203125q0.171875 -0.375 0.578125 -1.171875q0.421875 -0.8125 0.96875 -1.875q0.546875 -1.078125 1.171875 -2.28125q0.640625 -1.203125 1.28125 -2.359375q0.65625 -1.171875 1.234375 -2.15625q0.578125 -1.0 1.03125 -1.640625q0.453125 -0.65625 0.703125 -0.8125zm13.197433 13.8125q-0.34375 0.1875 -0.96875 0.171875q-0.625 0 -1.296875 -0.1875q-0.109375 -0.046875 -0.546875 -0.171875q-0.4375 -0.140625 -1.015625 -0.296875q-0.5625 -0.171875 -1.09375 -0.34375q-0.53125 -0.1875 -0.859375 -0.296875q-0.890625 -0.328125 -1.328125 -0.609375q-0.4375 -0.28125 -0.5625 -0.5625q-0.125 -0.296875 -0.125 -0.65625q0.03125 -0.3125 0.203125 -0.65625q0.171875 -0.34375 0.640625 -0.921875q0.109375 -0.15625 0.421875 -0.484375q0.328125 -0.34375 0.703125 -0.765625q0.390625 -0.421875 0.734375 -0.828125q0.359375 -0.421875 0.546875 -0.71875q0.203125 -0.3125 0.5 -0.71875q0.296875 -0.40625 0.5625 -0.84375q0.265625 -0.453125 0.375 -0.875q0.109375 -0.4375 -0.0625 -0.78125q-0.125 -0.265625 -0.609375 -0.25q-0.484375 0.015625 -0.953125 0.328125q-0.4375 0.296875 -0.765625 0.5q-0.3125 0.1875 -0.8125 0.234375q-0.625 0.046875 -1.15625 -0.140625q-0.53125 -0.203125 -0.859375 -0.390625q0.296875 -1.171875 0.875 -1.890625q0.59375 -0.734375 1.3125 -1.125q0.734375 -0.390625 1.421875 -0.515625q1.34375 -0.234375 2.46875 0.125q1.125 0.34375 1.71875 0.890625q0.609375 0.578125 0.953125 1.375q0.34375 0.78125 0.296875 1.578125q-0.078125 0.796875 -0.578125 1.71875q-0.484375 0.921875 -1.296875 1.96875q-0.09375 0.109375 -0.296875 0.390625q-0.203125 0.265625 -0.4375 0.578125q-0.234375 0.3125 -0.421875 0.59375q-0.1875 0.265625 -0.234375 0.359375q-0.40625 0.765625 0.203125 1.03125q0.171875 0.046875 0.546875 0.140625q0.375 0.09375 0.8125 0.1875q0.453125 0.078125 0.875 0.140625q0.421875 0.0625 0.671875 0.078125q0.328125 0.03125 0.53125 0.34375q0.203125 0.3125 0.15625 0.65625q-0.015625 0.328125 -0.3125 0.84375q-0.296875 0.5 -0.9375 0.796875z" fill-rule="nonzero"/></g></svg>