<svg version="1.1" viewBox="0.0 0.0 498.68503937007875 117.15748031496064" fill="none" stroke="none" stroke-linecap="square" stroke-miterlimit="10" xmlns:xlink="http://www.w3.org/1999/xlink" xmlns="http://www.w3.org/2000/svg"><clipPath id="p.0"><path d="m0 0l498.68503 0l0 117.15748l-498.68503 0l0 -117.15748z" clip-rule="nonzero"/></clipPath><g clip-path="url(#p.0)"><path fill="#000000" fill-opacity="0.0" d="m0 0l498.68503 0l0 117.15748l-498.68503 0z" fill-rule="evenodd"/><path fill="#000000" fill-opacity="0.0" d="m0 0l498.4252 0l0 115.937004l-498.4252 0z" fill-rule="evenodd"/><path fill="#f2901a" d="m22.015625 38.761627q0.046875 0.328125 0.046875 1.078125q0.015625 0.75 0.015625 1.796875q0 1.046875 0 2.203125q0 1.15625 -0.015625 2.296875q0 1.140625 -0.015625 2.078125q0 0.921875 0 1.515625q0 0.578125 0.015625 0.65625q0.03125 0.15625 -0.0625 0.484375q-0.09375 0.328125 -0.296875 0.625q-0.203125 0.28125 -0.515625 0.328125q-0.296875 0.078125 -0.828125 0.015625q-0.53125 -0.0625 -1.078125 -0.296875q-0.53125 -0.234375 -0.84375 -0.6875q-0.1875 -0.265625 -0.578125 -0.75q-0.375 -0.5 -0.828125 -1.078125q-0.453125 -0.59375 -0.890625 -1.140625q-0.4375 -0.5625 -0.75 -0.953125q-0.296875 -0.40625 -0.359375 -0.5q-0.171875 -0.265625 -0.5625 -0.53125q-0.375 -0.265625 -0.59375 -0.1875q-0.234375 0.0625 -0.34375 0.453125q-0.109375 0.375 -0.140625 0.8125q-0.046875 0.28125 -0.046875 0.84375q0 0.5625 0 1.171875q0.015625 0.59375 0 0.96875q-0.015625 0.65625 0.40625 1.25q-0.140625 0.09375 -0.59375 0.296875q-0.4375 0.1875 -0.953125 0.328125q-0.5 0.15625 -0.859375 0.140625q-0.59375 -0.046875 -1.046875 -0.625q-0.453125 -0.578125 -0.46875 -1.4375q0 -0.15625 -0.015625 -0.921875q-0.015625 -0.78125 -0.03125 -1.9375q0 -1.15625 0 -2.5q0 -1.34375 -0.015625 -2.65625q0 -1.328125 -0.015625 -2.40625q0 -1.09375 0 -1.75q0 -0.65625 0 -0.65625q1.140625 -0.03125 1.921875 0.171875q0.78125 0.203125 1.296875 0.734375q0.234375 0.21875 0.65625 0.734375q0.4375 0.515625 0.9375 1.1875q0.515625 0.65625 1.015625 1.3125q0.5 0.65625 0.859375 1.15625q0.375 0.484375 0.484375 0.640625q0.3125 0.375 0.609375 0.59375q0.3125 0.203125 0.515625 0.125q0.453125 -0.140625 0.453125 -1.25l-0.046875 -5.40625q0.203125 -0.03125 0.71875 -0.015625q0.515625 0.015625 1.09375 0.15625q0.640625 0.15625 1.15625 0.515625q0.53125 0.34375 0.59375 1.015625zm6.44928 -2.046875q0.25 -0.140625 0.671875 -0.15625q0.4375 -0.015625 0.890625 0.109375q0.46875 0.109375 0.796875 0.3125q0.34375 0.203125 0.4375 0.484375q0.09375 0.265625 -0.234375 0.59375q-0.390625 0.40625 -1.109375 0.796875q-0.71875 0.390625 -1.5 0.734375q-0.78125 0.328125 -1.40625 0.5625q-0.625 0.234375 -0.859375 0.3125q-0.46875 0.171875 -0.703125 -0.203125q-0.234375 -0.390625 -0.09375 -0.9375q0.0625 -0.21875 0.375 -0.546875q0.328125 -0.328125 0.78125 -0.703125q0.46875 -0.390625 0.984375 -0.734375q0.515625 -0.359375 0.96875 -0.625zm4.6875 12.75q0 0.15625 0.0625 0.484375q0.0625 0.328125 0.15625 0.703125q0.109375 0.359375 0.21875 0.625q0.109375 0.25 0.21875 0.3125q-0.25 0.3125 -0.828125 0.515625q-0.578125 0.203125 -1.15625 0.0625q-0.4375 -0.109375 -0.8125 -0.234375q-0.359375 -0.125 -0.96875 -0.109375q-0.453125 0.015625 -0.890625 0.09375q-0.4375 0.09375 -0.875 0.171875q-0.234375 0.03125 -0.78125 0.015625q-0.546875 0 -1.203125 -0.140625q-0.640625 -0.125 -1.15625 -0.421875q-0.734375 -0.421875 -1.09375 -1.25q-0.34375 -0.828125 -0.390625 -1.6875q0 -0.21875 -0.015625 -0.8125q-0.015625 -0.59375 -0.03125 -1.40625q0 -0.828125 -0.015625 -1.703125q0 -0.875 -0.015625 -1.625q0 -0.765625 0 -1.234375q0 -0.484375 0 -0.484375q0.171875 -0.015625 0.5625 -0.03125q0.40625 -0.015625 0.890625 0.015625q0.484375 0.015625 0.9375 0.15625q0.453125 0.140625 0.78125 0.4375q0.328125 0.296875 0.390625 0.8125q0.046875 0.40625 0.0625 0.75q0.03125 0.328125 0.015625 0.734375q0 0.390625 -0.03125 0.984375q-0.03125 0.578125 -0.0625 1.484375q-0.046875 0.71875 -0.03125 1.25q0.03125 0.515625 0.25 0.78125q0.234375 0.265625 0.859375 0.234375q0.40625 -0.015625 0.6875 -0.3125q0.28125 -0.3125 0.4375 -0.765625q0.15625 -0.453125 0.234375 -0.90625q0.078125 -0.46875 0.0625 -0.828125q0 -0.078125 -0.015625 -0.578125q-0.015625 -0.515625 -0.03125 -1.21875q0 -0.703125 -0.015625 -1.390625q0 -0.6875 0 -1.140625q0 -0.46875 0 -0.46875q0.171875 -0.015625 0.5625 0q0.390625 0 0.875 0.078125q0.484375 0.078125 0.953125 0.265625q0.46875 0.1875 0.796875 0.515625q0.328125 0.3125 0.375 0.828125q0.109375 1.078125 0.046875 2.640625q-0.0625 1.546875 -0.015625 3.796875zm4.234787 -8.75q-0.625 0.015625 -1.125 -0.359375q-0.484375 -0.375 -0.75 -0.921875q-0.25 -0.546875 -0.1875 -1.0625q0.09375 -0.765625 0.6875 -1.078125q0.59375 -0.3125 1.25 -0.328125q0.9375 -0.046875 1.453125 0.484375q0.53125 0.515625 0.53125 1.1875q0 0.453125 -0.203125 0.921875q-0.1875 0.453125 -0.609375 0.78125q-0.40625 0.328125 -1.046875 0.375zm1.984375 9.203125q0.015625 0.34375 0.203125 0.578125q0.203125 0.234375 0.484375 0.4375q-0.125 0.171875 -0.328125 0.359375q-0.203125 0.1875 -0.609375 0.34375q-0.40625 0.15625 -1.140625 0.25q-0.25 0.015625 -0.625 -0.046875q-0.375 -0.0625 -0.734375 -0.375q-0.359375 -0.3125 -0.59375 -0.984375q-0.21875 -0.6875 -0.1875 -1.875q0.03125 -0.21875 0.015625 -0.8125q-0.015625 -0.59375 -0.03125 -1.40625q0 -0.828125 -0.015625 -1.703125q0 -0.875 -0.015625 -1.625q0 -0.765625 -0.015625 -1.234375q0 -0.484375 0 -0.484375q0.15625 -0.015625 0.5625 -0.046875q0.40625 -0.03125 0.890625 0.015625q0.484375 0.03125 0.9375 0.171875q0.453125 0.140625 0.78125 0.4375q0.328125 0.296875 0.390625 0.8125q0.09375 0.703125 0.0625 1.890625q-0.015625 1.1875 -0.0625 2.578125q-0.03125 1.375 0.03125 2.71875zm18.399857 -6.171875q-0.078125 0.390625 -0.34375 0.734375q-0.25 0.328125 -0.609375 0.546875q-0.34375 0.21875 -0.65625 0.234375q-0.3125 0.015625 -0.515625 -0.21875q0.34375 -0.25 0.171875 -0.46875q-0.171875 -0.234375 -0.59375 -0.359375q-0.40625 -0.125 -0.796875 -0.078125q-0.96875 0.15625 -1.4375 0.84375q-0.46875 0.671875 -0.59375 1.546875q-0.09375 0.75 0.15625 1.34375q0.25 0.578125 0.703125 0.921875q0.46875 0.34375 1.0 0.359375q1.21875 0.03125 2.015625 -0.34375q0.8125 -0.375 1.265625 -0.859375q0.453125 -0.5 0.625 -0.828125q0.4375 0.328125 0.515625 0.921875q0.078125 0.59375 -0.1875 1.28125q-0.25 0.6875 -0.8125 1.328125q-0.5625 0.640625 -1.375 1.046875q-0.796875 0.390625 -1.8125 0.390625q-0.546875 0 -1.296875 -0.140625q-0.75 -0.125 -1.53125 -0.46875q-0.765625 -0.359375 -1.40625 -1.03125q-0.640625 -0.671875 -0.984375 -1.734375q-0.34375 -1.0625 -0.21875 -2.609375q0.09375 -1.203125 0.640625 -2.125q0.5625 -0.921875 1.359375 -1.5625q0.796875 -0.640625 1.6875 -0.984375q0.890625 -0.359375 1.6875 -0.375q0.796875 -0.015625 1.453125 0.25q0.65625 0.25 1.09375 0.671875q0.453125 0.421875 0.65625 0.890625q0.21875 0.46875 0.140625 0.875zm12.348633 4.6875q0.015625 0.40625 0.0625 1.015625q0.046875 0.59375 0.234375 1.15625q0.1875 0.546875 0.59375 0.890625q-0.46875 0.3125 -0.953125 0.453125q-0.484375 0.140625 -0.953125 0.0625q-0.125 -0.03125 -0.28125 -0.078125q-0.140625 -0.046875 -0.40625 -0.125q-0.421875 -0.125 -1.0 -0.046875q-0.578125 0.0625 -1.203125 0.1875q-0.625 0.125 -1.234375 0.125q-0.96875 0 -1.9375 -0.34375q-0.96875 -0.34375 -1.75 -1.078125q-0.78125 -0.734375 -1.203125 -1.84375q-0.40625 -1.125 -0.234375 -2.6875q0.109375 -1.078125 0.609375 -1.984375q0.515625 -0.90625 1.25 -1.5625q0.734375 -0.671875 1.5625 -1.03125q0.828125 -0.375 1.625 -0.34375q0.59375 0.015625 0.921875 0.03125q0.328125 0.015625 0.84375 0.09375q0.3125 0.03125 0.796875 -0.09375q0.484375 -0.125 0.984375 -0.28125q0.5 -0.171875 0.84375 -0.171875q0.546875 -0.015625 0.765625 0.03125q0.234375 0.046875 0.375 0.09375q-0.109375 0.328125 -0.1875 1.0q-0.078125 0.671875 -0.109375 1.53125q-0.015625 0.84375 -0.046875 1.765625q-0.015625 0.90625 0 1.75q0.015625 0.828125 0.03125 1.484375zm-7.015625 -1.71875q0.03125 0.9375 0.34375 1.453125q0.3125 0.5 0.75 0.71875q0.4375 0.203125 0.84375 0.203125q0.828125 0.015625 1.21875 -0.640625q0.390625 -0.65625 0.375 -1.8125q0 -0.3125 -0.078125 -0.734375q-0.0625 -0.4375 -0.21875 -0.84375q-0.15625 -0.40625 -0.4375 -0.6875q-0.265625 -0.28125 -0.6875 -0.28125q-0.859375 0 -1.5 0.640625q-0.640625 0.625 -0.609375 1.984375zm19.733124 -0.59375q0.171875 1.5625 -0.25 2.6875q-0.40625 1.109375 -1.203125 1.84375q-0.78125 0.734375 -1.765625 1.078125q-0.96875 0.34375 -1.953125 0.34375q-0.9375 0 -1.921875 -0.34375q-0.984375 -0.34375 -1.765625 -1.078125q-0.765625 -0.734375 -1.1875 -1.84375q-0.421875 -1.125 -0.25 -2.6875q0.171875 -1.4375 0.859375 -2.515625q0.703125 -1.09375 1.796875 -1.71875q1.09375 -0.625 2.40625 -0.6875q0.0625 -0.03125 0.140625 -0.125q0.09375 -0.109375 0.3125 -0.1875q0.21875 -0.078125 0.65625 -0.046875q1.0625 0.296875 1.9375 1.03125q0.890625 0.71875 1.46875 1.8125q0.59375 1.078125 0.71875 2.4375zm-5.328125 2.96875q0.59375 0 1.015625 -0.28125q0.4375 -0.28125 0.6875 -0.71875q0.265625 -0.4375 0.390625 -0.921875q0.125 -0.484375 0.125 -0.875q0 -0.8125 -0.265625 -1.25q-0.265625 -0.453125 -1.1875 -0.8125q-0.265625 -0.109375 -0.359375 -0.296875q-0.09375 -0.1875 -0.28125 -0.203125q-0.609375 -0.078125 -1.046875 0.34375q-0.421875 0.40625 -0.65625 1.09375q-0.21875 0.6875 -0.21875 1.484375q0 0.8125 0.3125 1.359375q0.3125 0.53125 0.71875 0.8125q0.421875 0.265625 0.765625 0.265625zm21.093506 -8.015625q1.109375 0.171875 1.65625 0.53125q0.546875 0.359375 0.71875 0.828125q0.1875 0.46875 0.09375 1.046875q-0.078125 0.578125 -0.28125 1.203125q-0.15625 0.46875 -0.453125 1.171875q-0.28125 0.703125 -0.59375 1.453125q-0.296875 0.75 -0.5625 1.34375q-0.265625 0.59375 -0.34375 0.84375q-0.359375 0.8125 -0.640625 1.296875q-0.265625 0.46875 -0.546875 0.703125q-0.28125 0.21875 -0.6875 0.28125q-0.515625 0.0625 -0.9375 -0.125q-0.40625 -0.203125 -0.625 -0.609375q-0.015625 -0.03125 -0.078125 -0.359375q-0.0625 -0.34375 -0.125 -0.703125q-0.046875 -0.375 -0.09375 -0.484375q-0.203125 -0.578125 -0.53125 -1.390625q-0.328125 -0.8125 -0.703125 -1.734375q-0.359375 -0.9375 -0.71875 -1.828125q-0.359375 -0.90625 -0.671875 -1.640625q-0.296875 -0.734375 -0.46875 -1.171875q-0.171875 -0.4375 -0.171875 -0.4375q0.28125 -0.046875 0.78125 -0.09375q0.5 -0.0625 1.0625 -0.015625q0.578125 0.03125 1.078125 0.28125q0.5 0.234375 0.8125 0.765625q0.09375 0.1875 0.25 0.59375q0.15625 0.40625 0.296875 0.734375q0.125 0.234375 0.234375 0.53125q0.125 0.296875 0.296875 0.515625q0.171875 0.21875 0.390625 0.25q0.296875 0.015625 0.484375 -0.25q0.203125 -0.265625 0.3125 -0.578125q0.109375 -0.328125 0.171875 -0.484375q0.171875 -0.421875 0.328125 -0.890625q0.15625 -0.484375 0.234375 -0.90625q0.09375 -0.421875 0.03125 -0.671875zm8.954651 -4.359375q0.453125 0.265625 0.96875 0.625q0.53125 0.34375 0.984375 0.734375q0.453125 0.375 0.78125 0.703125q0.328125 0.328125 0.390625 0.546875q0.140625 0.546875 -0.09375 0.9375q-0.234375 0.375 -0.71875 0.203125q-0.234375 -0.078125 -0.859375 -0.3125q-0.625 -0.234375 -1.421875 -0.5625q-0.78125 -0.34375 -1.484375 -0.734375q-0.703125 -0.390625 -1.09375 -0.796875q-0.328125 -0.328125 -0.25 -0.59375q0.09375 -0.28125 0.4375 -0.484375q0.34375 -0.203125 0.796875 -0.3125q0.453125 -0.125 0.890625 -0.109375q0.4375 0.015625 0.671875 0.15625zm4.796875 11.734375q0.015625 0.40625 0.0625 1.015625q0.046875 0.59375 0.234375 1.15625q0.1875 0.546875 0.59375 0.890625q-0.453125 0.3125 -0.984375 0.46875q-0.515625 0.15625 -0.953125 -0.046875q-0.40625 -0.203125 -1.125 -0.265625q-0.703125 -0.0625 -1.578125 0.234375q-0.328125 0.109375 -0.6875 0.140625q-0.359375 0.046875 -0.71875 0.046875q-0.96875 0 -1.9375 -0.34375q-0.96875 -0.34375 -1.75 -1.0625q-0.78125 -0.734375 -1.203125 -1.859375q-0.40625 -1.125 -0.234375 -2.6875q0.109375 -1.078125 0.609375 -1.984375q0.515625 -0.90625 1.25 -1.578125q0.75 -0.671875 1.578125 -1.03125q0.84375 -0.375 1.625 -0.328125q0.78125 0.015625 1.3125 0.109375q0.53125 0.078125 0.9375 0.0625q0.40625 -0.046875 0.734375 -0.15625q0.34375 -0.109375 0.65625 -0.203125q0.546875 -0.1875 1.09375 -0.171875q0.546875 0 0.796875 0.0625q-0.109375 0.328125 -0.1875 1.0q-0.0625 0.671875 -0.109375 1.53125q-0.03125 0.84375 -0.046875 1.765625q0 0.90625 0 1.75q0.015625 0.828125 0.03125 1.484375zm-5.078125 0.65625q0.828125 0.015625 1.21875 -0.640625q0.390625 -0.65625 0.375 -1.8125q0 -0.3125 -0.078125 -0.734375q-0.0625 -0.4375 -0.21875 -0.84375q-0.15625 -0.40625 -0.4375 -0.6875q-0.265625 -0.28125 -0.6875 -0.28125q-0.859375 0 -1.515625 0.640625q-0.640625 0.625 -0.59375 1.984375q0.03125 0.9375 0.34375 1.453125q0.3125 0.515625 0.75 0.71875q0.4375 0.203125 0.84375 0.203125zm23.683044 -5.359375q-0.078125 0.390625 -0.34375 0.734375q-0.25 0.328125 -0.609375 0.546875q-0.34375 0.21875 -0.65625 0.234375q-0.3125 0.015625 -0.515625 -0.21875q0.34375 -0.25 0.171875 -0.46875q-0.171875 -0.234375 -0.59375 -0.359375q-0.40625 -0.125 -0.796875 -0.078125q-0.96875 0.15625 -1.4375 0.84375q-0.46875 0.671875 -0.59375 1.546875q-0.09375 0.75 0.15625 1.34375q0.25 0.578125 0.703125 0.921875q0.46875 0.34375 1.0 0.359375q1.21875 0.03125 2.015625 -0.34375q0.8125 -0.375 1.265625 -0.859375q0.453125 -0.5 0.625 -0.828125q0.4375 0.328125 0.515625 0.921875q0.078125 0.59375 -0.1875 1.28125q-0.25 0.6875 -0.8125 1.328125q-0.5625 0.640625 -1.375 1.046875q-0.796875 0.390625 -1.8125 0.390625q-0.546875 0 -1.296875 -0.140625q-0.75 -0.125 -1.53125 -0.46875q-0.765625 -0.359375 -1.40625 -1.03125q-0.640625 -0.671875 -0.984375 -1.734375q-0.34375 -1.0625 -0.21875 -2.609375q0.09375 -1.203125 0.640625 -2.125q0.5625 -0.921875 1.359375 -1.5625q0.796875 -0.640625 1.6875 -0.984375q0.890625 -0.359375 1.6875 -0.375q0.796875 -0.015625 1.453125 0.25q0.65625 0.25 1.09375 0.671875q0.453125 0.421875 0.65625 0.890625q0.21875 0.46875 0.140625 0.875zm12.348633 4.6875q0.015625 0.40625 0.0625 1.015625q0.046875 0.59375 0.234375 1.15625q0.1875 0.546875 0.59375 0.890625q-0.46875 0.3125 -0.953125 0.453125q-0.484375 0.140625 -0.953125 0.0625q-0.125 -0.03125 -0.28125 -0.078125q-0.140625 -0.046875 -0.40625 -0.125q-0.421875 -0.125 -1.0 -0.046875q-0.578125 0.0625 -1.203125 0.1875q-0.625 0.125 -1.234375 0.125q-0.96875 0 -1.9375 -0.34375q-0.96875 -0.34375 -1.75 -1.078125q-0.78125 -0.734375 -1.203125 -1.84375q-0.40625 -1.125 -0.234375 -2.6875q0.109375 -1.078125 0.609375 -1.984375q0.515625 -0.90625 1.25 -1.5625q0.734375 -0.671875 1.5625 -1.03125q0.828125 -0.375 1.625 -0.34375q0.59375 0.015625 0.921875 0.03125q0.328125 0.015625 0.84375 0.09375q0.3125 0.03125 0.796875 -0.09375q0.484375 -0.125 0.984375 -0.28125q0.5 -0.171875 0.84375 -0.171875q0.546875 -0.015625 0.765625 0.03125q0.234375 0.046875 0.375 0.09375q-0.109375 0.328125 -0.1875 1.0q-0.078125 0.671875 -0.109375 1.53125q-0.015625 0.84375 -0.046875 1.765625q-0.015625 0.90625 0 1.75q0.015625 0.828125 0.03125 1.484375zm-7.015625 -1.71875q0.03125 0.9375 0.34375 1.453125q0.3125 0.5 0.75 0.71875q0.4375 0.203125 0.84375 0.203125q0.828125 0.015625 1.21875 -0.640625q0.390625 -0.65625 0.375 -1.8125q0 -0.3125 -0.078125 -0.734375q-0.0625 -0.4375 -0.21875 -0.84375q-0.15625 -0.40625 -0.4375 -0.6875q-0.265625 -0.28125 -0.6875 -0.28125q-0.859375 0 -1.5 0.640625q-0.640625 0.625 -0.609375 1.984375zm19.733124 -0.59375q0.171875 1.5625 -0.25 2.6875q-0.40625 1.109375 -1.203125 1.84375q-0.78125 0.734375 -1.765625 1.078125q-0.96875 0.34375 -1.953125 0.34375q-0.9375 0 -1.921875 -0.34375q-0.984375 -0.34375 -1.765625 -1.078125q-0.765625 -0.734375 -1.1875 -1.84375q-0.421875 -1.125 -0.25 -2.6875q0.171875 -1.4375 0.859375 -2.515625q0.703125 -1.09375 1.796875 -1.71875q1.09375 -0.625 2.40625 -0.6875q0.0625 -0.03125 0.140625 -0.125q0.09375 -0.109375 0.3125 -0.1875q0.21875 -0.078125 0.65625 -0.046875q1.0625 0.296875 1.9375 1.03125q0.890625 0.71875 1.46875 1.8125q0.59375 1.078125 0.71875 2.4375zm-5.328125 2.96875q0.59375 0 1.015625 -0.28125q0.4375 -0.28125 0.6875 -0.71875q0.265625 -0.4375 0.390625 -0.921875q0.125 -0.484375 0.125 -0.875q0 -0.8125 -0.265625 -1.25q-0.265625 -0.453125 -1.1875 -0.8125q-0.265625 -0.109375 -0.359375 -0.296875q-0.09375 -0.1875 -0.28125 -0.203125q-0.609375 -0.078125 -1.046875 0.34375q-0.421875 0.40625 -0.65625 1.09375q-0.21875 0.6875 -0.21875 1.484375q0 0.8125 0.3125 1.359375q0.3125 0.53125 0.71875 0.8125q0.421875 0.265625 0.765625 0.265625zm24.48413 0.34375q0.03125 0.828125 0.265625 1.15625q0.234375 0.328125 0.234375 0.328125q0 0 -0.328125 0.234375q-0.328125 0.234375 -0.875 0.484375q-0.546875 0.234375 -1.203125 0.234375q-1.0 0 -1.296875 -0.546875q-0.296875 -0.546875 -0.3125 -1.40625q0 -0.140625 0.015625 -0.640625q0.015625 -0.515625 0.015625 -1.15625q0.015625 -0.640625 0 -1.1875q-0.015625 -0.546875 -0.078125 -0.78125q-0.203125 -0.75 -0.796875 -0.65625q-0.46875 0.0625 -0.875 0.546875q-0.40625 0.46875 -0.671875 1.125q-0.265625 0.640625 -0.265625 1.21875q0 0.3125 -0.03125 0.609375q-0.015625 0.28125 -0.03125 0.515625q-0.03125 0.171875 0.03125 0.421875q0.078125 0.234375 0.265625 0.375q-0.140625 0.234375 -0.53125 0.59375q-0.375 0.34375 -0.8125 0.640625q-0.4375 0.28125 -0.75 0.328125q-0.296875 0.015625 -0.703125 -0.1875q-0.40625 -0.203125 -0.703125 -0.609375q-0.28125 -0.421875 -0.296875 -1.0q0 -0.15625 0 -0.6875q0.015625 -0.546875 0.03125 -1.3125q0.015625 -0.765625 0.015625 -1.625q0.015625 -0.859375 0.015625 -1.65625q0 -0.796875 0 -1.375q0 -0.515625 -0.125 -0.984375q-0.125 -0.46875 -0.25 -0.78125q-0.109375 -0.3125 -0.109375 -0.3125q0.171875 -0.03125 0.578125 -0.046875q0.421875 -0.03125 0.9375 0.015625q0.53125 0.03125 1.046875 0.171875q0.515625 0.125 0.859375 0.40625q0.375 0.28125 0.75 0.34375q0.390625 0.0625 0.625 -0.0625q0.640625 -0.4375 1.3125 -0.75q0.671875 -0.3125 1.3125 -0.390625q0.3125 -0.046875 0.734375 0.03125q0.4375 0.0625 0.859375 0.28125q0.421875 0.21875 0.71875 0.640625q0.3125 0.40625 0.390625 1.046875q0.125 1.078125 0.0625 2.640625q-0.046875 1.546875 -0.03125 3.765625zm12.129593 -8.453125q0.046875 0.859375 0.03125 1.65625q-0.015625 0.796875 -0.015625 1.1875q0 0.203125 0.015625 0.96875q0.015625 0.765625 0.015625 1.859375q0.015625 1.078125 -0.015625 2.234375q-0.015625 1.15625 -0.078125 2.140625q-0.078125 1.078125 -0.46875 1.890625q-0.375 0.828125 -1.109375 1.21875q-0.71875 0.390625 -1.859375 0.234375q-0.859375 -0.140625 -1.296875 -0.53125q-0.4375 -0.390625 -0.5625 -0.90625q-0.125 -0.515625 0 -1.046875q0.125 -0.53125 0.359375 -0.9375q0.171875 0.203125 0.453125 0.4375q0.296875 0.234375 0.640625 0.359375q0.34375 0.125 0.671875 0.046875q0.203125 -0.0625 0.3125 -0.21875q0.109375 -0.15625 0.078125 -0.375q-0.046875 -0.234375 -0.546875 -0.515625q-0.484375 -0.296875 -1.265625 -0.25q-0.296875 0.015625 -0.46875 0.03125q-0.171875 0.015625 -0.390625 0.015625q-1.28125 0 -2.375 -0.515625q-1.078125 -0.53125 -1.71875 -1.609375q-0.625 -1.078125 -0.546875 -2.765625q0.046875 -1.078125 0.515625 -1.9375q0.46875 -0.875 1.203125 -1.484375q0.734375 -0.609375 1.5625 -0.90625q0.84375 -0.3125 1.625 -0.25q0.09375 0 0.375 0.0625q0.28125 0.046875 0.546875 0.09375q0.28125 0.046875 0.375 0.0625q0.65625 0.109375 1.46875 0.03125q0.8125 -0.09375 1.390625 -0.203125q0.375 -0.046875 0.71875 -0.0625q0.359375 -0.015625 0.359375 -0.015625zm-5.53125 3.265625q-0.75 0.078125 -1.125 0.5625q-0.359375 0.484375 -0.1875 1.21875q0.078125 0.328125 0.359375 0.65625q0.296875 0.328125 0.703125 0.515625q0.40625 0.1875 0.828125 0.15625q0.40625 -0.046875 0.71875 -0.140625q0.328125 -0.109375 0.5 -0.4375q0.1875 -0.34375 0.1875 -1.0625q0 -0.734375 -0.296875 -1.0625q-0.28125 -0.328125 -0.734375 -0.390625q-0.453125 -0.0625 -0.953125 -0.015625zm16.666214 5.1875q0 0.171875 0.0625 0.515625q0.0625 0.328125 0.15625 0.6875q0.109375 0.34375 0.21875 0.625q0.109375 0.265625 0.21875 0.328125q-0.25 0.3125 -0.828125 0.5q-0.578125 0.203125 -1.15625 0.078125q-0.453125 -0.140625 -0.8125 -0.25q-0.359375 -0.109375 -0.96875 -0.09375q-0.453125 0.015625 -0.890625 0.09375q-0.4375 0.078125 -0.875 0.171875q-0.234375 0.03125 -0.78125 0.015625q-0.546875 0 -1.203125 -0.140625q-0.640625 -0.125 -1.171875 -0.4375q-0.71875 -0.421875 -1.078125 -1.234375q-0.34375 -0.828125 -0.390625 -1.6875q0 -0.21875 -0.015625 -0.8125q-0.015625 -0.59375 -0.03125 -1.40625q0 -0.828125 -0.015625 -1.703125q0 -0.875 -0.015625 -1.625q0 -0.765625 0 -1.234375q0 -0.484375 0 -0.484375q0.171875 -0.015625 0.5625 -0.046875q0.40625 -0.03125 0.890625 0.015625q0.484375 0.03125 0.9375 0.171875q0.453125 0.140625 0.78125 0.4375q0.328125 0.296875 0.390625 0.8125q0.03125 0.40625 0.046875 0.75q0.03125 0.328125 0.03125 0.734375q0 0.390625 -0.03125 0.984375q-0.03125 0.578125 -0.0625 1.484375q-0.046875 0.71875 -0.046875 1.25q0.015625 0.515625 0.25 0.78125q0.25 0.265625 0.875 0.21875q0.40625 -0.015625 0.671875 -0.3125q0.28125 -0.3125 0.4375 -0.765625q0.171875 -0.453125 0.234375 -0.90625q0.078125 -0.46875 0.078125 -0.828125q0 -0.078125 -0.015625 -0.578125q-0.015625 -0.5 -0.03125 -1.203125q0 -0.703125 -0.015625 -1.390625q0 -0.6875 0 -1.140625q0 -0.46875 0 -0.46875q0.171875 -0.015625 0.5625 0q0.390625 0 0.875 0.078125q0.484375 0.078125 0.953125 0.265625q0.46875 0.1875 0.796875 0.515625q0.328125 0.3125 0.375 0.828125q0.109375 1.078125 0.046875 2.640625q-0.0625 1.546875 -0.015625 3.765625zm8.734787 -8.328125q1.296875 0.15625 1.875 0.734375q0.59375 0.578125 0.671875 1.375q0.09375 0.78125 -0.171875 1.59375q-0.15625 0.46875 -0.453125 1.1875q-0.28125 0.71875 -0.59375 1.46875q-0.296875 0.75 -0.5625 1.34375q-0.265625 0.578125 -0.34375 0.8125q-0.3125 0.6875 -0.71875 1.46875q-0.40625 0.78125 -0.90625 1.453125q-0.484375 0.671875 -1.015625 1.09375q-0.53125 0.421875 -1.046875 0.421875q-0.671875 0 -1.09375 -0.34375q-0.40625 -0.328125 -0.625 -0.828125q-0.203125 -0.484375 -0.25 -0.953125q0.484375 0.140625 0.890625 0q0.40625 -0.140625 0.703125 -0.40625q0.28125 -0.265625 0.34375 -0.59375q0.078125 -0.34375 0.03125 -0.59375q-0.09375 -1.046875 -0.578125 -2.265625l-2.734375 -6.78125q0.28125 -0.046875 0.734375 -0.109375q0.453125 -0.0625 0.96875 -0.015625q0.515625 0.046875 0.96875 0.28125q0.453125 0.234375 0.75 0.765625q0.125 0.1875 0.28125 0.578125q0.15625 0.375 0.328125 0.796875q0.1875 0.421875 0.296875 0.71875q0.203125 0.453125 0.4375 0.71875q0.234375 0.265625 0.46875 0.28125q0.203125 0.03125 0.40625 -0.140625q0.21875 -0.1875 0.34375 -0.46875q0.109375 -0.265625 0.25 -0.78125q0.15625 -0.515625 0.25 -0.875q0.171875 -0.65625 0.171875 -1.125q0.015625 -0.46875 -0.078125 -0.8125zm9.840225 -4.953125q0.046875 0.09375 0.375 0.46875q0.34375 0.359375 0.8125 0.859375q0.46875 0.484375 0.984375 1.0q0.515625 0.515625 0.9375 0.90625q0.4375 0.390625 0.671875 0.515625q-0.234375 0.40625 -0.8125 0.5625q-0.5625 0.15625 -1.25 -0.03125q-0.40625 -0.09375 -0.765625 -0.484375q-0.359375 -0.390625 -0.71875 -0.640625q-0.171875 -0.125 -0.59375 -0.171875q-0.421875 -0.046875 -0.75 0.203125q-0.296875 0.25 -0.65625 0.625q-0.359375 0.375 -0.734375 0.46875q-0.6875 0.1875 -1.265625 0.03125q-0.5625 -0.15625 -0.828125 -0.5625q0.25 -0.125 0.671875 -0.515625q0.421875 -0.40625 0.9375 -0.921875q0.515625 -0.53125 1.0 -1.03125q0.484375 -0.515625 0.8125 -0.859375q0.328125 -0.359375 0.390625 -0.421875q0.125 -0.125 0.359375 -0.15625q0.25 -0.046875 0.421875 0.15625zm3.65625 10.984375q0.4375 0.328125 0.578125 0.921875q0.15625 0.578125 -0.03125 1.265625q-0.171875 0.671875 -0.703125 1.296875q-0.515625 0.625 -1.390625 1.046875q-0.875 0.40625 -2.125 0.421875q-1.078125 0.015625 -2.078125 -0.265625q-0.984375 -0.265625 -1.796875 -0.84375q-0.8125 -0.59375 -1.328125 -1.5q-0.5 -0.921875 -0.546875 -2.1875q-0.015625 -0.265625 0 -0.53125q0.015625 -0.265625 0.03125 -0.5625q0.015625 -0.09375 0.015625 -0.15625q0 -0.078125 0.03125 -0.140625q0.171875 -1.125 0.765625 -2.0625q0.59375 -0.9375 1.453125 -1.578125q0.859375 -0.65625 1.828125 -0.96875q0.984375 -0.328125 1.9375 -0.234375q1.46875 0.15625 2.28125 0.796875q0.8125 0.625 1.0625 1.546875q0.25 0.921875 0.015625 1.984375q-0.140625 0.546875 -0.59375 1.046875q-0.453125 0.5 -1.125 0.90625q-0.671875 0.40625 -1.421875 0.625q-0.75 0.203125 -1.453125 0.171875q-0.375 -0.015625 -0.390625 0.234375q-0.015625 0.234375 0.21875 0.5q0.234375 0.265625 0.59375 0.34375q0.859375 0.1875 1.625 0.015625q0.78125 -0.1875 1.203125 -0.5q0.34375 -0.265625 0.71875 -0.703125q0.375 -0.4375 0.625 -0.890625zm-4.109375 -1.890625q0.453125 -0.046875 0.765625 -0.28125q0.3125 -0.234375 0.3125 -0.484375q0.015625 -0.375 -0.171875 -0.609375q-0.171875 -0.234375 -0.65625 -0.21875q-0.53125 0.015625 -1.015625 0.15625q-0.484375 0.125 -0.578125 0.5625q-0.046875 0.25 0.171875 0.46875q0.21875 0.203125 0.546875 0.3125q0.34375 0.109375 0.625 0.09375zm16.41063 4.1875q0.03125 0.828125 0.265625 1.15625q0.234375 0.328125 0.234375 0.328125q0 0 -0.328125 0.234375q-0.328125 0.234375 -0.875 0.484375q-0.546875 0.234375 -1.203125 0.234375q-1.0 0 -1.296875 -0.546875q-0.296875 -0.546875 -0.3125 -1.40625q0 -0.140625 0.015625 -0.640625q0.015625 -0.515625 0.015625 -1.15625q0.015625 -0.640625 0 -1.1875q-0.015625 -0.546875 -0.078125 -0.78125q-0.203125 -0.75 -0.796875 -0.65625q-0.46875 0.0625 -0.875 0.546875q-0.40625 0.46875 -0.671875 1.125q-0.265625 0.640625 -0.265625 1.21875q0 0.3125 -0.03125 0.609375q-0.015625 0.28125 -0.03125 0.515625q-0.03125 0.171875 0.03125 0.421875q0.078125 0.234375 0.265625 0.375q-0.140625 0.234375 -0.53125 0.59375q-0.375 0.34375 -0.8125 0.640625q-0.4375 0.28125 -0.75 0.328125q-0.296875 0.015625 -0.703125 -0.1875q-0.40625 -0.203125 -0.703125 -0.609375q-0.28125 -0.421875 -0.296875 -1.0q0 -0.15625 0 -0.6875q0.015625 -0.546875 0.03125 -1.3125q0.015625 -0.765625 0.015625 -1.625q0.015625 -0.859375 0.015625 -1.65625q0 -0.796875 0 -1.375q0 -0.515625 -0.125 -0.984375q-0.125 -0.46875 -0.25 -0.78125q-0.109375 -0.3125 -0.109375 -0.3125q0.171875 -0.03125 0.578125 -0.046875q0.421875 -0.03125 0.9375 0.015625q0.53125 0.03125 1.046875 0.171875q0.515625 0.125 0.859375 0.40625q0.375 0.28125 0.75 0.34375q0.390625 0.0625 0.625 -0.0625q0.640625 -0.4375 1.3125 -0.75q0.671875 -0.3125 1.3125 -0.390625q0.3125 -0.046875 0.734375 0.03125q0.4375 0.0625 0.859375 0.28125q0.421875 0.21875 0.71875 0.640625q0.3125 0.40625 0.390625 1.046875q0.125 1.078125 0.0625 2.640625q-0.046875 1.546875 -0.03125 3.765625z" fill-rule="nonzero"/><path fill="#000000" d="m251.18007 43.746002q-0.078125 0.390625 -0.34375 0.734375q-0.25 0.328125 -0.609375 0.546875q-0.34375 0.21875 -0.65625 0.234375q-0.3125 0.015625 -0.515625 -0.21875q0.34375 -0.25 0.171875 -0.46875q-0.171875 -0.234375 -0.59375 -0.359375q-0.40625 -0.125 -0.796875 -0.078125q-0.96875 0.15625 -1.4375 0.84375q-0.46875 0.671875 -0.59375 1.546875q-0.09375 0.75 0.15625 1.34375q0.25 0.578125 0.703125 0.921875q0.46875 0.34375 1.0 0.359375q1.21875 0.03125 2.015625 -0.34375q0.8125 -0.375 1.265625 -0.859375q0.453125 -0.5 0.625 -0.828125q0.4375 0.328125 0.515625 0.921875q0.078125 0.59375 -0.1875 1.28125q-0.25 0.6875 -0.8125 1.328125q-0.5625 0.640625 -1.375 1.046875q-0.796875 0.390625 -1.8125 0.390625q-0.546875 0 -1.296875 -0.140625q-0.75 -0.125 -1.53125 -0.46875q-0.765625 -0.359375 -1.40625 -1.03125q-0.640625 -0.671875 -0.984375 -1.734375q-0.34375 -1.0625 -0.21875 -2.609375q0.09375 -1.203125 0.640625 -2.125q0.5625 -0.921875 1.359375 -1.5625q0.796875 -0.640625 1.6875 -0.984375q0.890625 -0.359375 1.6875 -0.375q0.796875 -0.015625 1.453125 0.25q0.65625 0.25 1.09375 0.671875q0.453125 0.421875 0.65625 0.890625q0.21875 0.46875 0.140625 0.875zm12.145493 5.6875q0.015625 0.34375 0.109375 0.703125q0.109375 0.359375 0.515625 0.53125q-0.234375 0.3125 -0.859375 0.703125q-0.609375 0.375 -1.3125 0.5q-0.65625 0.09375 -1.09375 -0.15625q-0.4375 -0.265625 -0.65625 -0.75q-0.21875 -0.484375 -0.234375 -1.046875q0 -0.140625 0.015625 -0.609375q0.015625 -0.484375 0.015625 -1.09375q0 -0.625 -0.015625 -1.171875q0 -0.5625 -0.046875 -0.890625q-0.125 -0.609375 -0.453125 -0.6875q-0.3125 -0.09375 -0.734375 0.15625q-0.640625 0.359375 -1.0625 1.3125q-0.421875 0.9375 -0.4375 2.390625q-0.015625 0.578125 0.140625 0.828125q0.171875 0.25 0.171875 0.25q0 0 -0.1875 0.328125q-0.1875 0.3125 -0.671875 0.6875q-0.484375 0.359375 -1.4218597 0.5q-0.515625 0.078125 -0.859375 -0.1875q-0.328125 -0.28125 -0.484375 -0.78125q-0.140625 -0.5 -0.15625 -1.0625l-0.0625 -10.84375q-0.015625 -0.765625 -0.171875 -1.34375q-0.140625 -0.59375 -0.140625 -0.59375q0.46875 -0.046875 1.09375 -0.03125q0.625 0.015625 1.21875 0.171875q0.60935974 0.15625 1.0312347 0.53125q0.4375 0.375 0.515625 1.015625q0.015625 0.125 0.046875 0.5q0.03125 0.359375 0.03125 0.71875q-0.015625 0.53125 0.140625 0.890625q0.171875 0.34375 0.453125 0.53125q0.3125 0.1875 0.796875 0.125q0.484375 -0.0625 0.859375 -0.203125q0.375 -0.140625 0.625 -0.21875q0.25 -0.078125 0.53125 -0.109375q0.3125 -0.046875 0.734375 0.03125q0.4375 0.0625 0.859375 0.28125q0.421875 0.21875 0.734375 0.640625q0.3125 0.40625 0.375 1.046875q0.140625 1.078125 0.0625 2.640625q-0.0625 1.546875 -0.015625 3.765625zm4.2042236 -8.71875q-0.625 0.015625 -1.125 -0.359375q-0.484375 -0.375 -0.75 -0.921875q-0.25 -0.546875 -0.1875 -1.0625q0.09375 -0.765625 0.6875 -1.078125q0.59375 -0.3125 1.25 -0.328125q0.9375 -0.046875 1.453125 0.484375q0.53125 0.515625 0.53125 1.1875q0 0.453125 -0.203125 0.921875q-0.1875 0.453125 -0.609375 0.78125q-0.40625 0.328125 -1.046875 0.375zm1.984375 9.203125q0.015625 0.34375 0.203125 0.578125q0.203125 0.234375 0.484375 0.4375q-0.125 0.171875 -0.328125 0.359375q-0.203125 0.1875 -0.609375 0.34375q-0.40625 0.15625 -1.140625 0.25q-0.25 0.015625 -0.625 -0.046875q-0.375 -0.0625 -0.734375 -0.375q-0.359375 -0.3125 -0.59375 -0.984375q-0.21875 -0.6875 -0.1875 -1.875q0.03125 -0.21875 0.015625 -0.8125q-0.015625 -0.59375 -0.03125 -1.40625q0 -0.828125 -0.015625 -1.703125q0 -0.875 -0.015625 -1.625q0 -0.765625 -0.015625 -1.234375q0 -0.484375 0 -0.484375q0.15625 -0.015625 0.5625 -0.046875q0.40625 -0.03125 0.890625 0.015625q0.484375 0.03125 0.9375 0.171875q0.453125 0.140625 0.78125 0.4375q0.328125 0.296875 0.390625 0.8125q0.09375 0.703125 0.0625 1.890625q-0.015625 1.1875 -0.0625 2.578125q-0.03125 1.375 0.03125 2.71875zm12.671753 -14.28125q0.265625 -0.15625 0.671875 -0.15625q0.421875 0 0.875 0.109375q0.46875 0.09375 0.796875 0.3125q0.34375 0.203125 0.4375 0.484375q0.09375 0.265625 -0.234375 0.59375q-0.375 0.390625 -1.015625 0.78125q-0.640625 0.375 -1.359375 0.671875q-0.71875 0.296875 -1.34375 0.484375q-0.34375 0.09375 -0.390625 0.328125q-0.03125 0.21875 0.078125 0.421875q0.125 0.1875 0.1875 0.234375q-0.234375 0.40625 -0.8125 0.5625q-0.5625 0.15625 -1.25 -0.03125q-0.390625 -0.09375 -0.765625 -0.5q-0.359375 -0.40625 -0.703125 -0.640625q-0.15625 -0.109375 -0.59375 -0.15625q-0.421875 -0.046875 -0.734375 0.1875q-0.328125 0.25 -0.6875 0.640625q-0.359375 0.375 -0.734375 0.46875q-0.6875 0.1875 -1.25 0.03125q-0.5625 -0.15625 -0.828125 -0.5625q0.25 -0.125 0.671875 -0.515625q0.4375 -0.40625 0.953125 -0.921875q0.515625 -0.53125 0.984375 -1.03125q0.484375 -0.515625 0.796875 -0.859375q0.328125 -0.359375 0.390625 -0.421875q0.140625 -0.140625 0.375 -0.171875q0.25 -0.03125 0.40625 0.171875q0.03125 0.0625 0.28125 0.3125q0.265625 0.234375 0.578125 0.546875q0.3125 0.296875 0.59375 0.546875q0.28125 0.25 0.375 0.34375q0.265625 0.234375 0.484375 0.15625q0.21875 -0.078125 0.40625 -0.28125q0.203125 -0.21875 0.34375 -0.375q0.1875 -0.203125 0.515625 -0.53125q0.34375 -0.34375 0.734375 -0.6875q0.390625 -0.34375 0.765625 -0.546875zm-1.0625 11.5q0.4375 0.328125 0.578125 0.921875q0.15625 0.578125 -0.03125 1.265625q-0.171875 0.671875 -0.703125 1.296875q-0.515625 0.625 -1.390625 1.046875q-0.875 0.40625 -2.125 0.421875q-1.078125 0.015625 -2.0625 -0.265625q-0.984375 -0.265625 -1.796875 -0.84375q-0.8125 -0.59375 -1.3125 -1.5q-0.5 -0.921875 -0.5625 -2.1875q-0.015625 -0.265625 -0.015625 -0.53125q0.015625 -0.28125 0.046875 -0.59375q0 -0.0625 0.015625 -0.125q0.015625 -0.078125 0.03125 -0.140625q0.15625 -1.125 0.75 -2.0625q0.609375 -0.9375 1.453125 -1.578125q0.859375 -0.65625 1.84375 -0.96875q0.984375 -0.328125 1.9375 -0.234375q1.46875 0.15625 2.28125 0.796875q0.8125 0.625 1.046875 1.546875q0.25 0.921875 0.015625 1.984375q-0.109375 0.53125 -0.578125 1.046875q-0.46875 0.5 -1.140625 0.90625q-0.65625 0.40625 -1.421875 0.625q-0.75 0.203125 -1.453125 0.171875q-0.359375 -0.015625 -0.390625 0.234375q-0.015625 0.234375 0.21875 0.5q0.234375 0.265625 0.59375 0.34375q0.859375 0.1875 1.640625 0.015625q0.796875 -0.1875 1.203125 -0.5q0.328125 -0.265625 0.703125 -0.703125q0.375 -0.4375 0.625 -0.890625zm-4.09375 -1.890625q0.4375 -0.046875 0.75 -0.28125q0.3125 -0.234375 0.328125 -0.484375q0 -0.375 -0.1875 -0.609375q-0.171875 -0.234375 -0.65625 -0.21875q-0.53125 0.015625 -1.015625 0.15625q-0.46875 0.125 -0.5625 0.5625q-0.046875 0.25 0.15625 0.46875q0.21875 0.203125 0.546875 0.3125q0.34375 0.109375 0.640625 0.09375zm22.991455 4.1875q0.015625 0.234375 0.109375 0.5625q0.109375 0.3125 0.203125 0.578125q0.109375 0.265625 0.109375 0.265625q-0.09375 0.109375 -0.390625 0.40625q-0.296875 0.296875 -0.75 0.53125q-0.453125 0.234375 -1.03125 0.140625q-1.03125 -0.1875 -1.40625 -0.859375q-0.359375 -0.671875 -0.375 -1.53125q0 -0.140625 0.015625 -0.5625q0.03125 -0.4375 0.03125 -0.96875q0.015625 -0.53125 0 -1.0q0 -0.484375 -0.078125 -0.703125q-0.109375 -0.4375 -0.34375 -0.53125q-0.21875 -0.09375 -0.46875 0.03125q-0.234375 0.125 -0.40625 0.390625q-0.171875 0.25 -0.171875 0.546875q-0.015625 0.46875 -0.015625 0.8125q0 0.328125 0.015625 0.875q0 0.125 0.03125 0.484375q0.046875 0.34375 0.09375 0.796875q0.0625 0.453125 0.125 0.875q0.078125 0.40625 0.140625 0.671875q-0.453125 0.34375 -1.078125 0.5625q-0.625 0.21875 -1.59375 0q-0.515625 -0.109375 -0.765625 -0.46875q-0.234375 -0.359375 -0.328125 -0.828125q-0.078125 -0.46875 -0.078125 -0.96875q0 -0.515625 0 -0.9375q0 -0.21875 0.03125 -0.65625q0.03125 -0.453125 0.03125 -0.9375q0 -0.5 -0.09375 -0.796875q-0.078125 -0.25 -0.234375 -0.3125q-0.15625 -0.0625 -0.265625 -0.046875q-0.296875 0.015625 -0.515625 0.171875q-0.21875 0.140625 -0.28125 0.609375q-0.046875 0.234375 -0.0625 0.75q0 0.5 0 1.078125q0 0.5625 0 1.0q0.015625 0.421875 0.03125 0.5q0.0625 0.265625 0.21875 0.390625q0.171875 0.109375 0.171875 0.109375q0 0 -0.203125 0.234375q-0.1875 0.234375 -0.53125 0.53125q-0.328125 0.296875 -0.78125 0.515625q-0.4375 0.21875 -0.953125 0.15625q-0.515625 -0.03125 -0.953125 -0.515625q-0.4375 -0.5 -0.453125 -1.34375l-0.0625 -7.171875q-0.015625 -0.671875 -0.140625 -1.09375q-0.109375 -0.4375 -0.109375 -0.4375q0.1875 -0.03125 0.671875 -0.046875q0.484375 -0.03125 1.078125 0.015625q0.59375 0.046875 1.078125 0.28125q0.296875 0.125 0.671875 0.09375q0.390625 -0.03125 0.671875 -0.1875q0.328125 -0.171875 0.640625 -0.296875q0.328125 -0.140625 0.671875 -0.171875q0.390625 -0.046875 0.953125 0.078125q0.5625 0.109375 1.15625 0.40625q0.375 0.1875 0.875 0.265625q0.5 0.0625 0.6875 -0.0625q0.375 -0.265625 0.796875 -0.453125q0.421875 -0.1875 0.84375 -0.234375q0.3125 -0.046875 0.75 0.03125q0.453125 0.0625 0.859375 0.28125q0.421875 0.21875 0.734375 0.640625q0.3125 0.40625 0.375 1.046875q0.0625 0.53125 0.0625 1.40625q0.015625 0.859375 0 1.828125q-0.015625 0.953125 -0.03125 1.8125q0 0.84375 0.015625 1.359375zm17.40033 -1.484375q0.09375 0.140625 0.421875 0.546875q0.34375 0.390625 0.765625 0.84375q0.421875 0.453125 0.796875 0.828125q0.390625 0.359375 0.578125 0.46875q-0.296875 0.671875 -1.0 1.03125q-0.703125 0.34375 -1.546875 0.28125q-0.828125 -0.0625 -1.578125 -0.625q-0.171875 -0.125 -0.484375 -0.46875q-0.296875 -0.359375 -0.5625 -0.703125q-0.265625 -0.359375 -0.59375 -0.71875q-0.3125 -0.375 -0.65625 -0.296875q-0.171875 0.046875 -0.3125 0.265625q-0.140625 0.21875 -0.140625 0.59375q0 0.3125 0.140625 0.625q0.140625 0.296875 0.140625 0.296875q0 0 -0.21875 0.1875q-0.203125 0.1875 -0.5625 0.40625q-0.359375 0.21875 -0.765625 0.3125q-0.40625 0.09375 -0.890625 -0.140625q-0.46875 -0.234375 -0.8125 -0.6875q-0.328125 -0.453125 -0.34375 -1.015625q0 -0.15625 -0.015625 -0.796875q0 -0.640625 -0.015625 -1.59375q-0.015625 -0.96875 -0.015625 -2.109375q0 -1.15625 -0.015625 -2.3125q0 -1.171875 -0.015625 -2.21875q0 -1.0625 0 -1.8125q0 -0.484375 -0.078125 -0.9375q-0.0625 -0.46875 -0.15625 -0.78125q-0.078125 -0.3125 -0.078125 -0.3125q0.171875 -0.03125 0.578125 -0.015625q0.421875 0 0.953125 0.09375q0.53125 0.078125 1.046875 0.25q0.515625 0.171875 0.875 0.515625q0.375 0.328125 0.421875 0.84375q0.015625 0.140625 0.03125 0.640625q0.015625 0.484375 0.015625 1.0625q0 0.5625 -0.03125 0.9375q-0.015625 0.5625 0.15625 0.9375q0.171875 0.359375 0.46875 0.515625q0.296875 0.1875 0.71875 0.140625q0.421875 -0.0625 0.90625 -0.328125q0.234375 -0.125 0.671875 -0.40625q0.453125 -0.28125 0.921875 -0.578125q0.484375 -0.296875 0.8125 -0.5q0.328125 -0.203125 0.328125 -0.203125q0.171875 0.125 0.40625 0.515625q0.25 0.390625 0.4375 0.90625q0.1875 0.5 0.1875 1.03125q0.015625 0.53125 -0.296875 0.9375q-0.0625 0.078125 -0.21875 0.203125q-0.15625 0.125 -0.453125 0.34375q-0.5625 0.390625 -0.796875 0.78125q-0.234375 0.375 -0.34375 0.8125q-0.078125 0.359375 -0.03125 0.734375q0.0625 0.375 0.25 0.671875zm14.148743 1.484375q0.015625 0.34375 0.109375 0.703125q0.109375 0.359375 0.515625 0.53125q-0.234375 0.3125 -0.859375 0.703125q-0.609375 0.375 -1.3125 0.5q-0.65625 0.09375 -1.09375 -0.15625q-0.4375 -0.265625 -0.65625 -0.75q-0.21875 -0.484375 -0.234375 -1.046875q0 -0.140625 0.015625 -0.609375q0.015625 -0.484375 0.015625 -1.09375q0 -0.625 -0.015625 -1.171875q0 -0.5625 -0.046875 -0.890625q-0.125 -0.609375 -0.453125 -0.6875q-0.3125 -0.09375 -0.734375 0.15625q-0.640625 0.359375 -1.0625 1.3125q-0.421875 0.9375 -0.4375 2.390625q-0.015625 0.578125 0.140625 0.828125q0.171875 0.25 0.171875 0.25q0 0 -0.1875 0.328125q-0.1875 0.3125 -0.671875 0.6875q-0.484375 0.359375 -1.421875 0.5q-0.515625 0.078125 -0.859375 -0.1875q-0.328125 -0.28125 -0.484375 -0.78125q-0.140625 -0.5 -0.15625 -1.0625l-0.0625 -10.84375q-0.015625 -0.765625 -0.171875 -1.34375q-0.140625 -0.59375 -0.140625 -0.59375q0.46875 -0.046875 1.09375 -0.03125q0.625 0.015625 1.21875 0.171875q0.609375 0.15625 1.03125 0.53125q0.4375 0.375 0.515625 1.015625q0.015625 0.125 0.046875 0.5q0.03125 0.359375 0.03125 0.71875q-0.015625 0.53125 0.140625 0.890625q0.171875 0.34375 0.453125 0.53125q0.3125 0.1875 0.796875 0.125q0.484375 -0.0625 0.859375 -0.203125q0.375 -0.140625 0.625 -0.21875q0.25 -0.078125 0.53125 -0.109375q0.3125 -0.046875 0.734375 0.03125q0.4375 0.0625 0.859375 0.28125q0.421875 0.21875 0.734375 0.640625q0.3125 0.40625 0.375 1.046875q0.140625 1.078125 0.0625 2.640625q-0.0625 1.546875 -0.015625 3.765625zm11.894196 -3.3125q0.171875 1.5625 -0.25 2.6875q-0.40625 1.109375 -1.203125 1.84375q-0.78125 0.734375 -1.765625 1.078125q-0.96875 0.34375 -1.953125 0.34375q-0.9375 0 -1.921875 -0.34375q-0.984375 -0.34375 -1.765625 -1.078125q-0.765625 -0.734375 -1.1875 -1.84375q-0.421875 -1.125 -0.25 -2.6875q0.171875 -1.4375 0.859375 -2.515625q0.703125 -1.09375 1.796875 -1.71875q1.09375 -0.625 2.40625 -0.6875q0.0625 -0.03125 0.140625 -0.125q0.09375 -0.109375 0.3125 -0.1875q0.21875 -0.078125 0.65625 -0.046875q1.0625 0.296875 1.9375 1.03125q0.890625 0.71875 1.46875 1.8125q0.59375 1.078125 0.71875 2.4375zm-5.328125 2.96875q0.59375 0 1.015625 -0.28125q0.4375 -0.28125 0.6875 -0.71875q0.265625 -0.4375 0.390625 -0.921875q0.125 -0.484375 0.125 -0.875q0 -0.8125 -0.265625 -1.25q-0.265625 -0.453125 -1.1875 -0.8125q-0.265625 -0.109375 -0.359375 -0.296875q-0.09375 -0.1875 -0.28125 -0.203125q-0.609375 -0.078125 -1.046875 0.34375q-0.421875 0.40625 -0.65625 1.09375q-0.21875 0.6875 -0.21875 1.484375q0 0.8125 0.3125 1.359375q0.3125 0.53125 0.71875 0.8125q0.421875 0.265625 0.765625 0.265625zm11.709137 -8.15625q0 0 -0.078125 -0.1875q-0.0625 -0.1875 -0.140625 -0.46875q-0.0625 -0.28125 -0.03125 -0.5625q0.046875 -0.28125 0.265625 -0.46875q0.265625 -0.203125 0.625 -0.25q0.375 -0.0625 0.65625 -0.109375q0.296875 -0.0625 0.375 -0.265625q0.078125 -0.203125 -0.03125 -0.390625q-0.109375 -0.1875 -0.40625 -0.1875q-0.28125 -0.015625 -0.640625 0.234375q-0.359375 0.25 -0.71875 0.484375q-0.359375 0.21875 -0.671875 0.140625q-0.359375 -0.09375 -0.578125 -0.34375q-0.21875 -0.25 -0.265625 -0.78125q0.171875 -0.171875 0.5 -0.375q0.34375 -0.21875 0.90625 -0.375q0.578125 -0.15625 1.453125 -0.140625q1.625 0.015625 2.203125 0.375q0.59375 0.34375 0.5625 0.921875q-0.03125 0.4375 -0.375 0.75q-0.328125 0.296875 -0.703125 0.46875q-0.359375 0.171875 -0.515625 0.203125q-0.40625 0.078125 -0.546875 0.3125q-0.140625 0.21875 -0.125 0.484375q0.015625 0.25 0.09375 0.4375q0.078125 0.1875 0.078125 0.1875l-1.890625 -0.09375zm5.46875 7.515625q0.015625 0.40625 0.0625 1.0q0.046875 0.59375 0.234375 1.15625q0.1875 0.546875 0.59375 0.890625q-0.96875 0.6875 -1.890625 0.515625q-0.140625 -0.03125 -0.296875 -0.078125q-0.140625 -0.03125 -0.40625 -0.109375q-0.421875 -0.140625 -1.0 -0.0625q-0.578125 0.0625 -1.21875 0.1875q-0.625 0.125 -1.234375 0.125q-0.96875 0 -1.9375 -0.34375q-0.96875 -0.34375 -1.75 -1.0625q-0.78125 -0.71875 -1.203125 -1.84375q-0.40625 -1.140625 -0.234375 -2.703125q0.109375 -1.078125 0.609375 -1.984375q0.515625 -0.90625 1.25 -1.5625q0.75 -0.671875 1.578125 -1.03125q0.84375 -0.375 1.625 -0.34375q0.59375 0.015625 0.921875 0.046875q0.328125 0.015625 0.84375 0.078125q0.3125 0.03125 0.78125 -0.09375q0.484375 -0.125 0.984375 -0.28125q0.515625 -0.171875 0.875 -0.171875q0.53125 -0.015625 0.75 0.03125q0.234375 0.046875 0.375 0.09375q-0.109375 0.34375 -0.1875 1.015625q-0.0625 0.65625 -0.09375 1.515625q-0.03125 0.84375 -0.046875 1.765625q-0.015625 0.90625 -0.015625 1.75q0.015625 0.84375 0.03125 1.5zm-7.015625 -1.734375q0.03125 0.9375 0.34375 1.453125q0.3125 0.5 0.75 0.71875q0.4375 0.203125 0.84375 0.21875q0.828125 0 1.21875 -0.640625q0.390625 -0.65625 0.375 -1.8125q0 -0.3125 -0.078125 -0.734375q-0.0625 -0.4375 -0.21875 -0.84375q-0.15625 -0.421875 -0.4375 -0.703125q-0.265625 -0.28125 -0.6875 -0.28125q-0.859375 0.015625 -1.515625 0.65625q-0.640625 0.625 -0.59375 1.96875zm19.56427 2.71875q0.03125 0.828125 0.265625 1.15625q0.234375 0.328125 0.234375 0.328125q0 0 -0.328125 0.234375q-0.328125 0.234375 -0.875 0.484375q-0.546875 0.234375 -1.203125 0.234375q-1.0 0 -1.296875 -0.546875q-0.296875 -0.546875 -0.3125 -1.40625q0 -0.140625 0.015625 -0.640625q0.015625 -0.515625 0.015625 -1.15625q0.015625 -0.640625 0 -1.1875q-0.015625 -0.546875 -0.078125 -0.78125q-0.203125 -0.75 -0.796875 -0.65625q-0.46875 0.0625 -0.875 0.546875q-0.40625 0.46875 -0.671875 1.125q-0.265625 0.640625 -0.265625 1.21875q0 0.3125 -0.03125 0.609375q-0.015625 0.28125 -0.03125 0.515625q-0.03125 0.171875 0.03125 0.421875q0.078125 0.234375 0.265625 0.375q-0.140625 0.234375 -0.53125 0.59375q-0.375 0.34375 -0.8125 0.640625q-0.4375 0.28125 -0.75 0.328125q-0.296875 0.015625 -0.703125 -0.1875q-0.40625 -0.203125 -0.703125 -0.609375q-0.28125 -0.421875 -0.296875 -1.0q0 -0.15625 0 -0.6875q0.015625 -0.546875 0.03125 -1.3125q0.015625 -0.765625 0.015625 -1.625q0.015625 -0.859375 0.015625 -1.65625q0 -0.796875 0 -1.375q0 -0.515625 -0.125 -0.984375q-0.125 -0.46875 -0.25 -0.78125q-0.109375 -0.3125 -0.109375 -0.3125q0.171875 -0.03125 0.578125 -0.046875q0.421875 -0.03125 0.9375 0.015625q0.53125 0.03125 1.046875 0.171875q0.515625 0.125 0.859375 0.40625q0.375 0.28125 0.75 0.34375q0.390625 0.0625 0.625 -0.0625q0.640625 -0.4375 1.3125 -0.75q0.671875 -0.3125 1.3125 -0.390625q0.3125 -0.046875 0.734375 0.03125q0.4375 0.0625 0.859375 0.28125q0.421875 0.21875 0.71875 0.640625q0.3125 0.40625 0.390625 1.046875q0.125 1.078125 0.0625 2.640625q-0.046875 1.546875 -0.03125 3.765625zm12.129578 -8.453125q0.046875 0.859375 0.03125 1.65625q-0.015625 0.796875 -0.015625 1.1875q0 0.203125 0.015625 0.96875q0.015625 0.765625 0.015625 1.859375q0.015625 1.078125 -0.015625 2.234375q-0.015625 1.15625 -0.078125 2.140625q-0.078125 1.078125 -0.46875 1.890625q-0.375 0.828125 -1.109375 1.21875q-0.71875 0.390625 -1.859375 0.234375q-0.859375 -0.140625 -1.296875 -0.53125q-0.4375 -0.390625 -0.5625 -0.90625q-0.125 -0.515625 0 -1.046875q0.125 -0.53125 0.359375 -0.9375q0.171875 0.203125 0.453125 0.4375q0.296875 0.234375 0.640625 0.359375q0.34375 0.125 0.671875 0.046875q0.203125 -0.0625 0.3125 -0.21875q0.109375 -0.15625 0.078125 -0.375q-0.046875 -0.234375 -0.546875 -0.515625q-0.484375 -0.296875 -1.265625 -0.25q-0.296875 0.015625 -0.46875 0.03125q-0.171875 0.015625 -0.390625 0.015625q-1.28125 0 -2.375 -0.515625q-1.078125 -0.53125 -1.71875 -1.609375q-0.625 -1.078125 -0.546875 -2.765625q0.046875 -1.078125 0.515625 -1.9375q0.46875 -0.875 1.203125 -1.484375q0.734375 -0.609375 1.5625 -0.90625q0.84375 -0.3125 1.625 -0.25q0.09375 0 0.375 0.0625q0.28125 0.046875 0.546875 0.09375q0.28125 0.046875 0.375 0.0625q0.65625 0.109375 1.46875 0.03125q0.8125 -0.09375 1.390625 -0.203125q0.375 -0.046875 0.71875 -0.0625q0.359375 -0.015625 0.359375 -0.015625zm-5.53125 3.265625q-0.75 0.078125 -1.125 0.5625q-0.359375 0.484375 -0.1875 1.21875q0.078125 0.328125 0.359375 0.65625q0.296875 0.328125 0.703125 0.515625q0.40625 0.1875 0.828125 0.15625q0.40625 -0.046875 0.71875 -0.140625q0.328125 -0.109375 0.5 -0.4375q0.1875 -0.34375 0.1875 -1.0625q0 -0.734375 -0.296875 -1.0625q-0.28125 -0.328125 -0.734375 -0.390625q-0.453125 -0.0625 -0.953125 -0.015625zm24.863098 1.875q0.171875 1.5625 -0.25 2.6875q-0.40625 1.109375 -1.1875 1.84375q-0.78125 0.734375 -1.75 1.078125q-0.96875 0.34375 -1.9375 0.34375q-0.453125 0 -1.09375 -0.09375q-0.640625 -0.09375 -1.171875 0.078125q-0.171875 0.046875 -0.328125 0.078125q-0.140625 0.046875 -0.375 0.03125q-0.21875 -0.03125 -0.578125 -0.21875q-0.359375 -0.171875 -0.671875 -0.53125q-0.3125 -0.375 -0.453125 -0.875q-0.140625 -0.5625 -0.25 -1.53125q-0.09375 -0.984375 -0.15625 -2.203125q-0.0625 -1.21875 -0.078125 -2.515625q-0.015625 -1.296875 -0.03125 -2.53125q0 -1.234375 0 -2.234375q0.015625 -1.015625 0.015625 -1.65625q0 -0.65625 -0.015625 -0.765625q0.28125 -0.046875 0.828125 -0.015625q0.546875 0.015625 1.140625 0.171875q0.609375 0.15625 1.0625 0.53125q0.46875 0.359375 0.578125 1.0q0.09375 0.609375 0.15625 1.1875q0.078125 0.5625 0.484375 0.828125q0.15625 0.09375 0.421875 0.140625q0.265625 0.03125 0.5625 0.0625q1.359375 0.015625 2.453125 0.703125q1.09375 0.671875 1.78125 1.828125q0.6875 1.140625 0.84375 2.578125zm-4.921875 3.125q0.65625 -0.015625 1.046875 -0.375q0.40625 -0.359375 0.59375 -0.921875q0.1875 -0.5625 0.1875 -1.140625q0 -0.59375 -0.140625 -1.203125q-0.125 -0.609375 -0.484375 -1.03125q-0.359375 -0.421875 -1.03125 -0.421875q-0.546875 0 -0.9375 0.390625q-0.390625 0.375 -0.59375 0.953125q-0.203125 0.5625 -0.234375 1.109375q-0.015625 0.515625 0.15625 1.140625q0.171875 0.625 0.53125 1.0625q0.359375 0.4375 0.90625 0.4375zm16.75299 -0.8125q0.015625 0.40625 0.0625 1.015625q0.046875 0.59375 0.234375 1.15625q0.1875 0.546875 0.59375 0.890625q-0.46875 0.3125 -0.953125 0.453125q-0.484375 0.140625 -0.953125 0.0625q-0.125 -0.03125 -0.28125 -0.078125q-0.140625 -0.046875 -0.40625 -0.125q-0.421875 -0.125 -1.0 -0.046875q-0.578125 0.0625 -1.203125 0.1875q-0.625 0.125 -1.234375 0.125q-0.96875 0 -1.9375 -0.34375q-0.96875 -0.34375 -1.75 -1.078125q-0.78125 -0.734375 -1.203125 -1.84375q-0.40625 -1.125 -0.234375 -2.6875q0.109375 -1.078125 0.609375 -1.984375q0.515625 -0.90625 1.25 -1.5625q0.734375 -0.671875 1.5625 -1.03125q0.828125 -0.375 1.625 -0.34375q0.59375 0.015625 0.921875 0.03125q0.328125 0.015625 0.84375 0.09375q0.3125 0.03125 0.796875 -0.09375q0.484375 -0.125 0.984375 -0.28125q0.5 -0.171875 0.84375 -0.171875q0.546875 -0.015625 0.765625 0.03125q0.234375 0.046875 0.375 0.09375q-0.109375 0.328125 -0.1875 1.0q-0.078125 0.671875 -0.109375 1.53125q-0.015625 0.84375 -0.046875 1.765625q-0.015625 0.90625 0 1.75q0.015625 0.828125 0.03125 1.484375zm-7.015625 -1.71875q0.03125 0.9375 0.34375 1.453125q0.3125 0.5 0.75 0.71875q0.4375 0.203125 0.84375 0.203125q0.828125 0.015625 1.21875 -0.640625q0.390625 -0.65625 0.375 -1.8125q0 -0.3125 -0.078125 -0.734375q-0.0625 -0.4375 -0.21875 -0.84375q-0.15625 -0.40625 -0.4375 -0.6875q-0.265625 -0.28125 -0.6875 -0.28125q-0.859375 0 -1.5 0.640625q-0.640625 0.625 -0.609375 1.984375zm19.733124 -0.59375q0.171875 1.5625 -0.25 2.6875q-0.40625 1.109375 -1.203125 1.84375q-0.78125 0.734375 -1.765625 1.078125q-0.96875 0.34375 -1.953125 0.34375q-0.9375 0 -1.921875 -0.34375q-0.984375 -0.34375 -1.765625 -1.078125q-0.765625 -0.734375 -1.1875 -1.84375q-0.421875 -1.125 -0.25 -2.6875q0.171875 -1.4375 0.859375 -2.515625q0.703125 -1.09375 1.796875 -1.71875q1.09375 -0.625 2.40625 -0.6875q0.0625 -0.03125 0.140625 -0.125q0.09375 -0.109375 0.3125 -0.1875q0.21875 -0.078125 0.65625 -0.046875q1.0625 0.296875 1.9375 1.03125q0.890625 0.71875 1.46875 1.8125q0.59375 1.078125 0.71875 2.4375zm-5.328125 2.96875q0.59375 0 1.015625 -0.28125q0.4375 -0.28125 0.6875 -0.71875q0.265625 -0.4375 0.390625 -0.921875q0.125 -0.484375 0.125 -0.875q0 -0.8125 -0.265625 -1.25q-0.265625 -0.453125 -1.1875 -0.8125q-0.265625 -0.109375 -0.359375 -0.296875q-0.09375 -0.1875 -0.28125 -0.203125q-0.609375 -0.078125 -1.046875 0.34375q-0.421875 0.40625 -0.65625 1.09375q-0.21875 0.6875 -0.21875 1.484375q0 0.8125 0.3125 1.359375q0.3125 0.53125 0.71875 0.8125q0.421875 0.265625 0.765625 0.265625zm24.48413 0.34375q0.03125 0.828125 0.265625 1.15625q0.234375 0.328125 0.234375 0.328125q0 0 -0.328125 0.234375q-0.328125 0.234375 -0.875 0.484375q-0.546875 0.234375 -1.203125 0.234375q-1.0 0 -1.296875 -0.546875q-0.296875 -0.546875 -0.3125 -1.40625q0 -0.140625 0.015625 -0.640625q0.015625 -0.515625 0.015625 -1.15625q0.015625 -0.640625 0 -1.1875q-0.015625 -0.546875 -0.078125 -0.78125q-0.203125 -0.75 -0.796875 -0.65625q-0.46875 0.0625 -0.875 0.546875q-0.40625 0.46875 -0.671875 1.125q-0.265625 0.640625 -0.265625 1.21875q0 0.3125 -0.03125 0.609375q-0.015625 0.28125 -0.03125 0.515625q-0.03125 0.171875 0.03125 0.421875q0.078125 0.234375 0.265625 0.375q-0.140625 0.234375 -0.53125 0.59375q-0.375 0.34375 -0.8125 0.640625q-0.4375 0.28125 -0.75 0.328125q-0.296875 0.015625 -0.703125 -0.1875q-0.40625 -0.203125 -0.703125 -0.609375q-0.28125 -0.421875 -0.296875 -1.0q0 -0.15625 0 -0.6875q0.015625 -0.546875 0.03125 -1.3125q0.015625 -0.765625 0.015625 -1.625q0.015625 -0.859375 0.015625 -1.65625q0 -0.796875 0 -1.375q0 -0.515625 -0.125 -0.984375q-0.125 -0.46875 -0.25 -0.78125q-0.109375 -0.3125 -0.109375 -0.3125q0.171875 -0.03125 0.578125 -0.046875q0.421875 -0.03125 0.9375 0.015625q0.53125 0.03125 1.046875 0.171875q0.515625 0.125 0.859375 0.40625q0.375 0.28125 0.75 0.34375q0.390625 0.0625 0.625 -0.0625q0.640625 -0.4375 1.3125 -0.75q0.671875 -0.3125 1.3125 -0.390625q0.3125 -0.046875 0.734375 0.03125q0.4375 0.0625 0.859375 0.28125q0.421875 0.21875 0.71875 0.640625q0.3125 0.40625 0.390625 1.046875q0.125 1.078125 0.0625 2.640625q-0.046875 1.546875 -0.03125 3.765625zm12.082733 0q0.015625 0.34375 0.109375 0.703125q0.109375 0.359375 0.515625 0.53125q-0.234375 0.3125 -0.859375 0.703125q-0.609375 0.375 -1.3125 0.5q-0.65625 0.09375 -1.09375 -0.15625q-0.4375 -0.265625 -0.65625 -0.75q-0.21875 -0.484375 -0.234375 -1.046875q0 -0.140625 0.015625 -0.609375q0.015625 -0.484375 0.015625 -1.09375q0 -0.625 -0.015625 -1.171875q0 -0.5625 -0.046875 -0.890625q-0.125 -0.609375 -0.453125 -0.6875q-0.3125 -0.09375 -0.734375 0.15625q-0.640625 0.359375 -1.0625 1.3125q-0.421875 0.9375 -0.4375 2.390625q-0.015625 0.578125 0.140625 0.828125q0.171875 0.25 0.171875 0.25q0 0 -0.1875 0.328125q-0.1875 0.3125 -0.671875 0.6875q-0.484375 0.359375 -1.421875 0.5q-0.515625 0.078125 -0.859375 -0.1875q-0.328125 -0.28125 -0.484375 -0.78125q-0.140625 -0.5 -0.15625 -1.0625l-0.0625 -10.84375q-0.015625 -0.765625 -0.171875 -1.34375q-0.140625 -0.59375 -0.140625 -0.59375q0.46875 -0.046875 1.09375 -0.03125q0.625 0.015625 1.21875 0.171875q0.609375 0.15625 1.03125 0.53125q0.4375 0.375 0.515625 1.015625q0.015625 0.125 0.046875 0.5q0.03125 0.359375 0.03125 0.71875q-0.015625 0.53125 0.140625 0.890625q0.171875 0.34375 0.453125 0.53125q0.3125 0.1875 0.796875 0.125q0.484375 -0.0625 0.859375 -0.203125q0.375 -0.140625 0.625 -0.21875q0.25 -0.078125 0.53125 -0.109375q0.3125 -0.046875 0.734375 0.03125q0.4375 0.0625 0.859375 0.28125q0.421875 0.21875 0.734375 0.640625q0.3125 0.40625 0.375 1.046875q0.140625 1.078125 0.0625 2.640625q-0.0625 1.546875 -0.015625 3.765625zm4.2042236 -8.71875q-0.625 0.015625 -1.125 -0.359375q-0.484375 -0.375 -0.75 -0.921875q-0.25 -0.546875 -0.1875 -1.0625q0.09375 -0.765625 0.6875 -1.078125q0.59375 -0.3125 1.25 -0.328125q0.9375 -0.046875 1.453125 0.484375q0.53125 0.515625 0.53125 1.1875q0 0.453125 -0.203125 0.921875q-0.1875 0.453125 -0.609375 0.78125q-0.40625 0.328125 -1.046875 0.375zm1.984375 9.203125q0.015625 0.34375 0.203125 0.578125q0.203125 0.234375 0.484375 0.4375q-0.125 0.171875 -0.328125 0.359375q-0.203125 0.1875 -0.609375 0.34375q-0.40625 0.15625 -1.140625 0.25q-0.25 0.015625 -0.625 -0.046875q-0.375 -0.0625 -0.734375 -0.375q-0.359375 -0.3125 -0.59375 -0.984375q-0.21875 -0.6875 -0.1875 -1.875q0.03125 -0.21875 0.015625 -0.8125q-0.015625 -0.59375 -0.03125 -1.40625q0 -0.828125 -0.015625 -1.703125q0 -0.875 -0.015625 -1.625q0 -0.765625 -0.015625 -1.234375q0 -0.484375 0 -0.484375q0.15625 -0.015625 0.5625 -0.046875q0.40625 -0.03125 0.890625 0.015625q0.484375 0.03125 0.9375 0.171875q0.453125 0.140625 0.78125 0.4375q0.328125 0.296875 0.390625 0.8125q0.09375 0.703125 0.0625 1.890625q-0.015625 1.1875 -0.0625 2.578125q-0.03125 1.375 0.03125 2.71875zm7.952942 -13.765625q0.046875 0.09375 0.375 0.46875q0.34375 0.359375 0.8125 0.859375q0.46875 0.484375 0.984375 1.0q0.515625 0.515625 0.9375 0.90625q0.4375 0.390625 0.671875 0.515625q-0.234375 0.40625 -0.8125 0.5625q-0.5625 0.15625 -1.25 -0.03125q-0.40625 -0.09375 -0.765625 -0.484375q-0.359375 -0.390625 -0.71875 -0.640625q-0.171875 -0.125 -0.59375 -0.171875q-0.421875 -0.046875 -0.75 0.203125q-0.296875 0.25 -0.65625 0.625q-0.359375 0.375 -0.734375 0.46875q-0.6875 0.1875 -1.265625 0.03125q-0.5625 -0.15625 -0.828125 -0.5625q0.25 -0.125 0.671875 -0.515625q0.421875 -0.40625 0.9375 -0.921875q0.515625 -0.53125 1.0 -1.03125q0.484375 -0.515625 0.8125 -0.859375q0.328125 -0.359375 0.390625 -0.421875q0.125 -0.125 0.359375 -0.15625q0.25 -0.046875 0.421875 0.15625zm3.65625 10.984375q0.4375 0.328125 0.578125 0.921875q0.15625 0.578125 -0.03125 1.265625q-0.171875 0.671875 -0.703125 1.296875q-0.515625 0.625 -1.390625 1.046875q-0.875 0.40625 -2.125 0.421875q-1.078125 0.015625 -2.078125 -0.265625q-0.984375 -0.265625 -1.796875 -0.84375q-0.8125 -0.59375 -1.328125 -1.5q-0.5 -0.921875 -0.546875 -2.1875q-0.015625 -0.265625 0 -0.53125q0.015625 -0.265625 0.03125 -0.5625q0.015625 -0.09375 0.015625 -0.15625q0 -0.078125 0.03125 -0.140625q0.171875 -1.125 0.765625 -2.0625q0.59375 -0.9375 1.453125 -1.578125q0.859375 -0.65625 1.828125 -0.96875q0.984375 -0.328125 1.9375 -0.234375q1.46875 0.15625 2.28125 0.796875q0.8125 0.625 1.0625 1.546875q0.25 0.921875 0.015625 1.984375q-0.140625 0.546875 -0.59375 1.046875q-0.453125 0.5 -1.125 0.90625q-0.671875 0.40625 -1.421875 0.625q-0.75 0.203125 -1.453125 0.171875q-0.375 -0.015625 -0.390625 0.234375q-0.015625 0.234375 0.21875 0.5q0.234375 0.265625 0.59375 0.34375q0.859375 0.1875 1.625 0.015625q0.78125 -0.1875 1.203125 -0.5q0.34375 -0.265625 0.71875 -0.703125q0.375 -0.4375 0.625 -0.890625zm-4.109375 -1.890625q0.453125 -0.046875 0.765625 -0.28125q0.3125 -0.234375 0.3125 -0.484375q0.015625 -0.375 -0.171875 -0.609375q-0.171875 -0.234375 -0.65625 -0.21875q-0.53125 0.015625 -1.015625 0.15625q-0.484375 0.125 -0.578125 0.5625q-0.046875 0.25 0.171875 0.46875q0.21875 0.203125 0.546875 0.3125q0.34375 0.109375 0.625 0.09375zm15.83252 4.1875q0 0.171875 0.0625 0.515625q0.0625 0.328125 0.15625 0.6875q0.109375 0.34375 0.21875 0.625q0.109375 0.265625 0.21875 0.328125q-0.25 0.3125 -0.828125 0.5q-0.578125 0.203125 -1.15625 0.078125q-0.453125 -0.140625 -0.8125 -0.25q-0.359375 -0.109375 -0.96875 -0.09375q-0.453125 0.015625 -0.890625 0.09375q-0.4375 0.078125 -0.875 0.171875q-0.234375 0.03125 -0.78125 0.015625q-0.546875 0 -1.203125 -0.140625q-0.640625 -0.125 -1.171875 -0.4375q-0.71875 -0.421875 -1.078125 -1.234375q-0.34375 -0.828125 -0.390625 -1.6875q0 -0.21875 -0.015625 -0.8125q-0.015625 -0.59375 -0.03125 -1.40625q0 -0.828125 -0.015625 -1.703125q0 -0.875 -0.015625 -1.625q0 -0.765625 0 -1.234375q0 -0.484375 0 -0.484375q0.171875 -0.015625 0.5625 -0.046875q0.40625 -0.03125 0.890625 0.015625q0.484375 0.03125 0.9375 0.171875q0.453125 0.140625 0.78125 0.4375q0.328125 0.296875 0.390625 0.8125q0.03125 0.40625 0.046875 0.75q0.03125 0.328125 0.03125 0.734375q0 0.390625 -0.03125 0.984375q-0.03125 0.578125 -0.0625 1.484375q-0.046875 0.71875 -0.046875 1.25q0.015625 0.515625 0.25 0.78125q0.25 0.265625 0.875 0.21875q0.40625 -0.015625 0.671875 -0.3125q0.28125 -0.3125 0.4375 -0.765625q0.171875 -0.453125 0.234375 -0.90625q0.078125 -0.46875 0.078125 -0.828125q0 -0.078125 -0.015625 -0.578125q-0.015625 -0.5 -0.03125 -1.203125q0 -0.703125 -0.015625 -1.390625q0 -0.6875 0 -1.140625q0 -0.46875 0 -0.46875q0.171875 -0.015625 0.5625 0q0.390625 0 0.875 0.078125q0.484375 0.078125 0.953125 0.265625q0.46875 0.1875 0.796875 0.515625q0.328125 0.3125 0.375 0.828125q0.109375 1.078125 0.046875 2.640625q-0.0625 1.546875 -0.015625 3.765625z" fill-rule="nonzero"/><path fill="#000000" d="m14.828125 66.78725q1.65625 -0.125 2.78125 0.5625q1.140625 0.671875 1.734375 1.875q0.609375 1.203125 0.625 2.65625q0.03125 1.34375 -0.390625 2.375q-0.421875 1.03125 -1.171875 1.75q-0.75 0.71875 -1.671875 1.09375q-0.921875 0.375 -1.890625 0.375q-0.203125 0 -0.53125 0.046875q-0.328125 0.046875 -0.53125 0.21875q-0.140625 0.125 -0.1875 0.265625q-0.046875 0.15625 -0.015625 0.359375q0.03125 0.34375 0.140625 0.484375q0.125 0.140625 0.21875 0.296875q-0.203125 0.234375 -0.578125 0.484375q-0.359375 0.265625 -0.90625 0.40625q-0.53125 0.15625 -1.25 0.046875q-0.453125 -0.078125 -0.796875 -0.578125q-0.328125 -0.5 -0.34375 -1.359375l-0.0625 -8.671875q0 -1.046875 -0.125 -1.703125q-0.125 -0.671875 -0.125 -0.671875q0.234375 -0.078125 0.765625 -0.125q0.53125 -0.0625 1.109375 0.078125q0.234375 0.046875 0.578125 0.125q0.34375 0.0625 0.75 0q0.546875 -0.0625 1.078125 -0.21875q0.546875 -0.15625 0.796875 -0.171875zm0.34375 7.765625q0.59375 0 1.109375 -0.625q0.53125 -0.625 0.53125 -1.765625q0 -0.765625 -0.25 -1.296875q-0.25 -0.53125 -0.625 -0.796875q-0.375 -0.28125 -0.71875 -0.28125q-0.359375 0 -0.734375 0.0625q-0.359375 0.046875 -0.625 0.421875q-0.265625 0.375 -0.34375 1.328125q-0.09375 1.234375 0.15625 1.875q0.25 0.625 0.671875 0.859375q0.4375 0.21875 0.828125 0.21875zm16.388 0.640625q0.015625 0.34375 0.109375 0.703125q0.109375 0.359375 0.515625 0.53125q-0.234375 0.3125 -0.859375 0.703125q-0.609375 0.375 -1.3125 0.5q-0.65625 0.09375 -1.09375 -0.15625q-0.4375 -0.265625 -0.65625 -0.75q-0.21875 -0.484375 -0.234375 -1.046875q0 -0.140625 0.015625 -0.609375q0.015625 -0.484375 0.015625 -1.09375q0 -0.625 -0.015625 -1.171875q0 -0.5625 -0.046875 -0.890625q-0.125 -0.609375 -0.453125 -0.6875q-0.3125 -0.09375 -0.734375 0.15625q-0.640625 0.359375 -1.0625 1.3125q-0.421875 0.9375 -0.4375 2.390625q-0.015625 0.578125 0.140625 0.828125q0.171875 0.25 0.171875 0.25q0 0 -0.1875 0.328125q-0.1875 0.3125 -0.671875 0.6875q-0.484375 0.359375 -1.421875 0.5q-0.515625 0.078125 -0.859375 -0.1875q-0.328125 -0.28125 -0.484375 -0.78125q-0.140625 -0.5 -0.15625 -1.0625l-0.0625 -10.84375q-0.015625 -0.765625 -0.171875 -1.34375q-0.140625 -0.59375 -0.140625 -0.59375q0.46875 -0.046875 1.09375 -0.03125q0.625 0.015625 1.21875 0.171875q0.609375 0.15625 1.03125 0.53125q0.4375 0.375 0.515625 1.015625q0.015625 0.125 0.046875 0.5q0.03125 0.359375 0.03125 0.71875q-0.015625 0.53125 0.140625 0.890625q0.171875 0.34375 0.453125 0.53125q0.3125 0.1875 0.796875 0.125q0.484375 -0.0625 0.859375 -0.203125q0.375 -0.140625 0.625 -0.21875q0.25 -0.078125 0.53125 -0.109375q0.3125 -0.046875 0.734375 0.03125q0.4375 0.0625 0.859375 0.28125q0.421875 0.21875 0.734375 0.640625q0.3125 0.40625 0.375 1.046875q0.140625 1.078125 0.0625 2.640625q-0.0625 1.546875 -0.015625 3.765625zm11.377762 -13.703125q0.46875 0.25 0.96875 0.609375q0.515625 0.359375 0.984375 0.75q0.46875 0.375 0.78125 0.703125q0.328125 0.328125 0.375 0.546875q0.15625 0.546875 -0.078125 0.9375q-0.234375 0.375 -0.71875 0.203125q-0.21875 -0.078125 -0.859375 -0.3125q-0.640625 -0.234375 -1.421875 -0.5625q-0.765625 -0.34375 -1.484375 -0.734375q-0.71875 -0.390625 -1.109375 -0.796875q-0.3125 -0.34375 -0.21875 -0.609375q0.09375 -0.265625 0.421875 -0.46875q0.34375 -0.21875 0.796875 -0.328125q0.453125 -0.109375 0.875 -0.09375q0.4375 0 0.6875 0.15625zm-3.953125 0.421875q0.046875 0.09375 0.375 0.46875q0.34375 0.359375 0.8125 0.859375q0.484375 0.484375 0.984375 1.0q0.515625 0.515625 0.953125 0.90625q0.4375 0.390625 0.65625 0.515625q-0.234375 0.40625 -0.796875 0.5625q-0.5625 0.15625 -1.265625 -0.03125q-0.390625 -0.09375 -0.765625 -0.5q-0.359375 -0.40625 -0.703125 -0.640625q-0.15625 -0.109375 -0.59375 -0.15625q-0.421875 -0.046875 -0.75 0.1875q-0.3125 0.25 -0.671875 0.640625q-0.359375 0.375 -0.734375 0.46875q-0.6875 0.1875 -1.25 0.03125q-0.5625 -0.15625 -0.828125 -0.5625q0.25 -0.125 0.671875 -0.515625q0.4375 -0.40625 0.9375 -0.921875q0.515625 -0.53125 0.984375 -1.03125q0.484375 -0.515625 0.8125 -0.859375q0.328125 -0.359375 0.390625 -0.421875q0.140625 -0.140625 0.375 -0.171875q0.25 -0.03125 0.40625 0.171875zm4.625 12.296875q0.015625 0.40625 0.0625 1.0q0.046875 0.59375 0.234375 1.15625q0.1875 0.546875 0.59375 0.890625q-0.96875 0.6875 -1.90625 0.515625q-0.125 -0.03125 -0.265625 -0.078125q-0.140625 -0.03125 -0.40625 -0.109375q-0.4375 -0.140625 -1.015625 -0.0625q-0.578125 0.0625 -1.203125 0.1875q-0.625 0.125 -1.234375 0.125q-0.96875 0 -1.9375 -0.34375q-0.96875 -0.34375 -1.75 -1.0625q-0.78125 -0.71875 -1.203125 -1.84375q-0.40625 -1.140625 -0.234375 -2.703125q0.109375 -1.078125 0.609375 -1.984375q0.515625 -0.90625 1.25 -1.5625q0.75 -0.671875 1.578125 -1.03125q0.84375 -0.375 1.625 -0.34375q0.59375 0.015625 0.90625 0.046875q0.328125 0.015625 0.84375 0.078125q0.328125 0.03125 0.796875 -0.09375q0.484375 -0.125 0.984375 -0.28125q0.5 -0.171875 0.84375 -0.171875q0.546875 -0.015625 0.765625 0.03125q0.234375 0.046875 0.390625 0.09375q-0.109375 0.34375 -0.1875 1.015625q-0.0625 0.65625 -0.109375 1.515625q-0.03125 0.84375 -0.046875 1.765625q0 0.90625 0 1.75q0 0.84375 0.015625 1.5zm-7.015625 -1.734375q0.03125 0.9375 0.34375 1.453125q0.3125 0.5 0.75 0.71875q0.453125 0.203125 0.859375 0.21875q0.828125 0 1.21875 -0.640625q0.390625 -0.65625 0.359375 -1.8125q0 -0.3125 -0.078125 -0.734375q-0.0625 -0.4375 -0.21875 -0.84375q-0.15625 -0.421875 -0.4375 -0.703125q-0.265625 -0.28125 -0.6875 -0.28125q-0.859375 0.015625 -1.5 0.65625q-0.640625 0.625 -0.609375 1.96875zm21.165695 2.71875q0.03125 0.828125 0.265625 1.15625q0.234375 0.328125 0.234375 0.328125q0 0 -0.328125 0.234375q-0.328125 0.234375 -0.875 0.484375q-0.546875 0.234375 -1.203125 0.234375q-1.0 0 -1.296875 -0.546875q-0.296875 -0.546875 -0.3125 -1.40625q0 -0.140625 0.015625 -0.640625q0.015625 -0.515625 0.015625 -1.15625q0.015625 -0.640625 0 -1.1875q-0.015625 -0.546875 -0.078125 -0.78125q-0.203125 -0.75 -0.796875 -0.65625q-0.46875 0.0625 -0.875 0.546875q-0.40625 0.46875 -0.671875 1.125q-0.265625 0.640625 -0.265625 1.21875q0 0.3125 -0.03125 0.609375q-0.015625 0.28125 -0.03125 0.515625q-0.03125 0.171875 0.03125 0.421875q0.078125 0.234375 0.265625 0.375q-0.140625 0.234375 -0.53125 0.59375q-0.375 0.34375 -0.8125 0.640625q-0.4375 0.28125 -0.75 0.328125q-0.296875 0.015625 -0.703125 -0.1875q-0.40625 -0.203125 -0.703125 -0.609375q-0.28125 -0.421875 -0.296875 -1.0q0 -0.15625 0 -0.6875q0.015625 -0.546875 0.03125 -1.3125q0.015625 -0.765625 0.015625 -1.625q0.015625 -0.859375 0.015625 -1.65625q0 -0.796875 0 -1.375q0 -0.515625 -0.125 -0.984375q-0.125 -0.46875 -0.25 -0.78125q-0.109375 -0.3125 -0.109375 -0.3125q0.171875 -0.03125 0.578125 -0.046875q0.421875 -0.03125 0.9375 0.015625q0.53125 0.03125 1.046875 0.171875q0.515625 0.125 0.859375 0.40625q0.375 0.28125 0.75 0.34375q0.390625 0.0625 0.625 -0.0625q0.640625 -0.4375 1.3125 -0.75q0.671875 -0.3125 1.3125 -0.390625q0.3125 -0.046875 0.734375 0.03125q0.4375 0.0625 0.859375 0.28125q0.421875 0.21875 0.71875 0.640625q0.3125 0.40625 0.390625 1.046875q0.125 1.078125 0.0625 2.640625q-0.046875 1.546875 -0.03125 3.765625zm19.763977 0.0625q0.3125 0.375 0.9375 0.515625q-0.09375 0.390625 -0.234375 0.84375q-0.140625 0.453125 -0.4375 0.796875q-0.28125 0.328125 -0.828125 0.421875q-0.234375 0.046875 -0.609375 -0.046875q-0.375 -0.09375 -0.890625 -0.21875q-0.34375 -0.09375 -0.875 -0.046875q-0.515625 0.046875 -0.96875 0.125q-0.453125 0.078125 -0.609375 0.109375q-0.203125 0.0625 -0.40625 0.0625q-0.203125 0.015625 -0.40625 0.015625q-0.984375 0 -1.921875 -0.34375q-0.9375 -0.34375 -1.6875 -1.078125q-0.75 -0.734375 -1.140625 -1.84375q-0.375 -1.125 -0.203125 -2.6875q0.109375 -1.078125 0.578125 -2.015625q0.484375 -0.9375 1.1875 -1.625q0.71875 -0.703125 1.53125 -1.078125q0.8125 -0.390625 1.59375 -0.390625q0.171875 0 0.328125 0q0.15625 0 0.3125 -0.03125q0.328125 -0.046875 0.640625 -0.359375q0.328125 -0.328125 0.4375 -0.796875q0.046875 -0.25 0.0625 -0.609375q0.03125 -0.359375 0.03125 -0.421875q0.046875 -0.4375 0.3125 -0.734375q0.265625 -0.3125 0.609375 -0.5q0.5 -0.265625 1.078125 -0.375q0.578125 -0.109375 1.0625 -0.109375q0.5 -0.015625 0.734375 0.03125q-0.015625 0.109375 -0.078125 0.8125q-0.046875 0.6875 -0.125 1.734375q-0.078125 1.03125 -0.15625 2.28125q-0.0625 1.234375 -0.109375 2.484375q-0.046875 1.25 -0.046875 2.34375q0 1.078125 0.0625 1.8125q0.078125 0.71875 0.234375 0.921875zm-6.9375 -2.765625q-0.0625 0.734375 0.171875 1.21875q0.234375 0.46875 0.59375 0.703125q0.375 0.234375 0.71875 0.25q0.671875 0.015625 1.03125 -0.34375q0.375 -0.375 0.5 -0.96875q0.140625 -0.609375 0.140625 -1.296875q0 -1.046875 -0.421875 -1.515625q-0.40625 -0.46875 -1.28125 -0.40625q-0.5625 0.03125 -0.96875 0.53125q-0.390625 0.5 -0.484375 1.828125zm11.445343 -6.015625q-0.625 0.015625 -1.125 -0.359375q-0.484375 -0.375 -0.75 -0.921875q-0.25 -0.546875 -0.1875 -1.0625q0.09375 -0.765625 0.6875 -1.078125q0.59375 -0.3125 1.25 -0.328125q0.9375 -0.046875 1.453125 0.484375q0.53125 0.515625 0.53125 1.1875q0 0.453125 -0.203125 0.921875q-0.1875 0.453125 -0.609375 0.78125q-0.40625 0.328125 -1.046875 0.375zm1.984375 9.203125q0.015625 0.34375 0.203125 0.578125q0.203125 0.234375 0.484375 0.4375q-0.125 0.171875 -0.328125 0.359375q-0.203125 0.1875 -0.609375 0.34375q-0.40625 0.15625 -1.140625 0.25q-0.25 0.015625 -0.625 -0.046875q-0.375 -0.0625 -0.734375 -0.375q-0.359375 -0.3125 -0.59375 -0.984375q-0.21875 -0.6875 -0.1875 -1.875q0.03125 -0.21875 0.015625 -0.8125q-0.015625 -0.59375 -0.03125 -1.40625q0 -0.828125 -0.015625 -1.703125q0 -0.875 -0.015625 -1.625q0 -0.765625 -0.015625 -1.234375q0 -0.484375 0 -0.484375q0.15625 -0.015625 0.5625 -0.046875q0.40625 -0.03125 0.890625 0.015625q0.484375 0.03125 0.9375 0.171875q0.453125 0.140625 0.78125 0.4375q0.328125 0.296875 0.390625 0.8125q0.09375 0.703125 0.0625 1.890625q-0.015625 1.1875 -0.0625 2.578125q-0.03125 1.375 0.03125 2.71875zm7.8904724 -13.765625q0.078125 0.09375 0.40625 0.46875q0.328125 0.359375 0.796875 0.859375q0.484375 0.484375 0.984375 1.0q0.515625 0.515625 0.9375 0.90625q0.4375 0.390625 0.6875 0.515625q-0.25 0.40625 -0.828125 0.5625q-0.5625 0.15625 -1.265625 -0.03125q-0.375 -0.09375 -0.75 -0.484375q-0.375 -0.390625 -0.703125 -0.640625q-0.171875 -0.125 -0.609375 -0.171875q-0.421875 -0.046875 -0.734375 0.203125q-0.3125 0.25 -0.6875 0.625q-0.359375 0.375 -0.734375 0.46875q-0.6875 0.1875 -1.25 0.03125q-0.5625 -0.15625 -0.8125 -0.5625q0.234375 -0.125 0.65625 -0.515625q0.4375 -0.40625 0.953125 -0.921875q0.515625 -0.53125 0.984375 -1.03125q0.484375 -0.515625 0.796875 -0.859375q0.328125 -0.359375 0.390625 -0.421875q0.15625 -0.140625 0.390625 -0.171875q0.25 -0.03125 0.390625 0.171875zm3.703125 10.984375q0.453125 0.328125 0.59375 0.921875q0.140625 0.578125 -0.03125 1.265625q-0.171875 0.671875 -0.703125 1.296875q-0.515625 0.625 -1.40625 1.046875q-0.890625 0.40625 -2.140625 0.421875q-1.046875 0.015625 -2.046875 -0.265625q-0.984375 -0.265625 -1.796875 -0.84375q-0.8125 -0.59375 -1.328125 -1.5q-0.5 -0.921875 -0.546875 -2.1875q-0.015625 -0.265625 0 -0.53125q0.015625 -0.28125 0.03125 -0.59375q0.015625 -0.0625 0.015625 -0.125q0 -0.078125 0.03125 -0.140625q0.171875 -1.125 0.765625 -2.0625q0.59375 -0.9375 1.453125 -1.578125q0.859375 -0.65625 1.828125 -0.96875q0.984375 -0.328125 1.9375 -0.234375q1.46875 0.15625 2.28125 0.796875q0.8125 0.625 1.0625 1.546875q0.25 0.921875 0.015625 1.984375q-0.140625 0.53125 -0.59375 1.046875q-0.453125 0.5 -1.125 0.90625q-0.671875 0.40625 -1.4375 0.625q-0.75 0.203125 -1.453125 0.171875q-0.359375 -0.015625 -0.375 0.234375q-0.015625 0.234375 0.203125 0.5q0.21875 0.265625 0.59375 0.34375q0.875 0.1875 1.640625 0.015625q0.78125 -0.1875 1.203125 -0.5q0.34375 -0.265625 0.703125 -0.703125q0.375 -0.4375 0.625 -0.890625zm-4.09375 -1.890625q0.4375 -0.046875 0.75 -0.28125q0.328125 -0.234375 0.328125 -0.484375q0.015625 -0.375 -0.1875 -0.609375q-0.1875 -0.234375 -0.640625 -0.21875q-0.53125 0.015625 -1.015625 0.15625q-0.484375 0.125 -0.578125 0.5625q-0.046875 0.25 0.171875 0.46875q0.21875 0.203125 0.546875 0.3125q0.34375 0.109375 0.625 0.09375zm1.359375 9.1875q0 0.71875 -0.4375 1.25q-0.4375 0.546875 -1.3125 0.5625q-0.40625 0 -0.84375 -0.1875q-0.421875 -0.1875 -0.703125 -0.59375q-0.28125 -0.390625 -0.265625 -1.03125q0.015625 -0.5 0.28125 -0.90625q0.265625 -0.40625 0.65625 -0.671875q0.40625 -0.25 0.84375 -0.25q0.484375 -0.015625 0.890625 0.25q0.40625 0.265625 0.640625 0.671875q0.25 0.421875 0.25 0.90625zm15.051254 -5.0q0.03125 0.828125 0.265625 1.15625q0.234375 0.328125 0.234375 0.328125q0 0 -0.328125 0.234375q-0.328125 0.234375 -0.875 0.484375q-0.546875 0.234375 -1.203125 0.234375q-1.0 0 -1.296875 -0.546875q-0.296875 -0.546875 -0.3125 -1.40625q0 -0.140625 0.015625 -0.640625q0.015625 -0.515625 0.015625 -1.15625q0.015625 -0.640625 0 -1.1875q-0.015625 -0.546875 -0.078125 -0.78125q-0.203125 -0.75 -0.796875 -0.65625q-0.46875 0.0625 -0.875 0.546875q-0.40625 0.46875 -0.671875 1.125q-0.265625 0.640625 -0.265625 1.21875q0 0.3125 -0.03125 0.609375q-0.015625 0.28125 -0.03125 0.515625q-0.03125 0.171875 0.03125 0.421875q0.078125 0.234375 0.265625 0.375q-0.140625 0.234375 -0.53125 0.59375q-0.375 0.34375 -0.8125 0.640625q-0.4375 0.28125 -0.75 0.328125q-0.296875 0.015625 -0.703125 -0.1875q-0.40625 -0.203125 -0.703125 -0.609375q-0.28125 -0.421875 -0.296875 -1.0q0 -0.15625 0 -0.6875q0.015625 -0.546875 0.03125 -1.3125q0.015625 -0.765625 0.015625 -1.625q0.015625 -0.859375 0.015625 -1.65625q0 -0.796875 0 -1.375q0 -0.515625 -0.125 -0.984375q-0.125 -0.46875 -0.25 -0.78125q-0.109375 -0.3125 -0.109375 -0.3125q0.171875 -0.03125 0.578125 -0.046875q0.421875 -0.03125 0.9375 0.015625q0.53125 0.03125 1.046875 0.171875q0.515625 0.125 0.859375 0.40625q0.375 0.28125 0.75 0.34375q0.390625 0.0625 0.625 -0.0625q0.640625 -0.4375 1.3125 -0.75q0.671875 -0.3125 1.3125 -0.390625q0.3125 -0.046875 0.734375 0.03125q0.4375 0.0625 0.859375 0.28125q0.421875 0.21875 0.71875 0.640625q0.3125 0.40625 0.390625 1.046875q0.125 1.078125 0.0625 2.640625q-0.046875 1.546875 -0.03125 3.765625zm17.373352 -7.984375q0.1875 0.1875 0.28125 0.6875q0.109375 0.5 0.0625 1.09375q-0.046875 0.578125 -0.28125 1.0625q-0.234375 0.46875 -0.6875 0.625q-0.734375 0.265625 -1.078125 0.9375q-0.328125 0.671875 -0.390625 1.703125l0 1.578125q0.046875 0.296875 0.25 0.484375q0.21875 0.1875 0.4375 0.265625q0.21875 0.078125 0.21875 0.078125q0 0 -0.078125 0.265625q-0.0625 0.25 -0.234375 0.609375q-0.15625 0.359375 -0.484375 0.6875q-0.3125 0.3125 -0.8125 0.453125q-0.265625 0.046875 -0.703125 0.015625q-0.4375 -0.015625 -0.890625 -0.171875q-0.4375 -0.140625 -0.734375 -0.40625q-0.171875 -0.15625 -0.28125 -0.3125q-0.109375 -0.171875 -0.15625 -0.5q-0.046875 -0.34375 -0.046875 -0.96875l0 -1.984375q-0.015625 -1.09375 -0.46875 -1.796875q-0.453125 -0.71875 -1.171875 -1.25q-0.34375 -0.234375 -0.484375 -0.78125q-0.140625 -0.5625 -0.171875 -1.171875q-0.03125 -0.625 -0.015625 -1.046875q0.09375 0.015625 0.5 0.078125q0.40625 0.046875 0.703125 0.046875q0.609375 -0.015625 0.828125 -0.453125q0.21875 -0.453125 0.21875 -1.125l-0.015625 -1.671875q0.171875 -0.015625 0.5625 -0.03125q0.40625 -0.03125 0.890625 0q0.484375 0.03125 0.9375 0.171875q0.46875 0.140625 0.796875 0.453125q0.328125 0.296875 0.375 0.796875q0 0.046875 0 0.140625q0.015625 0.078125 0.015625 0.1875l0.015625 0q0 0.25 0.0625 0.59375q0.078125 0.328125 0.203125 0.546875q0.140625 0.1875 0.40625 0.28125q0.28125 0.078125 0.546875 0.09375q0.28125 0 0.40625 -0.03125q0.203125 -0.0625 0.296875 -0.109375q0.09375 -0.046875 0.171875 -0.125zm5.025879 -4.734375q0.25 -0.140625 0.671875 -0.15625q0.4375 -0.015625 0.890625 0.109375q0.453125 0.109375 0.796875 0.3125q0.34375 0.203125 0.4375 0.484375q0.09375 0.265625 -0.21875 0.59375q-0.40625 0.40625 -1.125 0.796875q-0.703125 0.390625 -1.5 0.734375q-0.78125 0.328125 -1.40625 0.5625q-0.625 0.234375 -0.859375 0.3125q-0.46875 0.171875 -0.71875 -0.203125q-0.234375 -0.390625 -0.0625 -0.9375q0.046875 -0.21875 0.359375 -0.546875q0.328125 -0.328125 0.78125 -0.703125q0.453125 -0.390625 0.96875 -0.734375q0.53125 -0.359375 0.984375 -0.625zm1.59375 13.203125q0.03125 0.34375 0.203125 0.578125q0.1875 0.234375 0.5 0.4375q-0.140625 0.171875 -0.34375 0.359375q-0.203125 0.1875 -0.609375 0.34375q-0.390625 0.15625 -1.140625 0.25q-0.265625 0.03125 -0.640625 -0.03125q-0.375 -0.0625 -0.734375 -0.375q-0.34375 -0.328125 -0.578125 -1.0q-0.21875 -0.6875 -0.171875 -1.875q0.015625 -0.21875 0 -0.8125q0 -0.59375 -0.015625 -1.40625q0 -0.828125 -0.015625 -1.703125q-0.015625 -0.875 -0.03125 -1.625q0 -0.765625 -0.015625 -1.234375q0 -0.484375 0 -0.484375q0.171875 -0.015625 0.5625 -0.03125q0.40625 -0.015625 0.890625 0.015625q0.484375 0.015625 0.9375 0.15625q0.46875 0.140625 0.78125 0.4375q0.328125 0.296875 0.390625 0.8125q0.078125 0.703125 0.046875 1.890625q-0.015625 1.1875 -0.03125 2.578125q-0.015625 1.375 0.015625 2.71875zm11.446884 -6.171875q-0.078125 0.390625 -0.34375 0.734375q-0.25 0.328125 -0.609375 0.546875q-0.34375 0.21875 -0.65625 0.234375q-0.3125 0.015625 -0.515625 -0.21875q0.34375 -0.25 0.171875 -0.46875q-0.171875 -0.234375 -0.59375 -0.359375q-0.40625 -0.125 -0.796875 -0.078125q-0.96875 0.15625 -1.4375 0.84375q-0.46875 0.671875 -0.59375 1.546875q-0.09375 0.75 0.15625 1.34375q0.25 0.578125 0.703125 0.921875q0.46875 0.34375 1.0 0.359375q1.21875 0.03125 2.015625 -0.34375q0.8125 -0.375 1.265625 -0.859375q0.453125 -0.5 0.625 -0.828125q0.4375 0.328125 0.515625 0.921875q0.078125 0.59375 -0.1875 1.28125q-0.25 0.6875 -0.8125 1.328125q-0.5625 0.640625 -1.375 1.046875q-0.796875 0.390625 -1.8125 0.390625q-0.546875 0 -1.296875 -0.140625q-0.75 -0.125 -1.53125 -0.46875q-0.765625 -0.359375 -1.40625 -1.03125q-0.640625 -0.671875 -0.984375 -1.734375q-0.34375 -1.0625 -0.21875 -2.609375q0.09375 -1.203125 0.640625 -2.125q0.5625 -0.921875 1.359375 -1.5625q0.796875 -0.640625 1.6875 -0.984375q0.890625 -0.359375 1.6875 -0.375q0.796875 -0.015625 1.453125 0.25q0.65625 0.25 1.09375 0.671875q0.453125 0.421875 0.65625 0.890625q0.21875 0.46875 0.140625 0.875zm12.145508 5.6875q0.015625 0.34375 0.109375 0.703125q0.109375 0.359375 0.515625 0.53125q-0.234375 0.3125 -0.859375 0.703125q-0.609375 0.375 -1.3125 0.5q-0.65625 0.09375 -1.09375 -0.15625q-0.4375 -0.265625 -0.65625 -0.75q-0.21875 -0.484375 -0.234375 -1.046875q0 -0.140625 0.015625 -0.609375q0.015625 -0.484375 0.015625 -1.09375q0 -0.625 -0.015625 -1.171875q0 -0.5625 -0.046875 -0.890625q-0.125 -0.609375 -0.453125 -0.6875q-0.3125 -0.09375 -0.734375 0.15625q-0.640625 0.359375 -1.0625 1.3125q-0.421875 0.9375 -0.4375 2.390625q-0.015625 0.578125 0.140625 0.828125q0.171875 0.25 0.171875 0.25q0 0 -0.1875 0.328125q-0.1875 0.3125 -0.671875 0.6875q-0.484375 0.359375 -1.421875 0.5q-0.515625 0.078125 -0.859375 -0.1875q-0.328125 -0.28125 -0.484375 -0.78125q-0.140625 -0.5 -0.15625 -1.0625l-0.0625 -10.84375q-0.015625 -0.765625 -0.171875 -1.34375q-0.140625 -0.59375 -0.140625 -0.59375q0.46875 -0.046875 1.09375 -0.03125q0.625 0.015625 1.21875 0.171875q0.609375 0.15625 1.03125 0.53125q0.4375 0.375 0.515625 1.015625q0.015625 0.125 0.046875 0.5q0.03125 0.359375 0.03125 0.71875q-0.015625 0.53125 0.140625 0.890625q0.171875 0.34375 0.453125 0.53125q0.3125 0.1875 0.796875 0.125q0.484375 -0.0625 0.859375 -0.203125q0.375 -0.140625 0.625 -0.21875q0.25 -0.078125 0.53125 -0.109375q0.3125 -0.046875 0.734375 0.03125q0.4375 0.0625 0.859375 0.28125q0.421875 0.21875 0.734375 0.640625q0.3125 0.40625 0.375 1.046875q0.140625 1.078125 0.0625 2.640625q-0.0625 1.546875 -0.015625 3.765625zm18.338608 -5.6875q-0.078125 0.390625 -0.34375 0.734375q-0.25 0.328125 -0.609375 0.546875q-0.34375 0.21875 -0.65625 0.234375q-0.3125 0.015625 -0.515625 -0.21875q0.34375 -0.25 0.171875 -0.46875q-0.171875 -0.234375 -0.59375 -0.359375q-0.40625 -0.125 -0.796875 -0.078125q-0.96875 0.15625 -1.4375 0.84375q-0.46875 0.671875 -0.59375 1.546875q-0.09375 0.75 0.15625 1.34375q0.25 0.578125 0.703125 0.921875q0.46875 0.34375 1.0 0.359375q1.21875 0.03125 2.015625 -0.34375q0.8125 -0.375 1.265625 -0.859375q0.453125 -0.5 0.625 -0.828125q0.4375 0.328125 0.515625 0.921875q0.078125 0.59375 -0.1875 1.28125q-0.25 0.6875 -0.8125 1.328125q-0.5625 0.640625 -1.375 1.046875q-0.796875 0.390625 -1.8125 0.390625q-0.546875 0 -1.296875 -0.140625q-0.75 -0.125 -1.53125 -0.46875q-0.765625 -0.359375 -1.40625 -1.03125q-0.640625 -0.671875 -0.984375 -1.734375q-0.34375 -1.0625 -0.21875 -2.609375q0.09375 -1.203125 0.640625 -2.125q0.5625 -0.921875 1.359375 -1.5625q0.796875 -0.640625 1.6875 -0.984375q0.890625 -0.359375 1.6875 -0.375q0.796875 -0.015625 1.453125 0.25q0.65625 0.25 1.09375 0.671875q0.453125 0.421875 0.65625 0.890625q0.21875 0.46875 0.140625 0.875zm12.145508 5.6875q0.015625 0.34375 0.109375 0.703125q0.109375 0.359375 0.515625 0.53125q-0.234375 0.3125 -0.859375 0.703125q-0.609375 0.375 -1.3125 0.5q-0.65625 0.09375 -1.09375 -0.15625q-0.4375 -0.265625 -0.65625 -0.75q-0.21875 -0.484375 -0.234375 -1.046875q0 -0.140625 0.015625 -0.609375q0.015625 -0.484375 0.015625 -1.09375q0 -0.625 -0.015625 -1.171875q0 -0.5625 -0.046875 -0.890625q-0.125 -0.609375 -0.453125 -0.6875q-0.3125 -0.09375 -0.734375 0.15625q-0.640625 0.359375 -1.0625 1.3125q-0.421875 0.9375 -0.4375 2.390625q-0.015625 0.578125 0.140625 0.828125q0.171875 0.25 0.171875 0.25q0 0 -0.1875 0.328125q-0.1875 0.3125 -0.671875 0.6875q-0.484375 0.359375 -1.421875 0.5q-0.515625 0.078125 -0.859375 -0.1875q-0.328125 -0.28125 -0.484375 -0.78125q-0.140625 -0.5 -0.15625 -1.0625l-0.0625 -10.84375q-0.015625 -0.765625 -0.171875 -1.34375q-0.140625 -0.59375 -0.140625 -0.59375q0.46875 -0.046875 1.09375 -0.03125q0.625 0.015625 1.21875 0.171875q0.609375 0.15625 1.03125 0.53125q0.4375 0.375 0.515625 1.015625q0.015625 0.125 0.046875 0.5q0.03125 0.359375 0.03125 0.71875q-0.015625 0.53125 0.140625 0.890625q0.171875 0.34375 0.453125 0.53125q0.3125 0.1875 0.796875 0.125q0.484375 -0.0625 0.859375 -0.203125q0.375 -0.140625 0.625 -0.21875q0.25 -0.078125 0.53125 -0.109375q0.3125 -0.046875 0.734375 0.03125q0.4375 0.0625 0.859375 0.28125q0.421875 0.21875 0.734375 0.640625q0.3125 0.40625 0.375 1.046875q0.140625 1.078125 0.0625 2.640625q-0.0625 1.546875 -0.015625 3.765625zm8.752762 -13.28125q0.046875 0.09375 0.375 0.46875q0.34375 0.359375 0.8125 0.859375q0.484375 0.484375 0.984375 1.0q0.5 0.515625 0.9375 0.90625q0.453125 0.390625 0.671875 0.515625q-0.25 0.40625 -0.8125 0.5625q-0.546875 0.15625 -1.265625 -0.03125q-0.390625 -0.09375 -0.75 -0.484375q-0.359375 -0.390625 -0.71875 -0.640625q-0.15625 -0.125 -0.578125 -0.171875q-0.421875 -0.046875 -0.75 0.203125q-0.3125 0.25 -0.6875 0.625q-0.359375 0.375 -0.71875 0.46875q-0.703125 0.1875 -1.265625 0.03125q-0.546875 -0.15625 -0.8125 -0.5625q0.25 -0.125 0.671875 -0.515625q0.421875 -0.40625 0.9375 -0.921875q0.515625 -0.53125 0.984375 -1.03125q0.484375 -0.515625 0.8125 -0.859375q0.328125 -0.359375 0.375 -0.421875q0.15625 -0.125 0.390625 -0.15625q0.25 -0.046875 0.40625 0.15625zm3.296875 12.296875q0.015625 0.40625 0.0625 1.015625q0.046875 0.59375 0.234375 1.15625q0.1875 0.546875 0.59375 0.890625q-0.46875 0.3125 -0.953125 0.453125q-0.484375 0.140625 -0.953125 0.046875q-0.125 -0.015625 -0.265625 -0.0625q-0.140625 -0.046875 -0.40625 -0.125q-0.4375 -0.125 -1.015625 -0.046875q-0.578125 0.0625 -1.203125 0.171875q-0.625 0.125 -1.234375 0.125q-0.96875 0 -1.9375 -0.34375q-0.96875 -0.34375 -1.75 -1.0625q-0.78125 -0.71875 -1.203125 -1.84375q-0.40625 -1.140625 -0.234375 -2.703125q0.109375 -1.078125 0.609375 -1.984375q0.515625 -0.90625 1.25 -1.5625q0.734375 -0.671875 1.578125 -1.015625q0.84375 -0.359375 1.625 -0.359375q0.59375 0.015625 0.90625 0.046875q0.328125 0.015625 0.84375 0.09375q0.328125 0.046875 0.796875 -0.09375q0.484375 -0.140625 0.984375 -0.28125q0.5 -0.15625 0.84375 -0.1875q0.546875 -0.015625 0.765625 0.03125q0.234375 0.046875 0.390625 0.09375q-0.109375 0.34375 -0.1875 1.015625q-0.0625 0.65625 -0.109375 1.515625q-0.03125 0.84375 -0.046875 1.765625q0 0.90625 0 1.75q0 0.84375 0.015625 1.5zm-7.015625 -1.734375q0.03125 0.9375 0.34375 1.46875q0.3125 0.515625 0.75 0.71875q0.453125 0.203125 0.859375 0.203125q0.828125 0 1.21875 -0.640625q0.390625 -0.65625 0.359375 -1.8125q0 -0.3125 -0.078125 -0.734375q-0.0625 -0.4375 -0.21875 -0.84375q-0.15625 -0.421875 -0.4375 -0.6875q-0.265625 -0.28125 -0.6875 -0.28125q-0.859375 0 -1.5 0.640625q-0.640625 0.625 -0.609375 1.96875zm18.983124 2.71875q0 0.171875 0.0625 0.515625q0.0625 0.328125 0.15625 0.6875q0.109375 0.34375 0.21875 0.625q0.109375 0.265625 0.21875 0.328125q-0.25 0.3125 -0.828125 0.5q-0.578125 0.203125 -1.15625 0.078125q-0.453125 -0.140625 -0.8125 -0.25q-0.359375 -0.109375 -0.96875 -0.09375q-0.453125 0.015625 -0.890625 0.09375q-0.4375 0.078125 -0.875 0.171875q-0.234375 0.03125 -0.78125 0.015625q-0.546875 0 -1.203125 -0.140625q-0.640625 -0.125 -1.171875 -0.4375q-0.71875 -0.421875 -1.078125 -1.234375q-0.34375 -0.828125 -0.390625 -1.6875q0 -0.21875 -0.015625 -0.8125q-0.015625 -0.59375 -0.03125 -1.40625q0 -0.828125 -0.015625 -1.703125q0 -0.875 -0.015625 -1.625q0 -0.765625 0 -1.234375q0 -0.484375 0 -0.484375q0.171875 -0.015625 0.5625 -0.046875q0.40625 -0.03125 0.890625 0.015625q0.484375 0.03125 0.9375 0.171875q0.453125 0.140625 0.78125 0.4375q0.328125 0.296875 0.390625 0.8125q0.03125 0.40625 0.046875 0.75q0.03125 0.328125 0.03125 0.734375q0 0.390625 -0.03125 0.984375q-0.03125 0.578125 -0.0625 1.484375q-0.046875 0.71875 -0.046875 1.25q0.015625 0.515625 0.25 0.78125q0.25 0.265625 0.875 0.21875q0.40625 -0.015625 0.671875 -0.3125q0.28125 -0.3125 0.4375 -0.765625q0.171875 -0.453125 0.234375 -0.90625q0.078125 -0.46875 0.078125 -0.828125q0 -0.078125 -0.015625 -0.578125q-0.015625 -0.5 -0.03125 -1.203125q0 -0.703125 -0.015625 -1.390625q0 -0.6875 0 -1.140625q0 -0.46875 0 -0.46875q0.171875 -0.015625 0.5625 0q0.390625 0 0.875 0.078125q0.484375 0.078125 0.953125 0.265625q0.46875 0.1875 0.796875 0.515625q0.328125 0.3125 0.375 0.828125q0.109375 1.078125 0.046875 2.640625q-0.0625 1.546875 -0.015625 3.765625zm15.884796 -16.34375q0.265625 -0.140625 0.6875 -0.140625q0.4375 0 0.890625 0.109375q0.453125 0.109375 0.78125 0.3125q0.34375 0.1875 0.4375 0.46875q0.09375 0.28125 -0.21875 0.59375q-0.390625 0.421875 -1.109375 0.828125q-0.71875 0.390625 -1.515625 0.734375q-0.78125 0.328125 -1.40625 0.5625q-0.625 0.21875 -0.859375 0.3125q-0.46875 0.140625 -0.703125 -0.234375q-0.234375 -0.375 -0.078125 -0.921875q0.046875 -0.21875 0.359375 -0.546875q0.328125 -0.34375 0.796875 -0.703125q0.46875 -0.375 0.96875 -0.734375q0.515625 -0.375 0.96875 -0.640625zm5.234375 15.21875q0.234375 0.53125 0.640625 1.03125q0.40625 0.484375 0.703125 0.734375q-0.40625 0.890625 -1.078125 1.359375q-0.265625 0.171875 -0.5625 0.28125q-0.28125 0.09375 -0.59375 0.125q-0.328125 0.046875 -0.765625 -0.046875q-0.421875 -0.09375 -0.890625 -0.53125q-0.46875 -0.4375 -0.921875 -1.40625q-0.125 -0.328125 -0.578125 -0.453125q-0.4375 -0.125 -0.953125 -0.15625q-0.5 -0.03125 -0.796875 -0.03125q-0.3125 0 -0.78125 0.015625q-0.46875 0.015625 -0.828125 0.15625q-0.359375 0.125 -0.4375 0.46875q-0.078125 0.296875 -0.03125 0.609375q0.0625 0.3125 0.25 0.421875q-0.3125 0.28125 -0.625 0.515625q-0.3125 0.21875 -0.625 0.34375q-0.390625 0.171875 -0.828125 0.171875q-0.421875 0 -0.921875 -0.1875q-0.25 -0.09375 -0.515625 -0.328125q-0.25 -0.25 -0.34375 -0.671875q-0.09375 -0.4375 0.15625 -1.09375q0.015625 -0.046875 0.171875 -0.578125q0.171875 -0.546875 0.4375 -1.4375q0.28125 -0.890625 0.609375 -1.96875q0.328125 -1.078125 0.671875 -2.21875q0.34375 -1.15625 0.671875 -2.21875q0.328125 -1.0625 0.578125 -1.921875q0.265625 -0.859375 0.40625 -1.359375q0.15625 -0.515625 0.15625 -0.515625q0.171875 -0.09375 0.609375 -0.21875q0.453125 -0.140625 1.0 -0.171875q0.5625 -0.03125 1.109375 0.15625q0.5625 0.1875 0.859375 0.75q0.140625 0.21875 0.390625 0.859375q0.265625 0.625 0.625 1.53125q0.359375 0.890625 0.734375 1.90625q0.375 1.015625 0.75 2.015625q0.390625 1.0 0.71875 1.859375q0.328125 0.859375 0.546875 1.453125q0.21875 0.578125 0.28125 0.75zm-5.84375 -2.40625q0.484375 -0.046875 0.5625 -0.28125q0.078125 -0.25 0.078125 -0.5625q0 -0.203125 -0.0625 -0.5q-0.046875 -0.3125 -0.171875 -0.53125q-0.109375 -0.234375 -0.296875 -0.234375q-0.28125 0 -0.578125 0.359375q-0.296875 0.359375 -0.359375 0.734375q-0.03125 0.359375 0.078125 0.703125q0.125 0.328125 0.75 0.3125zm15.737289 -1.8125q-0.390625 0.515625 -1.015625 0.90625q-0.609375 0.375 -1.21875 0.6875q-0.59375 0.296875 -1.046875 0.578125q-0.453125 0.265625 -0.5 0.578125q-0.078125 0.453125 0.109375 0.671875q0.140625 0.171875 0.46875 0.265625q0.328125 0.078125 0.828125 0.125q0.71875 0.09375 1.1875 0.6875q0.46875 0.59375 0.46875 1.359375q0 0.859375 -0.609375 1.453125q-0.609375 0.59375 -1.46875 0.59375q-0.859375 0 -1.46875 -0.59375q-0.609375 -0.59375 -0.609375 -1.453125q0 -0.734375 0.4375 -1.25q0.28125 -0.375 0.265625 -0.53125q-0.078125 -0.234375 -0.859375 -0.421875q-0.53125 -0.15625 -0.953125 -0.578125q-0.40625 -0.421875 -0.390625 -1.421875q0.46875 -0.21875 0.875 -0.53125q0.40625 -0.3125 0.890625 -0.65625q0.671875 -0.515625 1.046875 -1.015625q0.375 -0.5 0.453125 -1.3125q0.03125 -0.53125 -0.25 -0.84375q-0.265625 -0.328125 -0.71875 -0.515625q-0.4375 -0.203125 -0.9375 -0.34375q-0.484375 -0.140625 -0.90625 -0.296875q-0.40625 -0.171875 -0.59375 -0.453125q-0.125 -0.203125 -0.234375 -0.671875q-0.09375 -0.484375 -0.15625 -1.015625q-0.0625 -0.546875 -0.09375 -0.921875q-0.03125 -0.390625 -0.03125 -0.390625q0 0 0.375 0.0625q0.390625 0.0625 1.0 0.171875q0.625 0.109375 1.3125 0.25q0.6875 0.140625 1.3125 0.296875q0.625 0.140625 1.03125 0.296875q1.125 0.390625 1.765625 1.140625q0.640625 0.734375 0.859375 1.671875q0.234375 0.921875 0.0625 1.828125q-0.15625 0.90625 -0.6875 1.59375z" fill-rule="nonzero"/></g></svg>