<svg version="1.1" viewBox="0.0 0.0 449.4803149606299 240.5538057742782" fill="none" stroke="none" stroke-linecap="square" stroke-miterlimit="10" xmlns:xlink="http://www.w3.org/1999/xlink" xmlns="http://www.w3.org/2000/svg"><clipPath id="p.0"><path d="m0 0l449.48032 0l0 240.5538l-449.48032 0l0 -240.5538z" clip-rule="nonzero"/></clipPath><g clip-path="url(#p.0)"><path fill="#000000" fill-opacity="0.0" d="m0 0l449.48032 0l0 240.5538l-449.48032 0z" fill-rule="evenodd"/><path fill="#000000" fill-opacity="0.0" d="m84.8189 98.85958l279.8425 0l0 42.83465l-279.8425 0z" fill-rule="evenodd"/><path fill="#000000" d="m141.82346 125.377525q0.015625 0.359375 0.09375 0.734375q0.09375 0.359375 0.234375 0.640625q-0.078125 0.078125 -0.40625 0.28125q-0.328125 0.1875 -0.796875 0.34375q-0.453125 0.15625 -0.984375 0.109375q-0.75 -0.0625 -1.25 -0.625q-0.484375 -0.578125 -0.484375 -1.46875q-0.015625 -0.1875 -0.015625 -0.390625q0 -0.21875 0 -0.546875q0.015625 -0.859375 -0.359375 -1.484375q-0.359375 -0.625 -0.984375 -0.953125q-0.609375 -0.34375 -1.34375 -0.34375q-1.0625 0 -1.828125 0.640625q-0.765625 0.625 -0.84375 1.84375q0 0.171875 0.03125 0.65625q0.03125 0.484375 0.078125 0.96875q0.0625 0.484375 0.125 0.703125q-0.21875 0.234375 -0.640625 0.484375q-0.421875 0.234375 -0.890625 0.359375q-0.46875 0.140625 -0.8125 0.078125q-0.515625 -0.09375 -1.0 -0.6875q-0.484375 -0.609375 -0.5 -1.5q0 -0.171875 -0.015625 -0.96875q-0.015625 -0.796875 -0.03125 -2.0q0 -1.203125 -0.015625 -2.578125q0 -1.390625 -0.015625 -2.734375q0 -1.359375 -0.015625 -2.46875q-0.015625 -1.125 -0.015625 -1.796875q0 -0.6875 0 -0.6875q0.21875 -0.03125 0.75 -0.015625q0.53125 0.015625 1.125 0.171875q0.671875 0.15625 1.203125 0.53125q0.546875 0.359375 0.625 1.046875q0.03125 0.328125 0.046875 0.71875q0.03125 0.390625 0.03125 0.671875q0 0.28125 0 0.28125q0 0.75 0.34375 1.40625q0.34375 0.640625 0.953125 1.015625q0.609375 0.359375 1.328125 0.34375q1.015625 -0.046875 1.578125 -0.65625q0.5625 -0.625 0.84375 -1.796875q0.0625 -0.34375 0.09375 -0.9375q0.046875 -0.609375 0.0625 -1.25q0.015625 -0.640625 0.015625 -1.078125q0 -0.453125 0 -0.453125q0.203125 -0.03125 0.6875 -0.015625q0.484375 0.015625 1.03125 0.125q0.671875 0.140625 1.28125 0.515625q0.609375 0.375 0.6875 1.109375q0.03125 0.375 0.046875 1.1875q0.03125 0.8125 0.015625 1.890625q0 1.0625 -0.03125 2.28125q-0.015625 1.203125 -0.03125 2.390625q-0.015625 1.1875 -0.015625 2.203125q0 1.015625 0.015625 1.703125zm12.585327 -4.03125q0.171875 1.625 -0.265625 2.78125q-0.421875 1.15625 -1.25 1.921875q-0.8125 0.75 -1.828125 1.109375q-1.015625 0.34375 -2.015625 0.34375q-0.984375 0 -2.0 -0.34375q-1.015625 -0.359375 -1.828125 -1.109375q-0.796875 -0.765625 -1.234375 -1.921875q-0.421875 -1.15625 -0.25 -2.78125q0.171875 -1.5 0.890625 -2.609375q0.734375 -1.125 1.859375 -1.765625q1.140625 -0.65625 2.484375 -0.734375q0.078125 -0.015625 0.15625 -0.125q0.09375 -0.109375 0.3125 -0.1875q0.234375 -0.09375 0.6875 -0.046875q1.109375 0.296875 2.015625 1.0625q0.90625 0.75 1.515625 1.875q0.609375 1.109375 0.75 2.53125zm-5.53125 3.0625q0.625 0 1.0625 -0.28125q0.4375 -0.296875 0.703125 -0.75q0.28125 -0.453125 0.40625 -0.953125q0.125 -0.5 0.125 -0.90625q0 -0.828125 -0.265625 -1.296875q-0.265625 -0.46875 -1.234375 -0.828125q-0.28125 -0.125 -0.375 -0.3125q-0.09375 -0.1875 -0.28125 -0.21875q-0.640625 -0.078125 -1.09375 0.359375q-0.4375 0.421875 -0.671875 1.140625q-0.234375 0.703125 -0.234375 1.546875q0 0.828125 0.3125 1.390625q0.328125 0.5625 0.765625 0.84375q0.4375 0.265625 0.78125 0.265625zm17.777054 -0.65625q0.03125 0.4375 0.078125 1.0625q0.046875 0.609375 0.234375 1.1875q0.1875 0.578125 0.625 0.921875q-1.015625 0.703125 -1.96875 0.53125q-0.140625 -0.046875 -0.296875 -0.09375q-0.140625 -0.03125 -0.40625 -0.109375q-0.4375 -0.125 -1.046875 -0.046875q-0.59375 0.0625 -1.25 0.171875q-0.65625 0.125 -1.28125 0.125q-1.0 0 -2.015625 -0.34375q-1.0 -0.359375 -1.8125 -1.109375q-0.8125 -0.75 -1.234375 -1.90625q-0.421875 -1.171875 -0.25 -2.796875q0.109375 -1.125 0.625 -2.0625q0.53125 -0.9375 1.296875 -1.625q0.78125 -0.6875 1.640625 -1.0625q0.859375 -0.375 1.671875 -0.359375q0.625 0.015625 0.953125 0.046875q0.328125 0.03125 0.859375 0.109375q0.359375 0.046875 0.84375 -0.09375q0.5 -0.15625 1.0 -0.3125q0.515625 -0.171875 0.890625 -0.171875q0.5625 -0.015625 0.78125 0.03125q0.234375 0.046875 0.421875 0.078125q-0.125 0.375 -0.203125 1.0625q-0.078125 0.6875 -0.125 1.5625q-0.03125 0.875 -0.046875 1.828125q0 0.9375 0 1.828125q0 0.875 0.015625 1.546875zm-7.25 -1.796875q0.046875 0.96875 0.359375 1.5q0.328125 0.53125 0.78125 0.75q0.453125 0.203125 0.875 0.234375q0.859375 0 1.25 -0.671875q0.40625 -0.671875 0.375 -1.859375q0 -0.328125 -0.078125 -0.765625q-0.0625 -0.453125 -0.234375 -0.890625q-0.15625 -0.4375 -0.4375 -0.71875q-0.28125 -0.296875 -0.71875 -0.296875q-0.890625 0.015625 -1.5625 0.671875q-0.65625 0.65625 -0.609375 2.046875zm4.359375 8.000008q0 0.734375 -0.453125 1.296875q-0.453125 0.5625 -1.375 0.578125q-0.421875 0 -0.875 -0.1875q-0.4375 -0.1875 -0.734375 -0.609375q-0.28125 -0.421875 -0.265625 -1.078125q0.03125 -0.515625 0.296875 -0.9375q0.265625 -0.421875 0.6875 -0.6875q0.421875 -0.265625 0.84375 -0.265625q0.515625 -0.015625 0.9375 0.25q0.4375 0.28125 0.6875 0.703125q0.25 0.4375 0.25 0.9375zm13.000626 -13.453133q0.203125 0.203125 0.296875 0.71875q0.109375 0.5 0.0625 1.109375q-0.046875 0.609375 -0.296875 1.109375q-0.234375 0.484375 -0.71875 0.671875q-0.75 0.265625 -1.109375 0.96875q-0.34375 0.6875 -0.390625 1.75l0 1.640625q0.03125 0.3125 0.25 0.515625q0.234375 0.1875 0.453125 0.265625q0.21875 0.078125 0.21875 0.078125q0 0 -0.078125 0.265625q-0.0625 0.265625 -0.234375 0.640625q-0.171875 0.359375 -0.5 0.703125q-0.328125 0.328125 -0.84375 0.46875q-0.28125 0.0625 -0.734375 0.03125q-0.453125 -0.03125 -0.921875 -0.1875q-0.453125 -0.15625 -0.765625 -0.421875q-0.171875 -0.15625 -0.296875 -0.328125q-0.109375 -0.171875 -0.15625 -0.515625q-0.046875 -0.359375 -0.046875 -0.984375l0 -2.078125q-0.015625 -1.125 -0.484375 -1.859375q-0.46875 -0.75 -1.21875 -1.28125q-0.34375 -0.265625 -0.5 -0.828125q-0.140625 -0.578125 -0.1875 -1.203125q-0.03125 -0.640625 -0.015625 -1.09375q0.109375 0.03125 0.53125 0.09375q0.421875 0.046875 0.734375 0.046875q0.609375 -0.015625 0.84375 -0.484375q0.234375 -0.46875 0.234375 -1.15625l-0.015625 -1.71875q0.171875 -0.015625 0.578125 -0.046875q0.421875 -0.03125 0.921875 0.015625q0.515625 0.03125 0.984375 0.171875q0.46875 0.140625 0.796875 0.453125q0.34375 0.3125 0.40625 0.828125q0 0.0625 0 0.15625q0.015625 0.078125 0.015625 0.203125l0.03125 0q0 0.25 0.0625 0.59375q0.0625 0.34375 0.203125 0.578125q0.140625 0.1875 0.421875 0.28125q0.296875 0.09375 0.578125 0.109375q0.28125 0 0.40625 -0.046875q0.21875 -0.046875 0.3125 -0.09375q0.09375 -0.0625 0.171875 -0.140625zm22.015427 -1.203125q-0.015625 0.015625 -0.390625 0.015625q-0.375 0 -0.65625 0.09375q-0.25 0.078125 -0.46875 0.359375q-0.21875 0.28125 -0.265625 0.53125q-0.015625 0.28125 -0.0625 0.984375q-0.03125 0.6875 -0.0625 1.609375q-0.03125 0.921875 -0.046875 1.90625q0 0.96875 0.03125 1.84375q0.03125 0.859375 0.078125 1.453125q0.0625 0.59375 0.1875 0.75q0.15625 0.1875 0.390625 0.328125q0.25 0.125 0.546875 0.203125q-0.09375 0.40625 -0.234375 0.875q-0.140625 0.46875 -0.453125 0.828125q-0.296875 0.34375 -0.859375 0.453125q-0.25 0.03125 -0.640625 -0.0625q-0.375 -0.078125 -0.90625 -0.21875q-0.34375 -0.09375 -0.890625 -0.046875q-0.546875 0.03125 -1.015625 0.109375q-0.46875 0.09375 -0.625 0.140625q-0.21875 0.03125 -0.4375 0.03125q-0.21875 0.015625 -0.421875 0.015625q-1.015625 0 -2.0 -0.34375q-0.96875 -0.359375 -1.734375 -1.109375q-0.765625 -0.75 -1.15625 -1.90625q-0.390625 -1.171875 -0.21875 -2.796875q0.125 -1.125 0.609375 -2.09375q0.5 -0.96875 1.234375 -1.671875q0.734375 -0.71875 1.5625 -1.125q0.84375 -0.40625 1.65625 -0.390625q0.15625 0 0.328125 0q0.171875 -0.015625 0.3125 -0.03125q0.171875 -0.046875 0.140625 -0.203125q-0.015625 -0.15625 -0.296875 -0.328125q-0.265625 -0.171875 -0.828125 -0.203125q-0.1875 -0.03125 -0.421875 -0.328125q-0.21875 -0.296875 -0.3125 -0.65625q-0.078125 -0.375 0.109375 -0.5625q0 0 0.28125 -0.015625q0.28125 -0.015625 0.640625 -0.015625q0.375 0 0.640625 0q0.28125 0 0.28125 0q0.234375 0 0.59375 -0.25q0.375 -0.265625 0.75 -0.5625q0.375 -0.296875 0.625 -0.4375q0.5 -0.265625 1.09375 -0.375q0.59375 -0.109375 1.109375 -0.109375q0.53125 -0.015625 0.75 0.015625q-0.015625 0.078125 -0.03125 0.40625q-0.015625 0.3125 0 0.46875q0.015625 0.3125 0.21875 0.5625q0.21875 0.234375 0.65625 0.3125q0.09375 0.015625 0.21875 0.234375q0.125 0.203125 0.234375 0.484375q0.125 0.28125 0.171875 0.53125q0.046875 0.234375 -0.015625 0.296875zm-7.296875 8.921875q0.6875 0.015625 1.046875 -0.359375q0.375 -0.375 0.5 -0.984375q0.140625 -0.625 0.140625 -1.34375q0 -1.078125 -0.421875 -1.5625q-0.40625 -0.5 -1.328125 -0.453125q-0.578125 0.046875 -0.984375 0.578125q-0.40625 0.515625 -0.53125 1.890625q-0.046875 0.75 0.1875 1.25q0.25 0.484375 0.625 0.734375q0.390625 0.234375 0.765625 0.25zm14.97052 -13.203125q0.0625 0.09375 0.40625 0.484375q0.34375 0.375 0.828125 0.890625q0.5 0.5 1.015625 1.03125q0.53125 0.53125 0.984375 0.9375q0.453125 0.40625 0.6875 0.546875q-0.25 0.421875 -0.84375 0.578125q-0.578125 0.15625 -1.296875 -0.046875q-0.40625 -0.09375 -0.78125 -0.5q-0.375 -0.40625 -0.75 -0.65625q-0.15625 -0.125 -0.609375 -0.171875q-0.4375 -0.0625 -0.765625 0.21875q-0.328125 0.25 -0.703125 0.640625q-0.375 0.375 -0.765625 0.46875q-0.703125 0.203125 -1.296875 0.046875q-0.59375 -0.15625 -0.84375 -0.578125q0.25 -0.140625 0.6875 -0.546875q0.453125 -0.421875 0.984375 -0.953125q0.53125 -0.546875 1.015625 -1.0625q0.5 -0.53125 0.828125 -0.890625q0.34375 -0.375 0.40625 -0.4375q0.15625 -0.15625 0.40625 -0.171875q0.25 -0.03125 0.40625 0.171875zm4.625 10.328125q0.171875 1.625 -0.265625 2.796875q-0.4375 1.15625 -1.25 1.90625q-0.8125 0.75 -1.828125 1.109375q-1.015625 0.34375 -2.015625 0.34375q-1.0 0 -2.015625 -0.34375q-1.0 -0.359375 -1.8125 -1.109375q-0.8125 -0.75 -1.234375 -1.90625q-0.421875 -1.171875 -0.25 -2.796875q0.15625 -1.5 0.875 -2.609375q0.734375 -1.109375 1.859375 -1.765625q1.125 -0.65625 2.484375 -0.734375q0.078125 0 0.15625 -0.09375q0.09375 -0.109375 0.3125 -0.203125q0.21875 -0.109375 0.6875 -0.0625q1.109375 0.296875 2.015625 1.0625q0.921875 0.765625 1.53125 1.875q0.609375 1.109375 0.75 2.53125zm-5.546875 3.09375q0.609375 0 1.046875 -0.28125q0.453125 -0.296875 0.734375 -0.75q0.28125 -0.46875 0.40625 -0.96875q0.125 -0.5 0.125 -0.90625q0 -0.828125 -0.28125 -1.296875q-0.28125 -0.484375 -1.25 -0.84375q-0.265625 -0.125 -0.359375 -0.3125q-0.09375 -0.1875 -0.265625 -0.21875q-0.65625 -0.078125 -1.109375 0.359375q-0.4375 0.421875 -0.671875 1.140625q-0.21875 0.703125 -0.21875 1.546875q0 0.828125 0.3125 1.390625q0.3125 0.5625 0.734375 0.859375q0.4375 0.28125 0.796875 0.28125zm2.109375 5.5156326q0 0.734375 -0.46875 1.296875q-0.453125 0.5625 -1.359375 0.578125q-0.421875 0 -0.875 -0.1875q-0.4375 -0.1875 -0.734375 -0.609375q-0.28125 -0.421875 -0.265625 -1.078125q0.03125 -0.515625 0.296875 -0.9375q0.265625 -0.421875 0.671875 -0.6875q0.421875 -0.265625 0.859375 -0.265625q0.515625 -0.015625 0.9375 0.25q0.421875 0.28125 0.671875 0.703125q0.265625 0.4375 0.265625 0.9375zm15.558289 -5.1718826q0.015625 0.84375 0.25 1.1875q0.25 0.34375 0.25 0.34375q0 0 -0.34375 0.25q-0.328125 0.234375 -0.890625 0.484375q-0.5625 0.25 -1.265625 0.25q-1.015625 0 -1.328125 -0.5625q-0.3125 -0.5625 -0.328125 -1.453125q0 -0.15625 0.015625 -0.671875q0.015625 -0.53125 0.03125 -1.1875q0.015625 -0.671875 -0.015625 -1.234375q-0.015625 -0.578125 -0.078125 -0.8125q-0.203125 -0.765625 -0.828125 -0.671875q-0.484375 0.0625 -0.90625 0.5625q-0.421875 0.484375 -0.703125 1.15625q-0.265625 0.671875 -0.265625 1.28125q0 0.296875 -0.03125 0.609375q-0.03125 0.296875 -0.046875 0.546875q-0.015625 0.171875 0.046875 0.421875q0.078125 0.25 0.265625 0.40625q-0.140625 0.234375 -0.53125 0.609375q-0.390625 0.359375 -0.84375 0.65625q-0.453125 0.296875 -0.796875 0.34375q-0.296875 0.015625 -0.71875 -0.1875q-0.40625 -0.21875 -0.71875 -0.640625q-0.296875 -0.4375 -0.3125 -1.03125q0 -0.15625 0 -0.71875q0.015625 -0.5625 0.015625 -1.34375q0.015625 -0.796875 0.03125 -1.6875q0.015625 -0.890625 0.015625 -1.71875q0 -0.828125 0 -1.4375q0 -0.515625 -0.125 -1.0q-0.125 -0.5 -0.26560974 -0.8125q-0.125 -0.328125 -0.125 -0.328125q0.18748474 -0.03125 0.60935974 -0.046875q0.4375 -0.03125 0.984375 0.015625q0.546875 0.03125 1.078125 0.171875q0.53125 0.125 0.890625 0.421875q0.390625 0.28125 0.78125 0.359375q0.40625 0.0625 0.625 -0.078125q0.6875 -0.4375 1.375 -0.765625q0.703125 -0.328125 1.359375 -0.40625q0.328125 -0.03125 0.765625 0.03125q0.453125 0.0625 0.875 0.296875q0.4375 0.234375 0.75 0.65625q0.328125 0.421875 0.40625 1.078125q0.140625 1.125 0.078125 2.75q-0.0625 1.609375 -0.03125 3.90625zm12.551361 -8.75q0.046875 0.875 0.03125 1.703125q0 0.828125 0 1.234375q0 0.203125 0 1.0q0.015625 0.796875 0.015625 1.921875q0.015625 1.109375 0 2.3125q-0.015625 1.1875 -0.09375 2.21875q-0.078125 1.125 -0.484375 1.9687576q-0.390625 0.859375 -1.140625 1.265625q-0.75 0.40625 -1.9375 0.21875q-0.890625 -0.125 -1.34375 -0.53125q-0.453125 -0.40625 -0.578125 -0.9375q-0.125 -0.5312576 0 -1.0937576q0.125 -0.546875 0.375 -0.96875q0.171875 0.21875 0.46875 0.46875q0.3125 0.234375 0.65625 0.359375q0.359375 0.125 0.6875 0.046875q0.21875 -0.0625 0.328125 -0.21875q0.125 -0.171875 0.078125 -0.40625q-0.03125 -0.234375 -0.546875 -0.53125q-0.515625 -0.296875 -1.328125 -0.265625q-0.296875 0.03125 -0.484375 0.046875q-0.171875 0.015625 -0.40625 0.015625q-1.328125 0 -2.453125 -0.53125q-1.109375 -0.546875 -1.765625 -1.671875q-0.65625 -1.125 -0.59375 -2.859375q0.0625 -1.125 0.546875 -2.015625q0.484375 -0.90625 1.25 -1.53125q0.765625 -0.625 1.625 -0.9375q0.859375 -0.328125 1.671875 -0.265625q0.09375 0 0.375 0.0625q0.296875 0.046875 0.578125 0.09375q0.296875 0.046875 0.390625 0.078125q0.6875 0.109375 1.515625 0.03125q0.84375 -0.09375 1.453125 -0.21875q0.375 -0.046875 0.734375 -0.046875q0.375 -0.015625 0.375 -0.015625zm-5.734375 3.375q-0.765625 0.078125 -1.15625 0.578125q-0.375 0.5 -0.203125 1.265625q0.078125 0.34375 0.375 0.6875q0.3125 0.328125 0.734375 0.53125q0.421875 0.1875 0.84375 0.140625q0.4375 -0.03125 0.765625 -0.140625q0.328125 -0.109375 0.515625 -0.453125q0.1875 -0.34375 0.1875 -1.09375q0 -0.765625 -0.296875 -1.09375q-0.296875 -0.34375 -0.78125 -0.40625q-0.46875 -0.078125 -0.984375 -0.015625zm23.381226 3.828125q0.109375 0.15625 0.453125 0.5625q0.34375 0.40625 0.78125 0.875q0.4375 0.46875 0.828125 0.859375q0.390625 0.375 0.59376526 0.484375q-0.31251526 0.703125 -1.0468903 1.078125q-0.71875 0.359375 -1.59375 0.28125q-0.859375 -0.0625 -1.640625 -0.640625q-0.171875 -0.140625 -0.484375 -0.5q-0.3125 -0.359375 -0.59375 -0.71875q-0.265625 -0.375 -0.609375 -0.75q-0.328125 -0.375 -0.6875 -0.296875q-0.171875 0.046875 -0.3125 0.28125q-0.140625 0.21875 -0.140625 0.609375q0 0.328125 0.140625 0.640625q0.140625 0.3125 0.140625 0.3125q0 0 -0.21875 0.1875q-0.21875 0.1875 -0.59375 0.421875q-0.359375 0.234375 -0.78125 0.328125q-0.4375 0.09375 -0.9375 -0.140625q-0.484375 -0.25 -0.828125 -0.71875q-0.34375 -0.46875 -0.375 -1.046875q0 -0.15625 -0.015625 -0.8125q0 -0.671875 -0.015625 -1.671875q0 -1.0 0 -2.1875q0 -1.1875 -0.015625 -2.390625q0 -1.21875 -0.015625 -2.296875q0 -1.09375 0 -1.875q0 -0.5 -0.078125 -0.984375q-0.078125 -0.484375 -0.171875 -0.796875q-0.09375 -0.328125 -0.09375 -0.328125q0.1875 -0.03125 0.609375 -0.015625q0.4375 0 0.984375 0.09375q0.5625 0.078125 1.09375 0.265625q0.53125 0.1875 0.90625 0.53125q0.375 0.34375 0.4375 0.875q0.015625 0.140625 0.015625 0.65625q0.015625 0.515625 0.015625 1.109375q0 0.578125 -0.015625 0.96875q-0.015625 0.578125 0.15625 0.96875q0.171875 0.375 0.484375 0.546875q0.3125 0.1875 0.734375 0.140625q0.4375 -0.0625 0.9375 -0.34375q0.265625 -0.125 0.71875 -0.40625q0.46875 -0.296875 0.953125 -0.609375q0.5 -0.3125 0.828125 -0.515625q0.34375 -0.21875 0.34375 -0.21875q0.171875 0.125 0.421875 0.53125q0.265625 0.40625 0.453125 0.9375q0.1875 0.515625 0.203125 1.078125q0.015625 0.546875 -0.3125 0.96875q-0.0625 0.078125 -0.234375 0.21875q-0.15625 0.125 -0.46875 0.34375q-0.578125 0.40625 -0.828125 0.796875q-0.234375 0.390625 -0.34375 0.859375q-0.078125 0.375 -0.03125 0.765625q0.0625 0.375 0.25 0.6875zm6.3647003 -7.5q-0.65625 0.015625 -1.171875 -0.359375q-0.515625 -0.390625 -0.78125 -0.953125q-0.25 -0.578125 -0.1875 -1.109375q0.09375 -0.78125 0.703125 -1.109375q0.625 -0.328125 1.296875 -0.359375q0.96875 -0.03125 1.5 0.515625q0.546875 0.53125 0.546875 1.234375q0 0.453125 -0.203125 0.9375q-0.1875 0.484375 -0.625 0.828125q-0.421875 0.34375 -1.078125 0.375zm2.046875 9.546875q0.015625 0.34375 0.21875 0.59375q0.203125 0.234375 0.5 0.453125q-0.140625 0.171875 -0.359375 0.375q-0.203125 0.1875 -0.625 0.359375q-0.40625 0.15625 -1.1875 0.25q-0.25 0.015625 -0.640625 -0.046875q-0.375 -0.0625 -0.75 -0.375q-0.375 -0.328125 -0.609375 -1.03125q-0.234375 -0.71875 -0.203125 -1.953125q0.03125 -0.203125 0.015625 -0.828125q-0.015625 -0.625 -0.03125 -1.46875q0 -0.84375 -0.015625 -1.75q0 -0.921875 -0.015625 -1.703125q0 -0.78125 -0.015625 -1.265625q-0.015625 -0.5 -0.015625 -0.5q0.1875 -0.015625 0.59375 -0.046875q0.421875 -0.03125 0.921875 0.015625q0.5 0.03125 0.96875 0.1875q0.484375 0.140625 0.8125 0.453125q0.34375 0.296875 0.40625 0.828125q0.09375 0.734375 0.0625 1.96875q-0.015625 1.21875 -0.0625 2.65625q-0.03125 1.4375 0.03125 2.828125zm12.80304 -0.5q0.015625 0.84375 0.25 1.1875q0.25 0.34375 0.25 0.34375q0 0 -0.34375 0.25q-0.328125 0.234375 -0.890625 0.484375q-0.5625 0.25 -1.265625 0.25q-1.015625 0 -1.328125 -0.5625q-0.3125 -0.5625 -0.328125 -1.453125q0 -0.15625 0.015625 -0.671875q0.015625 -0.53125 0.03125 -1.1875q0.015625 -0.671875 -0.015625 -1.234375q-0.015625 -0.578125 -0.078125 -0.8125q-0.203125 -0.765625 -0.828125 -0.671875q-0.484375 0.0625 -0.90625 0.5625q-0.421875 0.484375 -0.703125 1.15625q-0.265625 0.671875 -0.265625 1.28125q0 0.296875 -0.03125 0.609375q-0.03125 0.296875 -0.046875 0.546875q-0.015625 0.171875 0.046875 0.421875q0.078125 0.25 0.265625 0.40625q-0.140625 0.234375 -0.53125 0.609375q-0.390625 0.359375 -0.84375 0.65625q-0.453125 0.296875 -0.796875 0.34375q-0.296875 0.015625 -0.71875 -0.1875q-0.40625 -0.21875 -0.71875 -0.640625q-0.296875 -0.4375 -0.3125 -1.03125q0 -0.15625 0 -0.71875q0.015625 -0.5625 0.015625 -1.34375q0.015625 -0.796875 0.03125 -1.6875q0.015625 -0.890625 0.015625 -1.71875q0 -0.828125 0 -1.4375q0 -0.515625 -0.125 -1.0q-0.125 -0.5 -0.265625 -0.8125q-0.125 -0.328125 -0.125 -0.328125q0.1875 -0.03125 0.609375 -0.046875q0.4375 -0.03125 0.984375 0.015625q0.546875 0.03125 1.078125 0.171875q0.53125 0.125 0.890625 0.421875q0.390625 0.28125 0.78125 0.359375q0.40625 0.0625 0.625 -0.078125q0.6875 -0.4375 1.375 -0.765625q0.703125 -0.328125 1.359375 -0.40625q0.328125 -0.03125 0.765625 0.03125q0.453125 0.0625 0.875 0.296875q0.4375 0.234375 0.75 0.65625q0.328125 0.421875 0.40625 1.078125q0.140625 1.125 0.078125 2.75q-0.0625 1.609375 -0.03125 3.90625zm12.504486 0q0.015625 0.34375 0.125 0.71875q0.109375 0.375 0.53125 0.5625q-0.25 0.328125 -0.890625 0.71875q-0.640625 0.390625 -1.375 0.515625q-0.671875 0.09375 -1.125 -0.171875q-0.453125 -0.265625 -0.6875 -0.765625q-0.21875 -0.5 -0.234375 -1.078125q0 -0.15625 0.015625 -0.640625q0.015625 -0.5 0.015625 -1.140625q0 -0.640625 -0.015625 -1.21875q0 -0.578125 -0.0625 -0.90625q-0.109375 -0.640625 -0.453125 -0.71875q-0.328125 -0.09375 -0.765625 0.15625q-0.671875 0.390625 -1.109375 1.375q-0.421875 0.96875 -0.453125 2.46875q-0.015625 0.609375 0.15625 0.875q0.171875 0.25 0.171875 0.25q0 0 -0.1875 0.328125q-0.1875 0.328125 -0.703125 0.71875q-0.5 0.375 -1.46875 0.515625q-0.53125 0.078125 -0.890625 -0.203125q-0.34375 -0.28125 -0.5 -0.796875q-0.15625 -0.515625 -0.171875 -1.09375l-0.046875 -11.234375q-0.03125 -0.796875 -0.1875 -1.40625q-0.15625 -0.609375 -0.15625 -0.609375q0.484375 -0.046875 1.125 -0.03125q0.65625 0.015625 1.28125 0.1875q0.640625 0.15625 1.078125 0.546875q0.453125 0.390625 0.53125 1.046875q0.015625 0.125 0.03125 0.5q0.03125 0.375 0.03125 0.765625q-0.015625 0.546875 0.15625 0.921875q0.1875 0.359375 0.46875 0.546875q0.328125 0.203125 0.828125 0.140625q0.5 -0.078125 0.890625 -0.21875q0.390625 -0.15625 0.640625 -0.234375q0.265625 -0.078125 0.5625 -0.109375q0.328125 -0.03125 0.765625 0.03125q0.453125 0.0625 0.875 0.296875q0.4375 0.234375 0.75 0.65625q0.328125 0.421875 0.40625 1.078125q0.140625 1.125 0.0625 2.75q-0.0625 1.609375 -0.015625 3.90625zm18.141144 -8.28125q0.203125 0.203125 0.296875 0.71875q0.109375 0.5 0.0625 1.109375q-0.046875 0.609375 -0.296875 1.109375q-0.234375 0.484375 -0.71875 0.671875q-0.75 0.265625 -1.109375 0.96875q-0.34375 0.6875 -0.390625 1.75l0 1.640625q0.03125 0.3125 0.25 0.515625q0.234375 0.1875 0.453125 0.265625q0.21875 0.078125 0.21875 0.078125q0 0 -0.078125 0.265625q-0.0625 0.265625 -0.234375 0.640625q-0.171875 0.359375 -0.5 0.703125q-0.328125 0.328125 -0.84375 0.46875q-0.28125 0.0625 -0.734375 0.03125q-0.453125 -0.03125 -0.921875 -0.1875q-0.453125 -0.15625 -0.765625 -0.421875q-0.171875 -0.15625 -0.296875 -0.328125q-0.109375 -0.171875 -0.15625 -0.515625q-0.046875 -0.359375 -0.046875 -0.984375l0 -2.078125q-0.015625 -1.125 -0.484375 -1.859375q-0.46875 -0.75 -1.21875 -1.28125q-0.34375 -0.265625 -0.5 -0.828125q-0.140625 -0.578125 -0.1875 -1.203125q-0.03125 -0.640625 -0.015625 -1.09375q0.109375 0.03125 0.53125 0.09375q0.421875 0.046875 0.734375 0.046875q0.609375 -0.015625 0.84375 -0.484375q0.234375 -0.46875 0.234375 -1.15625l-0.015625 -1.71875q0.171875 -0.015625 0.578125 -0.046875q0.421875 -0.03125 0.921875 0.015625q0.515625 0.03125 0.984375 0.171875q0.46875 0.140625 0.796875 0.453125q0.34375 0.3125 0.40625 0.828125q0 0.0625 0 0.15625q0.015625 0.078125 0.015625 0.203125l0.03125 0q0 0.25 0.0625 0.59375q0.0625 0.34375 0.203125 0.578125q0.140625 0.1875 0.421875 0.28125q0.296875 0.09375 0.578125 0.109375q0.28125 0 0.40625 -0.046875q0.21875 -0.046875 0.3125 -0.09375q0.09375 -0.0625 0.171875 -0.140625zm12.204193 -6.015625q0.265625 -0.15625 0.703125 -0.15625q0.4375 0 0.90625 0.109375q0.46875 0.09375 0.8125 0.3125q0.359375 0.203125 0.453125 0.5q0.09375 0.296875 -0.234375 0.625q-0.390625 0.40625 -1.0625 0.796875q-0.65625 0.390625 -1.40625 0.703125q-0.734375 0.3125 -1.390625 0.5q-0.359375 0.09375 -0.390625 0.328125q-0.03125 0.234375 0.078125 0.4375q0.109375 0.203125 0.1875 0.265625q-0.25 0.421875 -0.84375 0.578125q-0.578125 0.15625 -1.296875 -0.046875q-0.40625 -0.09375 -0.78125 -0.5q-0.375 -0.421875 -0.75 -0.671875q-0.15625 -0.109375 -0.609375 -0.15625q-0.4375 -0.0625 -0.765625 0.1875q-0.328125 0.265625 -0.703125 0.65625q-0.375 0.390625 -0.765625 0.484375q-0.703125 0.203125 -1.296875 0.046875q-0.578125 -0.15625 -0.84375 -0.578125q0.25 -0.140625 0.6875 -0.546875q0.453125 -0.421875 0.984375 -0.953125q0.53125 -0.546875 1.015625 -1.0625q0.5 -0.53125 0.84375 -0.890625q0.34375 -0.375 0.390625 -0.4375q0.15625 -0.15625 0.40625 -0.171875q0.25 -0.03125 0.40625 0.171875q0.046875 0.0625 0.296875 0.3125q0.265625 0.25 0.59375 0.578125q0.328125 0.3125 0.609375 0.578125q0.296875 0.25 0.390625 0.34375q0.28125 0.234375 0.5 0.15625q0.234375 -0.078125 0.4375 -0.296875q0.203125 -0.21875 0.34375 -0.375q0.1875 -0.21875 0.53125 -0.5625q0.359375 -0.34375 0.765625 -0.703125q0.40625 -0.359375 0.796875 -0.5625zm-1.109375 11.921875q0.46875 0.328125 0.625 0.9375q0.15625 0.609375 -0.046875 1.3125q-0.1875 0.703125 -0.734375 1.359375q-0.53125 0.640625 -1.453125 1.0625q-0.90625 0.421875 -2.203125 0.453125q-1.09375 0.015625 -2.125 -0.265625q-1.015625 -0.28125 -1.859375 -0.890625q-0.84375 -0.609375 -1.375 -1.546875q-0.515625 -0.953125 -0.5625 -2.265625q-0.03125 -0.28125 -0.015625 -0.5625q0.015625 -0.296875 0.046875 -0.609375q0 -0.078125 0 -0.140625q0.015625 -0.0625 0.046875 -0.140625q0.171875 -1.15625 0.78125 -2.125q0.625 -0.96875 1.5 -1.640625q0.890625 -0.6875 1.90625 -1.015625q1.03125 -0.328125 2.015625 -0.234375q1.515625 0.15625 2.359375 0.828125q0.84375 0.65625 1.09375 1.609375q0.25 0.953125 0 2.046875q-0.109375 0.546875 -0.59375 1.078125q-0.484375 0.53125 -1.171875 0.953125q-0.6875 0.40625 -1.46875 0.640625q-0.78125 0.21875 -1.515625 0.171875q-0.375 -0.015625 -0.40625 0.234375q-0.015625 0.25 0.21875 0.53125q0.25 0.28125 0.625 0.359375q0.890625 0.1875 1.703125 0.015625q0.8125 -0.1875 1.234375 -0.515625q0.359375 -0.265625 0.734375 -0.71875q0.390625 -0.46875 0.640625 -0.921875zm-4.234375 -1.96875q0.453125 -0.046875 0.78125 -0.28125q0.328125 -0.25 0.34375 -0.515625q0 -0.390625 -0.203125 -0.625q-0.1875 -0.25 -0.6875 -0.234375q-0.546875 0.03125 -1.046875 0.171875q-0.484375 0.125 -0.578125 0.5625q-0.0625 0.28125 0.15625 0.5q0.234375 0.203125 0.578125 0.328125q0.34375 0.109375 0.65625 0.09375z" fill-rule="nonzero"/></g></svg>