<svg version="1.1" viewBox="0.0 0.0 100.0 100.0" fill="none" stroke="none" stroke-linecap="square" stroke-miterlimit="10" xmlns:xlink="http://www.w3.org/1999/xlink" xmlns="http://www.w3.org/2000/svg"><clipPath id="p.0"><path d="m0 0l100.0 0l0 100.0l-100.0 0l0 -100.0z" clip-rule="nonzero"/></clipPath><g clip-path="url(#p.0)"><path fill="#000000" fill-opacity="0.0" d="m0 0l100.0 0l0 100.0l-100.0 0z" fill-rule="evenodd"/><path fill="#000000" fill-opacity="0.0" d="m0 0l100.0 0l0 100.0l-100.0 0z" fill-rule="evenodd"/><path fill="#000000" d="m50.31437 56.74125q-0.96875 0.03125 -1.953125 -0.234375q-0.984375 -0.28125 -1.546875 -0.703125q-0.53125 -0.40625 -1.15625 -1.171875q-0.609375 -0.78125 -0.921875 -2.078125q-0.328125 -1.40625 -0.265625 -2.625q0.0625 -1.234375 0.359375 -2.203125q0.296875 -0.984375 0.640625 -1.640625q0.5 -1.0 1.375 -1.9375q0.890625 -0.953125 2.328125 -1.40625q0.9375 -0.3125 1.84375 -0.234375q0.921875 0.078125 1.625 0.34375q0.703125 0.265625 0.984375 0.546875q0.90625 0.8125 1.359375 1.984375q0.453125 1.171875 0.53125 2.546875q0.078125 1.375 -0.1875 2.8125q-0.4375 2.234375 -1.4375 3.671875q-1.0 1.4375 -2.28125 1.96875q-0.53125 0.234375 -0.75 0.28125q-0.21875 0.046875 -0.546875 0.078125zm-0.84375 -3.84375q0.84375 0.078125 1.390625 -0.328125q0.546875 -0.421875 0.875 -1.203125q0.328125 -0.78125 0.53125 -1.75q0.21875 -0.984375 0.078125 -1.84375q-0.125 -0.875 -0.640625 -1.421875q-0.515625 -0.5625 -1.4375 -0.5625q-0.921875 0.015625 -1.46875 0.78125q-0.53125 0.75 -0.765625 2.3125q-0.078125 0.578125 -0.09375 1.25q0 0.65625 0.125 1.28125q0.140625 0.625 0.484375 1.03125q0.34375 0.40625 0.921875 0.453125z" fill-rule="nonzero"/></g></svg>