<svg version="1.1" viewBox="0.0 0.0 100.0 100.0" fill="none" stroke="none" stroke-linecap="square" stroke-miterlimit="10" xmlns:xlink="http://www.w3.org/1999/xlink" xmlns="http://www.w3.org/2000/svg"><clipPath id="p.0"><path d="m0 0l100.0 0l0 100.0l-100.0 0l0 -100.0z" clip-rule="nonzero"/></clipPath><g clip-path="url(#p.0)"><path fill="#000000" fill-opacity="0.0" d="m0 0l100.0 0l0 100.0l-100.0 0z" fill-rule="evenodd"/><path fill="#000000" fill-opacity="0.0" d="m0 0l100.0 0l0 100.0l-100.0 0z" fill-rule="evenodd"/><path fill="#000000" d="m50.399094 57.444374q-0.1875 -0.015625 -0.421875 -0.140625q-0.234375 -0.109375 -0.265625 -0.421875q-0.015625 -0.1875 -0.015625 -0.78125q0.015625 -0.609375 0.015625 -1.40625q0.015625 -0.8125 0.046875 -1.578125q0.03125 -0.78125 0.046875 -1.328125q0.015625 -0.546875 0.015625 -0.625q0 -0.0625 0.015625 -0.390625q0.015625 -0.34375 0.015625 -0.78125q0 -0.453125 0 -0.875q0.015625 -0.421875 0.015625 -0.65625q0 -0.328125 -0.15625 -0.6875q-0.140625 -0.375 -0.390625 -0.625q-0.25 -0.25 -0.609375 -0.21875q-0.65625 0.09375 -1.34375 -0.28125q-0.671875 -0.390625 -1.125 -1.171875q0.640625 -0.734375 1.421875 -1.375q0.78125 -0.65625 1.578125 -1.0625q0.8125 -0.421875 1.484375 -0.4375q0.78125 -0.046875 1.484375 0.1875q0.71875 0.234375 1.09375 0.625q0.3125 0.28125 0.40625 0.59375q0.09375 0.3125 -0.015625 0.859375q-0.046875 0.25 -0.125 0.609375q-0.078125 0.34375 -0.15625 0.828125q-0.03125 0.234375 -0.09375 0.8125q-0.046875 0.578125 -0.109375 1.265625q-0.046875 0.6875 -0.09375 1.28125q-0.03125 0.59375 -0.03125 0.84375q0 0.203125 0 0.703125q0 0.5 0.015625 1.125q0.015625 0.625 0.03125 1.296875q0.03125 0.65625 0.078125 1.21875q0.03125 0.453125 0.109375 0.859375q0.09375 0.40625 0.171875 0.53125q-0.203125 0.25 -0.53125 0.4375q-0.3125 0.171875 -0.625 0.28125q-0.3125 0.09375 -0.46875 0.15625q-0.140625 0.0625 -0.453125 0.140625q-0.296875 0.078125 -0.59375 0.125q-0.28125 0.0625 -0.421875 0.0625z" fill-rule="nonzero"/></g></svg>