<svg version="1.1" viewBox="0.0 0.0 100.0 100.0" fill="none" stroke="none" stroke-linecap="square" stroke-miterlimit="10" xmlns:xlink="http://www.w3.org/1999/xlink" xmlns="http://www.w3.org/2000/svg"><clipPath id="p.0"><path d="m0 0l100.0 0l0 100.0l-100.0 0l0 -100.0z" clip-rule="nonzero"/></clipPath><g clip-path="url(#p.0)"><path fill="#000000" fill-opacity="0.0" d="m0 0l100.0 0l0 100.0l-100.0 0z" fill-rule="evenodd"/><path fill="#000000" fill-opacity="0.0" d="m0 0l100.0 0l0 100.0l-100.0 0z" fill-rule="evenodd"/><path fill="#000000" d="m53.665802 57.038124q-0.359375 0.1875 -1.015625 0.171875q-0.640625 0 -1.328125 -0.1875q-0.125 -0.046875 -0.578125 -0.171875q-0.453125 -0.140625 -1.046875 -0.3125q-0.59375 -0.171875 -1.140625 -0.359375q-0.546875 -0.1875 -0.875 -0.296875q-0.921875 -0.359375 -1.390625 -0.640625q-0.453125 -0.296875 -0.578125 -0.59375q-0.125 -0.296875 -0.125 -0.65625q0.03125 -0.34375 0.203125 -0.6875q0.1875 -0.359375 0.671875 -0.96875q0.109375 -0.15625 0.4375 -0.5q0.328125 -0.34375 0.71875 -0.78125q0.40625 -0.4375 0.765625 -0.859375q0.375 -0.4375 0.578125 -0.75q0.203125 -0.3125 0.515625 -0.734375q0.3125 -0.421875 0.578125 -0.890625q0.265625 -0.46875 0.375 -0.90625q0.125 -0.453125 -0.046875 -0.796875q-0.140625 -0.265625 -0.640625 -0.25q-0.5 0 -0.984375 0.328125q-0.453125 0.3125 -0.796875 0.515625q-0.328125 0.203125 -0.84375 0.234375q-0.640625 0.0625 -1.1875 -0.140625q-0.546875 -0.203125 -0.90625 -0.390625q0.3125 -1.21875 0.921875 -1.96875q0.609375 -0.765625 1.359375 -1.171875q0.765625 -0.40625 1.46875 -0.515625q1.40625 -0.25 2.5625 0.125q1.15625 0.359375 1.78125 0.921875q0.625 0.59375 0.984375 1.421875q0.359375 0.8125 0.296875 1.625q-0.078125 0.828125 -0.59375 1.796875q-0.5 0.953125 -1.328125 2.03125q-0.09375 0.109375 -0.3125 0.390625q-0.21875 0.28125 -0.46875 0.609375q-0.234375 0.328125 -0.421875 0.609375q-0.1875 0.28125 -0.25 0.375q-0.421875 0.796875 0.21875 1.0625q0.171875 0.0625 0.546875 0.171875q0.390625 0.09375 0.859375 0.1875q0.46875 0.078125 0.890625 0.140625q0.4375 0.0625 0.71875 0.09375q0.328125 0.015625 0.53125 0.34375q0.21875 0.328125 0.171875 0.671875q-0.015625 0.34375 -0.328125 0.875q-0.3125 0.515625 -0.96875 0.828125z" fill-rule="nonzero"/></g></svg>