<svg version="1.1" viewBox="0.0 0.0 100.0 100.0" fill="none" stroke="none" stroke-linecap="square" stroke-miterlimit="10" xmlns:xlink="http://www.w3.org/1999/xlink" xmlns="http://www.w3.org/2000/svg"><clipPath id="p.0"><path d="m0 0l100.0 0l0 100.0l-100.0 0l0 -100.0z" clip-rule="nonzero"/></clipPath><g clip-path="url(#p.0)"><path fill="#000000" fill-opacity="0.0" d="m0 0l100.0 0l0 100.0l-100.0 0z" fill-rule="evenodd"/><path fill="#000000" fill-opacity="0.0" d="m0 0l100.0 0l0 100.0l-100.0 0z" fill-rule="evenodd"/><path fill="#000000" d="m48.721344 57.67875q-0.25 -0.09375 -0.46875 -0.25q-0.21875 -0.15625 -0.265625 -0.4375q-0.015625 -0.265625 0.15625 -0.640625q0.1875 -0.375 0.375 -0.546875q0.171875 -0.203125 0.578125 -0.640625q0.421875 -0.4375 0.671875 -0.8125q0.265625 -0.390625 0.5 -0.75q0.234375 -0.375 0.25 -0.859375q0.046875 -0.5 -0.328125 -0.75q-0.359375 -0.265625 -0.6875 -0.421875q-0.125 -0.046875 -0.609375 -0.265625q-0.484375 -0.21875 -1.078125 -0.453125q-0.3125 -0.140625 -0.609375 -0.40625q-0.296875 -0.265625 -0.34375 -0.71875q-0.046875 -0.59375 0.234375 -0.96875q0.28125 -0.390625 0.71875 -0.59375q0.078125 -0.03125 0.40625 -0.140625q0.34375 -0.125 0.78125 -0.265625q0.453125 -0.15625 0.84375 -0.3125q0.40625 -0.171875 0.59375 -0.28125q0.28125 -0.171875 0.53125 -0.390625q0.265625 -0.234375 0.375 -0.578125q0.125 -0.34375 -0.015625 -0.84375q-0.078125 -0.3125 -0.53125 -0.421875q-0.453125 -0.125 -0.84375 -0.140625q-0.1875 -0.03125 -0.671875 -0.015625q-0.46875 0.015625 -1.25 0.171875q-0.328125 0.046875 -0.859375 -0.0625q-0.53125 -0.125 -1.046875 -0.46875q-0.515625 -0.34375 -0.8125 -0.96875q0.609375 -0.375 1.0625 -0.6875q0.46875 -0.328125 0.96875 -0.546875q0.515625 -0.234375 1.1875 -0.328125q1.59375 -0.234375 2.78125 0.046875q1.203125 0.28125 1.96875 0.84375q0.75 0.515625 1.0625 1.140625q0.3125 0.625 0.328125 1.234375q0.0625 1.03125 -0.28125 1.8125q-0.328125 0.765625 -0.953125 1.328125q-0.109375 0.09375 -0.3125 0.296875q-0.1875 0.1875 -0.34375 0.359375q-0.140625 0.15625 -0.171875 0.296875q-0.015625 0.125 0 0.296875q0.03125 0.328125 0.265625 0.546875q0.234375 0.21875 0.515625 0.453125q0.296875 0.234375 0.5 0.59375q0.21875 0.34375 0.1875 0.921875q-0.015625 0.8125 -0.3125 1.609375q-0.296875 0.78125 -0.734375 1.484375q-0.421875 0.703125 -0.875 1.28125q-0.453125 0.5625 -0.84375 0.921875q-0.25 0.234375 -0.9375 0.4375q-0.6875 0.203125 -1.65625 -0.109375z" fill-rule="nonzero"/></g></svg>