<svg version="1.1" viewBox="0.0 0.0 100.0 100.0" fill="none" stroke="none" stroke-linecap="square" stroke-miterlimit="10" xmlns:xlink="http://www.w3.org/1999/xlink" xmlns="http://www.w3.org/2000/svg"><clipPath id="p.0"><path d="m0 0l100.0 0l0 100.0l-100.0 0l0 -100.0z" clip-rule="nonzero"/></clipPath><g clip-path="url(#p.0)"><path fill="#000000" fill-opacity="0.0" d="m0 0l100.0 0l0 100.0l-100.0 0z" fill-rule="evenodd"/><path fill="#000000" fill-opacity="0.0" d="m0 0.5774278l100.0 0l0 100.0l-100.0 0z" fill-rule="evenodd"/><path fill="#000000" d="m51.68892 58.037426q-0.171875 0.078125 -0.515625 0.109375q-0.328125 0.03125 -0.6875 -0.03125q-0.34375 -0.0625 -0.578125 -0.234375q-0.34375 -0.3125 -0.4375 -0.671875q-0.078125 -0.375 -0.125 -0.734375q-0.015625 -0.375 -0.046875 -0.6875q-0.015625 -0.3125 -0.15625 -0.625q-0.140625 -0.3125 -0.359375 -0.53125q-0.21875 -0.21875 -0.71875 -0.265625q-0.203125 -0.015625 -0.546875 -0.125q-0.328125 -0.109375 -0.71875 -0.21875q-0.234375 -0.078125 -0.765625 -0.28125q-0.53125 -0.21875 -1.046875 -0.578125q-0.5 -0.375 -0.703125 -0.953125q-0.203125 -0.65625 -0.125 -1.78125q0.09375 -1.140625 0.671875 -2.546875q0.25 -0.609375 0.53125 -1.265625q0.296875 -0.671875 0.5625 -1.28125q0.28125 -0.625 0.484375 -1.09375q0.21875 -0.46875 0.3125 -0.640625q0.171875 -0.34375 0.296875 -0.53125q0.125 -0.1875 0.203125 -0.59375q1.265625 0.1875 1.828125 0.765625q0.578125 0.578125 0.5625 1.21875q-0.03125 0.609375 -0.28125 1.1875q-0.25 0.5625 -0.34375 0.734375q-0.109375 0.28125 -0.296875 0.84375q-0.171875 0.546875 -0.328125 1.171875q-0.15625 0.609375 -0.25 1.09375q-0.09375 0.484375 -0.09375 0.625q0.015625 0.25 0.09375 0.5q0.09375 0.234375 0.46875 0.265625q0.4375 0.0625 0.640625 -0.09375q0.203125 -0.171875 0.28125 -0.421875q0.078125 -0.265625 0.125 -0.484375q0.046875 -0.203125 0.109375 -0.640625q0.078125 -0.453125 0.15625 -0.9375q0.078125 -0.5 0.125 -0.828125q0.046875 -0.53125 0.40625 -0.984375q0.359375 -0.46875 0.953125 -0.484375q0.609375 -0.03125 0.9375 0.25q0.34375 0.28125 0.515625 0.65625q0.171875 0.359375 0.234375 0.65625q0.078125 0.265625 0.09375 0.703125q0.015625 0.4375 0.015625 0.828125q0 0.375 0 0.546875q0.03125 0.453125 0.078125 0.703125q0.046875 0.234375 0.28125 0.40625q0.234375 0.171875 0.53125 0.203125q0.3125 0.03125 0.53125 0.0625q0.5625 0.046875 0.8125 0.28125q0.265625 0.21875 0.359375 0.53125q0.09375 0.3125 0.09375 0.59375q0.03125 0.4375 -0.296875 0.953125q-0.328125 0.515625 -1.125 0.75q-0.375 0.09375 -0.71875 0.15625q-0.34375 0.046875 -0.46875 0.078125q-0.09375 0.015625 -0.3125 0.171875q-0.21875 0.15625 -0.296875 0.375q-0.046875 0.15625 -0.0625 0.421875q-0.015625 0.25 -0.015625 0.40625q0.03125 0.359375 0.265625 0.515625q-0.109375 0.84375 -0.484375 1.265625q-0.359375 0.40625 -0.65625 0.515625z" fill-rule="nonzero"/></g></svg>