<svg version="1.1" viewBox="0.0 0.0 100.0 100.0" fill="none" stroke="none" stroke-linecap="square" stroke-miterlimit="10" xmlns:xlink="http://www.w3.org/1999/xlink" xmlns="http://www.w3.org/2000/svg"><clipPath id="p.0"><path d="m0 0l100.0 0l0 100.0l-100.0 0l0 -100.0z" clip-rule="nonzero"/></clipPath><g clip-path="url(#p.0)"><path fill="#000000" fill-opacity="0.0" d="m0 0l100.0 0l0 100.0l-100.0 0z" fill-rule="evenodd"/><path fill="#000000" fill-opacity="0.0" d="m0 0.5774278l100.0 0l0 100.0l-100.0 0z" fill-rule="evenodd"/><path fill="#000000" d="m48.95806 58.0218q-0.21875 0.015625 -0.46875 -0.015625q-0.25 -0.03125 -0.40625 -0.171875q-0.109375 -0.109375 -0.375 -0.328125q-0.265625 -0.234375 -0.5 -0.546875q-0.21875 -0.3125 -0.25 -0.625q-0.015625 -0.25 0.0625 -0.421875q0.078125 -0.1875 0.28125 -0.421875q0.125 -0.15625 0.40625 -0.40625q0.28125 -0.25 0.5625 -0.515625q0.296875 -0.265625 0.421875 -0.390625q0.1875 -0.203125 0.25 -0.359375q0.078125 -0.171875 0.03125 -0.4375q-0.015625 -0.296875 -0.296875 -0.46875q-0.265625 -0.1875 -0.546875 -0.28125q-0.359375 -0.140625 -0.8125 -0.296875q-0.453125 -0.15625 -0.84375 -0.296875q-0.390625 -0.140625 -0.625 -0.234375q-0.3125 -0.1875 -0.625 -0.515625q-0.3125 -0.34375 -0.46875 -0.703125q-0.125 -0.375 -0.234375 -1.015625q-0.109375 -0.65625 -0.140625 -1.3125q-0.03125 -0.328125 -0.015625 -0.828125q0.015625 -0.5 0.03125 -1.03125q0.03125 -0.546875 0.0625 -1.015625q0.046875 -0.46875 0.09375 -0.71875q0.0625 -0.328125 0.15625 -0.734375q0.09375 -0.421875 0.296875 -0.78125q0.21875 -0.375 0.59375 -0.5625q0.328125 -0.15625 0.75 -0.21875q0.421875 -0.078125 0.734375 0.015625q0.3125 0.09375 0.6875 0.359375q0.375 0.25 1.046875 0.34375q0.28125 0.03125 0.8125 0.109375q0.53125 0.0625 1.15625 0.15625q0.625 0.078125 1.203125 0.15625q0.59375 0.0625 1.03125 0.125q0.4375 0.046875 0.578125 0.0625q0.71875 0.078125 1.140625 0.390625q0.4375 0.3125 0.640625 0.65625q0.21875 0.328125 0.25 0.53125q0.078125 0.75 -0.125 1.09375q-0.1875 0.328125 -0.46875 0.421875q-0.28125 0.078125 -0.453125 0.125q-0.40625 0.078125 -1.046875 0.046875q-0.625 -0.03125 -1.25 -0.109375q-0.625 -0.078125 -1.03125 -0.109375q-0.40625 -0.0625 -1.015625 -0.125q-0.609375 -0.078125 -1.140625 -0.078125q-0.515625 0 -0.703125 0.203125q-0.3125 0.265625 -0.421875 0.796875q-0.09375 0.53125 0.265625 0.9375q0.375 0.40625 1.0 0.8125q0.625 0.390625 1.21875 0.71875q0.5625 0.28125 1.140625 0.6875q0.578125 0.390625 1.0 0.84375q0.421875 0.4375 0.453125 0.84375q0.078125 0.65625 -0.015625 1.109375q-0.09375 0.4375 -0.34375 0.859375q-0.234375 0.40625 -0.609375 0.953125q-0.265625 0.390625 -0.703125 0.859375q-0.4375 0.46875 -0.90625 0.875q-0.46875 0.40625 -0.875 0.671875q-0.40625 0.265625 -0.640625 0.3125z" fill-rule="nonzero"/></g></svg>