<svg version="1.1" viewBox="0.0 0.0 100.0 100.0" fill="none" stroke="none" stroke-linecap="square" stroke-miterlimit="10" xmlns:xlink="http://www.w3.org/1999/xlink" xmlns="http://www.w3.org/2000/svg"><clipPath id="p.0"><path d="m0 0l100.0 0l0 100.0l-100.0 0l0 -100.0z" clip-rule="nonzero"/></clipPath><g clip-path="url(#p.0)"><path fill="#000000" fill-opacity="0.0" d="m0 0l100.0 0l0 100.0l-100.0 0z" fill-rule="evenodd"/><path fill="#000000" fill-opacity="0.0" d="m0 0.5774278l100.0 0l0 100.0l-100.0 0z" fill-rule="evenodd"/><path fill="#000000" d="m49.62362 58.037426q-0.328125 0 -0.90625 -0.03125q-0.5625 -0.03125 -1.265625 -0.296875q-0.6875 -0.25 -1.4375 -0.90625q-0.375 -0.328125 -0.625 -0.859375q-0.25 -0.546875 -0.40625 -1.171875q-0.140625 -0.640625 -0.1875 -1.203125q-0.03125 -0.578125 0 -0.9375q0.03125 -0.5 0.125 -1.09375q0.109375 -0.59375 0.234375 -1.125q0.140625 -0.546875 0.25 -0.890625q0.484375 -1.296875 1.078125 -2.34375q0.59375 -1.0625 1.125 -1.8125q0.546875 -0.765625 0.84375 -1.140625q0.125 -0.15625 0.359375 -0.421875q0.25 -0.28125 0.484375 -0.5625q0.234375 -0.296875 0.28125 -0.484375q0.6875 0.125 1.265625 0.484375q0.59375 0.34375 0.953125 0.75q0.359375 0.390625 0.359375 0.6875q0 0.46875 -0.171875 0.71875q-0.171875 0.25 -0.328125 0.46875q-0.09375 0.140625 -0.34375 0.359375q-0.234375 0.21875 -0.484375 0.4375q-0.234375 0.21875 -0.359375 0.40625q-0.15625 0.25 -0.21875 0.390625q-0.0625 0.140625 -0.03125 0.359375q0.0625 0.171875 0.421875 0.21875q0.359375 0.046875 0.484375 0.0625q1.203125 0.140625 1.796875 0.5q0.59375 0.34375 0.875 0.609375q0.625 0.53125 0.921875 0.953125q0.296875 0.421875 0.390625 0.859375q0.203125 0.859375 0.078125 1.5625q-0.109375 0.703125 -0.4375 1.671875q-0.3125 0.828125 -0.9375 1.5625q-0.625 0.734375 -1.46875 1.40625q-0.625 0.5 -1.34375 0.640625q-0.703125 0.140625 -1.375 0.171875zm-0.5 -3.546875q0.5625 0.140625 1.109375 -0.1875q0.546875 -0.328125 1.09375 -0.921875q0.421875 -0.5 0.59375 -1.03125q0.171875 -0.546875 0.125 -0.796875q-0.109375 -0.4375 -0.453125 -0.6875q-0.328125 -0.25 -0.734375 -0.328125q-0.390625 -0.078125 -0.671875 0.0625q-0.421875 0.1875 -0.734375 0.421875q-0.3125 0.234375 -0.609375 0.734375q-0.28125 0.53125 -0.328125 0.96875q-0.03125 0.4375 -0.015625 0.75q0.046875 0.5625 0.234375 0.765625q0.1875 0.1875 0.390625 0.25z" fill-rule="nonzero"/></g></svg>