<svg version="1.1" viewBox="0.0 0.0 100.0 100.0" fill="none" stroke="none" stroke-linecap="square" stroke-miterlimit="10" xmlns:xlink="http://www.w3.org/1999/xlink" xmlns="http://www.w3.org/2000/svg"><clipPath id="p.0"><path d="m0 0l100.0 0l0 100.0l-100.0 0l0 -100.0z" clip-rule="nonzero"/></clipPath><g clip-path="url(#p.0)"><path fill="#000000" fill-opacity="0.0" d="m0 0l100.0 0l0 100.0l-100.0 0z" fill-rule="evenodd"/><path fill="#000000" fill-opacity="0.0" d="m0 0.5774278l100.0 0l0 100.0l-100.0 0z" fill-rule="evenodd"/><path fill="#000000" d="m50.86287 57.381176q-0.140625 0 -0.453125 -0.03125q-0.296875 -0.046875 -0.546875 -0.3125q-0.234375 -0.265625 -0.140625 -0.9375q0.015625 -0.109375 0.140625 -0.5625q0.140625 -0.46875 0.328125 -1.0625q0.203125 -0.609375 0.390625 -1.125q0.1875 -0.53125 0.28125 -0.765625q0.09375 -0.234375 0.25 -0.640625q0.15625 -0.421875 0.3125 -0.875q0.15625 -0.46875 0.28125 -0.84375q0.125 -0.375 0.15625 -0.515625q0.171875 -0.734375 0.09375 -1.140625q-0.078125 -0.421875 -0.234375 -0.671875q-0.171875 -0.234375 -0.375 -0.28125q-0.203125 -0.046875 -0.359375 -0.078125q-0.09375 -0.015625 -0.453125 -0.03125q-0.34375 -0.015625 -0.703125 -0.015625q-0.34375 -0.015625 -0.4375 0q-0.203125 0.015625 -0.390625 0.140625q-0.1875 0.125 -0.34375 0.453125q-0.078125 0.140625 -0.296875 0.59375q-0.203125 0.4375 -0.421875 1.0q-0.21875 0.546875 -0.3125 1.03125q-0.09375 0.484375 0.046875 0.65625q-0.328125 0.53125 -0.921875 0.78125q-0.578125 0.25 -1.1875 0.109375q-0.375 -0.078125 -0.71875 -0.390625q-0.328125 -0.3125 -0.421875 -0.640625q-0.09375 -0.359375 -0.109375 -0.765625q-0.015625 -0.421875 0.03125 -0.78125q0.0625 -0.453125 0.171875 -1.046875q0.125 -0.609375 0.265625 -1.1875q0.15625 -0.59375 0.265625 -1.046875q0.125 -0.46875 0.1875 -0.65625q0.0625 -0.171875 0.171875 -0.53125q0.109375 -0.375 0.234375 -0.796875q0.125 -0.421875 0.234375 -0.75q0.125 -0.34375 0.1875 -0.453125q0.140625 -0.203125 0.25 -0.390625q0.125 -0.1875 0.453125 -0.3125q0.328125 -0.15625 0.65625 -0.0625q0.34375 0.09375 0.703125 0.3125q0.4375 0.25 0.734375 0.546875q0.296875 0.28125 0.546875 0.5q0.25 0.203125 0.546875 0.25q1.09375 0.125 2.0625 0.359375q0.984375 0.21875 1.703125 0.453125q0.71875 0.21875 0.984375 0.40625q0.421875 0.25 0.609375 0.625q0.203125 0.375 0.28125 0.625q0.078125 0.25 0.109375 0.671875q0.03125 0.421875 -0.078125 0.734375q-0.046875 0.140625 -0.171875 0.515625q-0.125 0.375 -0.296875 0.84375q-0.15625 0.453125 -0.328125 0.890625q-0.15625 0.4375 -0.28125 0.6875q-0.109375 0.25 -0.296875 0.6875q-0.1875 0.4375 -0.375 0.90625q-0.171875 0.453125 -0.328125 0.8125q-0.140625 0.359375 -0.203125 0.484375q-0.03125 0.109375 -0.15625 0.40625q-0.109375 0.296875 -0.21875 0.65625q-0.109375 0.34375 -0.140625 0.671875q-0.015625 0.3125 0.09375 0.46875q-0.390625 0.875 -0.984375 1.140625q-0.578125 0.25 -1.078125 0.28125z" fill-rule="nonzero"/></g></svg>