<svg version="1.1" viewBox="0.0 0.0 100.0 100.0" fill="none" stroke="none" stroke-linecap="square" stroke-miterlimit="10" xmlns:xlink="http://www.w3.org/1999/xlink" xmlns="http://www.w3.org/2000/svg"><clipPath id="p.0"><path d="m0 0l100.0 0l0 100.0l-100.0 0l0 -100.0z" clip-rule="nonzero"/></clipPath><g clip-path="url(#p.0)"><path fill="#000000" fill-opacity="0.0" d="m0 0l100.0 0l0 100.0l-100.0 0z" fill-rule="evenodd"/><path fill="#000000" fill-opacity="0.0" d="m0 0.5774278l100.0 0l0 100.0l-100.0 0z" fill-rule="evenodd"/><path fill="#000000" d="m49.12461 57.80305q-1.890625 -0.234375 -2.875 -0.890625q-0.984375 -0.671875 -1.203125 -1.28125q-0.125 -0.375 -0.15625 -0.703125q-0.03125 -0.328125 -0.015625 -0.640625q0.0625 -0.796875 0.3125 -1.34375q0.25 -0.546875 0.546875 -0.90625q0.296875 -0.359375 0.453125 -0.5625q0.40625 -0.546875 0.421875 -0.859375q0.015625 -0.328125 -0.140625 -0.640625q-0.109375 -0.203125 -0.421875 -0.421875q-0.3125 -0.234375 -0.671875 -0.484375q-0.34375 -0.265625 -0.53125 -0.5625q-0.3125 -0.453125 -0.34375 -1.109375q-0.03125 -0.65625 0.140625 -1.140625q0.078125 -0.25 0.34375 -0.703125q0.28125 -0.46875 0.765625 -0.96875q0.484375 -0.5 1.15625 -0.90625q0.671875 -0.421875 1.5625 -0.59375q0.390625 -0.0625 0.671875 -0.0625q0.28125 -0.015625 0.59375 -0.0625q0.90625 -0.09375 1.671875 0.09375q0.78125 0.1875 1.40625 0.53125q0.625 0.328125 1.0625 0.703125q0.4375 0.359375 0.625 0.625q0.421875 0.546875 0.71875 1.171875q0.3125 0.609375 0.296875 1.171875q0 0.765625 -0.171875 1.234375q-0.15625 0.453125 -0.375 0.71875q-0.234375 0.28125 -0.515625 0.4375q-0.265625 0.140625 -0.4375 0.296875q-0.171875 0.15625 -0.1875 0.46875q0 0.25 0.203125 0.59375q0.21875 0.34375 0.515625 0.8125q0.125 0.203125 0.234375 0.71875q0.109375 0.5 0.0625 1.171875q-0.046875 0.671875 -0.390625 1.40625q-0.234375 0.484375 -0.625 0.953125q-0.390625 0.46875 -1.046875 0.859375q-0.640625 0.375 -1.671875 0.625q-0.484375 0.140625 -1.09375 0.21875q-0.609375 0.078125 -0.890625 0.03125zm0.46875 -9.875q0.328125 -0.03125 0.578125 -0.078125q0.25 -0.046875 0.5 -0.125q0.171875 -0.0625 0.453125 -0.21875q0.28125 -0.171875 0.5 -0.40625q0.21875 -0.234375 0.1875 -0.5q0 -0.21875 -0.3125 -0.421875q-0.296875 -0.203125 -0.8125 -0.28125q-0.515625 -0.078125 -1.1875 0.125q-0.453125 0.125 -0.84375 0.390625q-0.390625 0.25 -0.609375 0.546875q-0.21875 0.296875 -0.109375 0.5625q0.09375 0.25 0.390625 0.359375q0.3125 0.09375 0.671875 0.078125q0.375 -0.015625 0.59375 -0.03125zm0.328125 6.59375q1.21875 -0.140625 1.671875 -0.640625q0.453125 -0.5 0.28125 -1.25q-0.03125 -0.171875 -0.3125 -0.390625q-0.265625 -0.234375 -0.75 -0.359375q-0.46875 -0.125 -1.125 0q-0.515625 0.078125 -0.953125 0.421875q-0.4375 0.328125 -0.640625 0.75q-0.1875 0.421875 0 0.765625q0.1875 0.34375 0.71875 0.5625q0.546875 0.203125 1.109375 0.140625z" fill-rule="nonzero"/></g></svg>