<svg version="1.1" viewBox="0.0 0.0 100.0 100.0" fill="none" stroke="none" stroke-linecap="square" stroke-miterlimit="10" xmlns:xlink="http://www.w3.org/1999/xlink" xmlns="http://www.w3.org/2000/svg"><clipPath id="p.0"><path d="m0 0l100.0 0l0 100.0l-100.0 0l0 -100.0z" clip-rule="nonzero"/></clipPath><g clip-path="url(#p.0)"><path fill="#000000" fill-opacity="0.0" d="m0 0l100.0 0l0 100.0l-100.0 0z" fill-rule="evenodd"/><path fill="#000000" fill-opacity="0.0" d="m0 0.5774278l100.0 0l0 100.0l-100.0 0z" fill-rule="evenodd"/><path fill="#000000" d="m49.541794 57.9593q-0.71875 -0.15625 -0.984375 -0.65625q-0.265625 -0.5 -0.34375 -1.21875q-0.046875 -0.390625 -0.046875 -0.6875q0 -0.3125 0.0625 -0.6875q0.265625 0.109375 0.515625 -0.03125q0.265625 -0.140625 0.4375 -0.34375q0.1875 -0.21875 0.25 -0.359375q0.234375 -0.4375 0.109375 -0.8125q-0.078125 -0.25 -0.375 -0.421875q-0.28125 -0.171875 -1.125 -0.3125q-0.578125 -0.09375 -1.234375 -0.3125q-0.65625 -0.234375 -1.296875 -0.890625q-0.359375 -0.359375 -0.53125 -0.921875q-0.15625 -0.578125 -0.203125 -1.15625q-0.046875 -0.59375 0 -1.0q0.109375 -1.15625 0.4375 -1.90625q0.34375 -0.765625 0.734375 -1.21875q0.390625 -0.453125 0.609375 -0.671875q0.828125 -0.84375 1.75 -1.140625q0.921875 -0.296875 1.921875 -0.328125q1.015625 -0.03125 2.078125 0.453125q1.078125 0.484375 1.78125 1.390625q0.46875 0.59375 0.71875 1.265625q0.25 0.671875 0.34375 1.25q0.09375 0.5625 0.09375 0.84375q-0.015625 1.140625 -0.265625 2.15625q-0.234375 1.015625 -0.5625 1.84375q-0.3125 0.8125 -0.609375 1.375q-0.28125 0.5625 -0.390625 0.796875q-0.15625 0.28125 -0.5625 0.890625q-0.40625 0.59375 -0.953125 1.25q-0.53125 0.640625 -1.140625 1.109375q-0.34375 0.265625 -0.625 0.390625q-0.28125 0.125 -0.59375 0.0625zm-0.921875 -8.03125q0.671875 0.21875 1.0625 0.109375q0.390625 -0.109375 0.640625 -0.453125q0.265625 -0.34375 0.515625 -0.765625q0.265625 -0.421875 0.375 -0.890625q0.125 -0.484375 0.0625 -0.890625q-0.046875 -0.40625 -0.3125 -0.578125q-0.4375 -0.265625 -0.984375 0q-0.53125 0.25 -0.96875 0.734375q-0.578125 0.65625 -0.75 1.25q-0.171875 0.59375 -0.03125 0.984375q0.140625 0.390625 0.390625 0.5z" fill-rule="nonzero"/></g></svg>