<svg version="1.1" viewBox="0.0 0.0 231.3989501312336 100.0" fill="none" stroke="none" stroke-linecap="square" stroke-miterlimit="10" xmlns:xlink="http://www.w3.org/1999/xlink" xmlns="http://www.w3.org/2000/svg"><clipPath id="p.0"><path d="m0 0l231.39896 0l0 100.0l-231.39896 0l0 -100.0z" clip-rule="nonzero"/></clipPath><g clip-path="url(#p.0)"><path fill="#000000" fill-opacity="0.0" d="m0 0l231.39896 0l0 100.0l-231.39896 0z" fill-rule="evenodd"/><path fill="#000000" fill-opacity="0.0" d="m11.085288 28.992126l209.22835 0l0 42.015747l-209.22835 0z" fill-rule="evenodd"/><path fill="#000000" d="m108.4954 52.224625q0.25 0.203125 0.328125 0.8125q0.078125 0.59375 -0.0625 1.25q-0.109375 0.546875 -0.40625 1.046875q-0.296875 0.484375 -0.796875 0.578125q-0.171875 0.03125 -0.84375 0.046875q-0.671875 0.015625 -1.578125 0q-0.90625 -0.015625 -1.828125 -0.03125q-0.921875 0 -1.640625 0q-0.71875 0.015625 -1.015625 0.0625q-0.765625 0.125 -1.5625 0.078125q-0.796875 -0.03125 -1.109375 -0.21875q0.125 -0.25 0.21875 -0.78125q0.09375 -0.53125 0.140625 -1.171875q0.0625 -0.640625 0.046875 -1.21875l-0.078125 -11.484375q0.203125 -0.03125 0.71875 -0.015625q0.515625 0.015625 1.09375 0.15625q0.640625 0.15625 1.140625 0.578125q0.5 0.40625 0.609375 1.03125q0.046875 0.203125 0.0625 0.8125q0.015625 0.609375 0.015625 1.4375q0.015625 0.8125 0 1.671875q0 0.859375 0 1.609375q0 0.734375 -0.015625 1.203125q0 0.46875 0 0.46875q-0.015625 0.703125 0.140625 1.28125q0.171875 0.5625 0.484375 0.890625q0.25 0.234375 0.59375 0.328125q0.359375 0.09375 0.890625 0.125q0.21875 0.03125 0.6875 0.015625q0.484375 -0.03125 1.0625 -0.078125q0.578125 -0.046875 1.140625 -0.109375q0.578125 -0.078125 1.0 -0.171875q0.4375 -0.09375 0.5625 -0.203125zm7.369095 -11.40625q0.453125 0.265625 0.96875 0.625q0.53125 0.34375 0.984375 0.734375q0.453125 0.375 0.78125 0.703125q0.328125 0.328125 0.390625 0.546875q0.140625 0.546875 -0.09375 0.9375q-0.234375 0.375 -0.71875 0.203125q-0.234375 -0.078125 -0.859375 -0.3125q-0.625 -0.234375 -1.421875 -0.5625q-0.78125 -0.34375 -1.484375 -0.734375q-0.703125 -0.390625 -1.09375 -0.796875q-0.328125 -0.328125 -0.25 -0.59375q0.09375 -0.28125 0.4375 -0.484375q0.34375 -0.203125 0.796875 -0.3125q0.453125 -0.125 0.890625 -0.109375q0.4375 0.015625 0.671875 0.15625zm4.796875 11.734375q0.015625 0.40625 0.0625 1.015625q0.046875 0.59375 0.234375 1.15625q0.1875 0.546875 0.59375 0.890625q-0.453125 0.3125 -0.984375 0.46875q-0.515625 0.15625 -0.953125 -0.046875q-0.40625 -0.203125 -1.125 -0.265625q-0.703125 -0.0625 -1.578125 0.234375q-0.328125 0.109375 -0.6875 0.140625q-0.359375 0.046875 -0.71875 0.046875q-0.96875 0 -1.9375 -0.34375q-0.96875 -0.34375 -1.75 -1.0625q-0.78125 -0.734375 -1.203125 -1.859375q-0.40625 -1.125 -0.234375 -2.6875q0.109375 -1.078125 0.609375 -1.984375q0.515625 -0.90625 1.25 -1.578125q0.75 -0.671875 1.578125 -1.03125q0.84375 -0.375 1.625 -0.328125q0.78125 0.015625 1.3125 0.109375q0.53125 0.078125 0.9375 0.0625q0.40625 -0.046875 0.734375 -0.15625q0.34375 -0.109375 0.65625 -0.203125q0.546875 -0.1875 1.09375 -0.171875q0.546875 0 0.796875 0.0625q-0.109375 0.328125 -0.1875 1.0q-0.0625 0.671875 -0.109375 1.53125q-0.03125 0.84375 -0.046875 1.765625q0 0.90625 0 1.75q0.015625 0.828125 0.03125 1.484375zm-5.078125 0.65625q0.828125 0.015625 1.21875 -0.640625q0.390625 -0.65625 0.375 -1.8125q0 -0.3125 -0.078125 -0.734375q-0.0625 -0.4375 -0.21875 -0.84375q-0.15625 -0.40625 -0.4375 -0.6875q-0.265625 -0.28125 -0.6875 -0.28125q-0.859375 0 -1.515625 0.640625q-0.640625 0.625 -0.59375 1.984375q0.03125 0.9375 0.34375 1.453125q0.3125 0.515625 0.75 0.71875q0.4375 0.203125 0.84375 0.203125zm17.798653 -2.984375q0.171875 1.5625 -0.25 2.6875q-0.40625 1.109375 -1.203125 1.84375q-0.78125 0.734375 -1.765625 1.078125q-0.96875 0.34375 -1.953125 0.34375q-0.9374924 0 -1.9218674 -0.34375q-0.984375 -0.34375 -1.765625 -1.078125q-0.765625 -0.734375 -1.1875 -1.84375q-0.421875 -1.125 -0.25 -2.6875q0.171875 -1.4375 0.859375 -2.515625q0.703125 -1.09375 1.796875 -1.71875q1.09375 -0.625 2.4062424 -0.6875q0.0625 -0.03125 0.140625 -0.125q0.09375 -0.109375 0.3125 -0.1875q0.21875 -0.078125 0.65625 -0.046875q1.0625 0.296875 1.9375 1.03125q0.890625 0.71875 1.46875 1.8125q0.59375 1.078125 0.71875 2.4375zm-5.328125 2.96875q0.59375 0 1.015625 -0.28125q0.4375 -0.28125 0.6875 -0.71875q0.265625 -0.4375 0.390625 -0.921875q0.125 -0.484375 0.125 -0.875q0 -0.8125 -0.265625 -1.25q-0.265625 -0.453125 -1.1875 -0.8125q-0.265625 -0.109375 -0.359375 -0.296875q-0.09375 -0.1875 -0.28125 -0.203125q-0.6093674 -0.078125 -1.0468674 0.34375q-0.421875 0.40625 -0.65625 1.09375q-0.21875 0.6875 -0.21875 1.484375q0 0.8125 0.3125 1.359375q0.3125 0.53125 0.71875 0.8125q0.421875 0.265625 0.7656174 0.265625z" fill-rule="nonzero"/></g></svg>