<svg version="1.1" viewBox="0.0 0.0 449.4803149606299 240.5538057742782" fill="none" stroke="none" stroke-linecap="square" stroke-miterlimit="10" xmlns:xlink="http://www.w3.org/1999/xlink" xmlns="http://www.w3.org/2000/svg"><clipPath id="p.0"><path d="m0 0l449.48032 0l0 240.5538l-449.48032 0l0 -240.5538z" clip-rule="nonzero"/></clipPath><g clip-path="url(#p.0)"><path fill="#000000" fill-opacity="0.0" d="m0 0l449.48032 0l0 240.5538l-449.48032 0z" fill-rule="evenodd"/><path fill="#000000" fill-opacity="0.0" d="m84.8189 98.85958l279.8425 0l0 42.83465l-279.8425 0z" fill-rule="evenodd"/><path fill="#000000" d="m203.02858 115.64315q-0.21875 0.71875 -0.703125 1.046875q-0.484375 0.328125 -1.015625 0.265625q-0.515625 -0.078125 -0.890625 -0.515625q0.328125 -0.265625 0.203125 -0.5625q-0.125 -0.296875 -0.609375 -0.5q-0.484375 -0.203125 -1.234375 -0.140625q-0.765625 0.03125 -1.546875 0.5q-0.78125 0.46875 -1.3125 1.34375q-0.515625 0.859375 -0.578125 2.15625q-0.0625 1.328125 0.265625 2.171875q0.328125 0.828125 0.8125 1.265625q0.5 0.421875 1.0 0.609375q0.515625 0.1875 0.828125 0.234375q0.40625 0.078125 0.9375 0.109375q0.53125 0.03125 1.0625 -0.0625q0.546875 -0.09375 0.9375 -0.328125q0.34375 -0.21875 0.859375 -0.5625q0.53125 -0.359375 1.015625 -0.796875q0.484375 -0.453125 0.703125 -0.921875q0.65625 0.4375 0.8125 1.25q0.171875 0.8125 -0.140625 1.75q-0.296875 0.921875 -1.0625 1.75q-0.765625 0.8125 -1.984375 1.328125q-1.21875 0.515625 -2.875 0.46875q-0.78125 -0.015625 -1.78125 -0.28125q-0.984375 -0.28125 -2.0 -0.859375q-1.0 -0.59375 -1.828125 -1.5625q-0.8125 -0.984375 -1.234375 -2.421875q-0.421875 -1.453125 -0.234375 -3.4375q0.171875 -1.875 0.9375 -3.21875q0.765625 -1.359375 1.875 -2.21875q1.109375 -0.859375 2.359375 -1.296875q1.25 -0.4375 2.390625 -0.453125q1.140625 -0.03125 1.96875 0.359375q0.84375 0.375 1.359375 0.984375q0.53125 0.609375 0.71875 1.296875q0.1875 0.6875 -0.015625 1.25zm10.399094 -4.625q0.0625 0.09375 0.40625 0.484375q0.359375 0.375 0.84375 0.890625q0.5 0.5 1.015625 1.03125q0.515625 0.53125 0.96875 0.9375q0.46875 0.40625 0.6875 0.546875q-0.25 0.421875 -0.828125 0.578125q-0.578125 0.15625 -1.3125 -0.046875q-0.40625 -0.09375 -0.78125 -0.5q-0.375 -0.40625 -0.75 -0.65625q-0.140625 -0.125 -0.59375 -0.171875q-0.4375 -0.0625 -0.765625 0.21875q-0.328125 0.25 -0.71875 0.640625q-0.375 0.375 -0.75 0.46875q-0.71875 0.203125 -1.296875 0.046875q-0.578125 -0.15625 -0.859375 -0.578125q0.25 -0.140625 0.6875 -0.546875q0.453125 -0.421875 0.984375 -0.953125q0.53125 -0.546875 1.015625 -1.0625q0.5 -0.53125 0.84375 -0.890625q0.34375 -0.375 0.390625 -0.4375q0.15625 -0.140625 0.40625 -0.171875q0.25 -0.03125 0.40625 0.171875zm3.421875 12.734375q0.03125 0.4375 0.078125 1.0625q0.046875 0.609375 0.234375 1.1875q0.1875 0.578125 0.625 0.921875q-0.484375 0.328125 -1.0 0.46875q-0.5 0.15625 -0.96875 0.0625q-0.140625 -0.03125 -0.296875 -0.078125q-0.140625 -0.046875 -0.40625 -0.125q-0.46875 -0.125 -1.0625 -0.046875q-0.59375 0.0625 -1.25 0.171875q-0.640625 0.125 -1.265625 0.125q-1.0 0 -2.015625 -0.34375q-1.0 -0.359375 -1.8125 -1.109375q-0.8125 -0.75 -1.234375 -1.90625q-0.421875 -1.171875 -0.25 -2.796875q0.109375 -1.125 0.625 -2.0625q0.53125 -0.9375 1.296875 -1.625q0.765625 -0.6875 1.625 -1.046875q0.875 -0.375 1.6875 -0.375q0.625 0.015625 0.953125 0.046875q0.328125 0.03125 0.859375 0.109375q0.359375 0.046875 0.84375 -0.09375q0.5 -0.15625 1.0 -0.3125q0.515625 -0.15625 0.890625 -0.171875q0.5625 -0.015625 0.78125 0.03125q0.234375 0.046875 0.421875 0.078125q-0.125 0.375 -0.203125 1.0625q-0.078125 0.6875 -0.125 1.5625q-0.03125 0.875 -0.046875 1.828125q0 0.9375 0 1.828125q0 0.875 0.015625 1.546875zm-7.265625 -1.796875q0.046875 0.96875 0.359375 1.515625q0.3125 0.53125 0.78125 0.75q0.46875 0.21875 0.890625 0.21875q0.859375 0 1.25 -0.671875q0.40625 -0.671875 0.375 -1.859375q0 -0.328125 -0.078125 -0.765625q-0.0625 -0.453125 -0.234375 -0.890625q-0.15625 -0.4375 -0.4375 -0.71875q-0.28125 -0.28125 -0.71875 -0.28125q-0.890625 0 -1.5625 0.65625q-0.65625 0.65625 -0.625 2.046875zm19.674377 2.828125q0 0.171875 0.0625 0.53125q0.0625 0.34375 0.15625 0.71875q0.109375 0.359375 0.21875 0.640625q0.125 0.265625 0.25 0.328125q-0.28125 0.328125 -0.875 0.53125q-0.59375 0.203125 -1.203125 0.078125q-0.453125 -0.140625 -0.828125 -0.265625q-0.359375 -0.109375 -1.0 -0.09375q-0.46875 0.015625 -0.921875 0.09375q-0.453125 0.078125 -0.921875 0.1875q-0.234375 0.03125 -0.8125 0.015625q-0.5625 0 -1.234375 -0.140625q-0.65625 -0.140625 -1.21875 -0.46875q-0.734375 -0.4375 -1.109375 -1.28125q-0.359375 -0.859375 -0.421875 -1.75q0 -0.203125 -0.015625 -0.828125q0 -0.625 -0.015625 -1.46875q0 -0.84375 -0.015625 -1.75q0 -0.921875 -0.015625 -1.703125q-0.015625 -0.78125 -0.015625 -1.265625q0 -0.5 0 -0.5q0.1875 -0.015625 0.59375 -0.046875q0.421875 -0.03125 0.921875 0.015625q0.5 0.03125 0.96875 0.1875q0.484375 0.140625 0.8125 0.453125q0.34375 0.296875 0.40625 0.828125q0.03125 0.421875 0.046875 0.765625q0.03125 0.34375 0.03125 0.765625q0 0.421875 -0.03125 1.03125q-0.03125 0.59375 -0.0625 1.53125q-0.046875 0.75 -0.046875 1.296875q0.015625 0.53125 0.265625 0.8125q0.25 0.265625 0.890625 0.234375q0.421875 -0.03125 0.703125 -0.34375q0.28125 -0.328125 0.453125 -0.78125q0.1875 -0.46875 0.25 -0.953125q0.0625 -0.484375 0.0625 -0.84375q0 -0.078125 -0.015625 -0.59375q0 -0.53125 -0.015625 -1.25q0 -0.734375 -0.015625 -1.4375q0 -0.71875 0 -1.1875q0 -0.484375 0 -0.484375q0.171875 -0.015625 0.578125 0q0.40625 0 0.90625 0.078125q0.5 0.078125 0.984375 0.28125q0.484375 0.1875 0.8125 0.53125q0.34375 0.328125 0.40625 0.84375q0.109375 1.125 0.046875 2.75q-0.0625 1.609375 -0.015625 3.90625zm17.513626 2.953125q-0.171875 0.078125 -0.515625 0.109375q-0.328125 0.03125 -0.6875 -0.03125q-0.34375 -0.0625 -0.578125 -0.234375q-0.34375 -0.3125 -0.4375 -0.671875q-0.078125 -0.375 -0.125 -0.734375q-0.015625 -0.375 -0.046875 -0.6875q-0.015625 -0.3125 -0.15625 -0.625q-0.140625 -0.3125 -0.359375 -0.53125q-0.21875 -0.21875 -0.71875 -0.265625q-0.203125 -0.015625 -0.546875 -0.125q-0.328125 -0.109375 -0.71875 -0.21875q-0.234375 -0.078125 -0.765625 -0.28125q-0.53125 -0.21875 -1.046875 -0.578125q-0.5 -0.375 -0.703125 -0.953125q-0.203125 -0.65625 -0.125 -1.78125q0.09375 -1.140625 0.671875 -2.546875q0.25 -0.609375 0.53125 -1.265625q0.296875 -0.671875 0.5625 -1.28125q0.28125 -0.625 0.484375 -1.09375q0.21875 -0.46875 0.3125 -0.640625q0.171875 -0.34375 0.296875 -0.53125q0.125 -0.1875 0.203125 -0.59375q1.265625 0.1875 1.828125 0.765625q0.578125 0.578125 0.5625 1.21875q-0.03125 0.609375 -0.28125 1.1875q-0.25 0.5625 -0.34375 0.734375q-0.109375 0.28125 -0.296875 0.84375q-0.171875 0.546875 -0.328125 1.171875q-0.15625 0.609375 -0.25 1.09375q-0.09375 0.484375 -0.09375 0.625q0.015625 0.25 0.09375 0.5q0.09375 0.234375 0.46875 0.265625q0.4375 0.0625 0.640625 -0.09375q0.203125 -0.171875 0.28125 -0.421875q0.078125 -0.265625 0.125 -0.484375q0.046875 -0.203125 0.109375 -0.640625q0.078125 -0.453125 0.15625 -0.9375q0.078125 -0.5 0.125 -0.828125q0.046875 -0.53125 0.40625 -0.984375q0.359375 -0.46875 0.953125 -0.484375q0.609375 -0.03125 0.9375 0.25q0.34375 0.28125 0.515625 0.65625q0.171875 0.359375 0.234375 0.65625q0.078125 0.265625 0.09375 0.703125q0.015625 0.4375 0.015625 0.828125q0 0.375 0 0.546875q0.03125 0.453125 0.078125 0.703125q0.046875 0.234375 0.28125 0.40625q0.234375 0.171875 0.53125 0.203125q0.3125 0.03125 0.53125 0.0625q0.5625 0.046875 0.8125 0.28125q0.265625 0.21875 0.359375 0.53125q0.09375 0.3125 0.09375 0.59375q0.03125 0.4375 -0.296875 0.953125q-0.328125 0.515625 -1.125 0.75q-0.375 0.09375 -0.71875 0.15625q-0.34375 0.046875 -0.46875 0.078125q-0.09375 0.015625 -0.3125 0.171875q-0.21875 0.15625 -0.296875 0.375q-0.046875 0.15625 -0.0625 0.421875q-0.015625 0.25 -0.015625 0.40625q0.03125 0.359375 0.265625 0.515625q-0.109375 0.84375 -0.484375 1.265625q-0.359375 0.40625 -0.65625 0.515625zm8.590912 -11.1875q0.59375 0 0.89064026 0.09375q0.296875 0.09375 0.46875 0.40625q0.1875 0.3125 0.390625 0.921875q0.15625 0.453125 -0.03125 0.9375q-0.171875 0.484375 -0.640625 0.8125q-0.46876526 0.328125 -1.1562653 0.328125q-0.703125 0 -1.125 -0.328125q-0.421875 -0.328125 -0.609375 -0.796875q-0.171875 -0.46875 -0.125 -0.890625q0.0625 -0.53125 0.5625 -1.0q0.5 -0.484375 1.375 -0.484375zm0 7.40625q0.59375 0 0.89064026 0.09375q0.296875 0.09375 0.46875 0.40625q0.1875 0.3125 0.390625 0.921875q0.15625 0.453125 -0.03125 0.921875q-0.171875 0.46875 -0.640625 0.796875q-0.46876526 0.328125 -1.1562653 0.328125q-0.703125 0 -1.125 -0.3125q-0.421875 -0.3125 -0.609375 -0.78125q-0.171875 -0.46875 -0.125 -0.890625q0.0625 -0.5625 0.5625 -1.015625q0.5 -0.46875 1.375 -0.46875z" fill-rule="nonzero"/></g></svg>