<svg version="1.1" viewBox="0.0 0.0 960.0 720.0" fill="none" stroke="none" stroke-linecap="square" stroke-miterlimit="10" xmlns:xlink="http://www.w3.org/1999/xlink" xmlns="http://www.w3.org/2000/svg"><clipPath id="p.0"><path d="m0 0l960.0 0l0 720.0l-960.0 0l0 -720.0z" clip-rule="nonzero"/></clipPath><g clip-path="url(#p.0)"><path fill="#000000" fill-opacity="0.0" d="m0 0l960.0 0l0 720.0l-960.0 0z" fill-rule="evenodd"/><path fill="#000000" fill-opacity="0.0" d="m230.15749 192.38058l487.62207 0l0 42.015747l-487.62207 0z" fill-rule="evenodd"/><path fill="#000000" fill-opacity="0.0" d="m132.38058 98.41207l667.937 0l0 116.34646l-667.937 0z" fill-rule="evenodd"/><path fill="#ffffff" d="m197.06808 176.52457q0.078125 1.453125 0.4375 2.96875q0.359375 1.515625 0.921875 2.71875q-0.328125 0.3125 -1.6875 1.125q-1.359375 0.796875 -3.28125 1.4375q-1.921875 0.640625 -4.078125 0.484375q-3.125 -0.25 -5.171875 -2.609375q-2.03125 -2.359375 -2.03125 -6.03125q-0.078125 -0.8125 -0.078125 -1.6875q0 -0.875 0 -2.234375q0.078125 -3.53125 -1.4375 -6.125q-1.515625 -2.59375 -4.078125 -4.0q-2.5625 -1.40625 -5.609375 -1.40625q-4.390625 0 -7.5625 2.640625q-3.15625 2.640625 -3.46875 7.6875q0 0.71875 0.109375 2.71875q0.125 2.0 0.359375 4.0q0.25 2.0 0.484375 2.875q-0.875 0.96875 -2.640625 1.96875q-1.75 1.0 -3.671875 1.546875q-1.921875 0.5625 -3.359375 0.328125q-2.15625 -0.40625 -4.15625 -2.875q-2.0 -2.484375 -2.09375 -6.15625q0 -0.734375 -0.046875 -4.046875q-0.03125 -3.328125 -0.078125 -8.28125q-0.03125 -4.953125 -0.078125 -10.671875q-0.03125 -5.734375 -0.078125 -11.328125q-0.03125 -5.59375 -0.078125 -10.234375q-0.03125 -4.640625 -0.03125 -7.4375q0 -2.8125 0 -2.8125q0.875 -0.15625 3.078125 -0.078125q2.203125 0.078125 4.671875 0.71875q2.734375 0.640625 4.96875 2.171875q2.234375 1.515625 2.5625 4.390625q0.15625 1.359375 0.234375 2.96875q0.078125 1.59375 0.078125 2.75q0 1.15625 0 1.15625q0 3.125 1.4375 5.8125q1.453125 2.671875 3.96875 4.203125q2.515625 1.515625 5.484375 1.4375q4.234375 -0.171875 6.546875 -2.71875q2.328125 -2.5625 3.453125 -7.453125q0.3125 -1.359375 0.46875 -3.875q0.15625 -2.515625 0.203125 -5.15625q0.046875 -2.640625 0.046875 -4.484375q0 -1.84375 0 -1.84375q0.875 -0.15625 2.875 -0.078125q2.0 0.078125 4.234375 0.5625q2.796875 0.5625 5.3125 2.125q2.53125 1.5625 2.859375 4.59375q0.15625 1.515625 0.234375 4.875q0.078125 3.359375 0.03125 7.8125q-0.03125 4.4375 -0.109375 9.4375q-0.078125 5.0 -0.171875 9.921875q-0.078125 4.921875 -0.078125 9.125q0 4.1875 0.09375 7.0625zm63.755554 -38.390625q1.59375 0.953125 1.71875 3.640625q0.125 2.671875 -0.875 5.921875q-1.0 3.234375 -2.921875 5.875q-1.359375 2.078125 -3.7187347 3.5625q-2.359375 1.484375 -4.921875 2.359375q-0.640625 0.234375 -1.6875 1.078125q-1.03125 0.84375 -1.796875 2.0q-0.765625 1.15625 -0.765625 2.28125q0.078125 2.078125 0.03125 4.40625q-0.03125 2.3125 0.046875 4.875q0 0.71875 0.28125 2.125q0.28125 1.390625 0.6875 2.953125q0.40625 1.5625 0.875 2.6875q0.484375 1.109375 0.96875 1.359375q-1.125 1.359375 -3.609375 2.234375q-2.46875 0.875 -4.875 0.234375q-1.921875 -0.46875 -3.484375 -1.0q-1.5625 -0.515625 -4.203125 -0.4375q-1.90625 0.078125 -3.796875 0.4375q-1.875 0.359375 -3.796875 0.6875q-0.953125 0.15625 -3.3125 0.109375q-2.359375 -0.03125 -5.09375 -0.59375q-2.71875 -0.5625 -5.03125 -1.84375q-3.125 -1.828125 -4.640625 -5.390625q-1.515625 -3.5625 -1.6875 -7.25q-0.078125 -0.875 -0.125 -3.4375q-0.03125 -2.5625 -0.078125 -6.078125q-0.03125 -3.515625 -0.078125 -7.265625q-0.03125 -3.765625 -0.078125 -7.0q-0.03125 -3.25 -0.03125 -5.28125q0 -2.046875 0 -2.046875q0.71875 -0.078125 2.4375 -0.15625q1.71875 -0.09375 3.796875 0.03125q2.078125 0.125 4.03125 0.71875q1.96875 0.59375 3.359375 1.875q1.40625 1.28125 1.65625 3.453125q0.234375 1.75 0.3125 3.203125q0.078125 1.4375 0.078125 3.15625q0 1.71875 -0.125 4.234375q-0.109375 2.515625 -0.34375 6.359375q-0.171875 3.125 -0.09375 5.359375q0.09375 2.234375 1.09375 3.359375q1.0 1.125 3.640625 1.046875q1.75 -0.078125 2.953125 -1.390625q1.203125 -1.328125 1.875 -3.25q0.6875 -1.921875 1.0 -3.921875q0.328125 -2.0 0.25 -3.515625q0 -0.328125 -0.046875 -2.53125q-0.03125 -2.203125 -0.078125 -5.203125q-0.046875 -3.0 -0.09375 -5.953125q-0.03125 -2.953125 -0.03125 -4.90625q0 -1.96875 0 -1.96875q0.8125 -0.171875 2.8125 -0.078125q2.0 0.078125 4.359375 0.515625q2.359375 0.4375 4.4375 1.5625q2.078125 1.109375 3.03125 3.03125q0.40625 0.71875 1.28125 1.0q0.890625 0.28125 1.796875 -0.1875q0.921875 -0.484375 1.328125 -1.84375q0.640625 -2.078125 0.078125 -3.875q-0.5625 -1.8125 -0.953125 -2.765625q4.234375 0 7.0625 0q2.8437347 0 5.0937347 1.4375zm31.673706 -18.640625q1.125 -0.640625 2.921875 -0.671875q1.796875 -0.046875 3.75 0.4375q1.96875 0.46875 3.40625 1.359375q1.4375 0.875 1.84375 2.03125q0.40625 1.15625 -0.953125 2.609375q-1.6875 1.75 -4.734375 3.4375q-3.03125 1.671875 -6.390625 3.125q-3.359375 1.4375 -6.046875 2.4375q-2.671875 1.0 -3.71875 1.3125q-2.0 0.71875 -3.046875 -0.921875q-1.03125 -1.640625 -0.390625 -3.953125q0.25 -0.96875 1.640625 -2.359375q1.40625 -1.40625 3.359375 -3.046875q1.96875 -1.640625 4.203125 -3.15625q2.234375 -1.515625 4.15625 -2.640625zm30.25 18.640625q1.59375 0.953125 1.671875 3.640625q0.078125 2.671875 -0.96875 5.875q-1.03125 3.203125 -2.796875 5.921875q-0.953125 1.4375 -2.15625 2.40625q-1.203125 0.953125 -2.359375 1.875q-1.15625 0.921875 -1.921875 2.203125q-0.75 1.28125 -0.828125 3.359375q-0.09375 5.75 -2.140625 9.921875q-2.03125 4.15625 -5.3125 6.796875q-3.28125 2.640625 -7.15625 3.921875q-3.875 1.28125 -7.71875 1.28125q-4.15625 0 -8.328125 -1.484375q-4.15625 -1.484375 -7.515625 -4.5625q-3.359375 -3.078125 -5.125 -7.921875q-1.75 -4.84375 -1.03125 -11.5625q0.640625 -6.15625 3.640625 -10.75q3.0 -4.609375 7.71875 -7.328125q4.71875 -2.71875 10.328125 -3.03125q0.3125 0 0.625 -0.4375q0.328125 -0.453125 1.25 -0.84375q0.921875 -0.40625 2.84375 -0.25q6.078125 1.765625 10.546875 6.484375q0.5625 0.5625 1.640625 0.96875q1.09375 0.390625 2.171875 0.15625q1.078125 -0.25 1.5625 -1.359375q0.875 -2.078125 0.234375 -3.921875q-0.640625 -1.84375 -1.046875 -2.796875q4.171875 0 7.046875 0q2.875 0 5.125 1.4375zm-32.484375 34.484375q2.5625 0 4.390625 -1.203125q1.84375 -1.203125 3.0 -3.078125q1.171875 -1.890625 1.6875 -3.96875q0.515625 -2.078125 0.515625 -3.75q0 -3.453125 -1.125 -5.40625q-1.109375 -1.953125 -5.109375 -3.484375q-1.125 -0.390625 -1.5625 -1.1875q-0.4375 -0.8125 -1.15625 -0.890625q-2.71875 -0.3125 -4.5625 1.40625q-1.84375 1.71875 -2.765625 4.6875q-0.921875 2.953125 -0.921875 6.390625q0 3.4375 1.3125 5.765625q1.328125 2.3125 3.09375 3.515625q1.765625 1.203125 3.203125 1.203125zm84.1543 1.4375q0.078125 3.515625 1.078125 4.921875q1.0 1.390625 1.0 1.390625q0 0 -1.40625 1.0q-1.390625 1.0 -3.71875 2.046875q-2.3125 1.03125 -5.1875 1.03125q-4.25 0 -5.53125 -2.3125q-1.265625 -2.328125 -1.34375 -6.0q0 -0.640625 0.078125 -2.796875q0.078125 -2.171875 0.109375 -4.921875q0.046875 -2.765625 -0.03125 -5.125q-0.078125 -2.359375 -0.328125 -3.3125q-0.875 -3.203125 -3.4375 -2.8125q-2.0 0.25 -3.765625 2.296875q-1.75 2.03125 -2.875 4.828125q-1.125 2.796875 -1.125 5.28125q0 1.28125 -0.125 2.53125q-0.109375 1.234375 -0.1875 2.265625q-0.078125 0.71875 0.203125 1.765625q0.28125 1.03125 1.078125 1.671875q-0.5625 0.96875 -2.203125 2.484375q-1.640625 1.515625 -3.515625 2.765625q-1.875 1.234375 -3.25 1.390625q-1.265625 0.078125 -3.0 -0.796875q-1.71875 -0.875 -2.953125 -2.625q-1.234375 -1.765625 -1.3125 -4.25q0 -0.640625 0.03125 -2.953125q0.046875 -2.328125 0.078125 -5.609375q0.046875 -3.28125 0.078125 -6.953125q0.046875 -3.6875 0.046875 -7.125q0 -3.4375 0 -5.921875q0 -2.15625 -0.53125 -4.1875q-0.515625 -2.046875 -1.03125 -3.359375q-0.515625 -1.328125 -0.515625 -1.328125q0.71875 -0.171875 2.515625 -0.25q1.796875 -0.078125 4.03125 0.09375q2.25 0.15625 4.453125 0.71875q2.203125 0.546875 3.71875 1.75q1.59375 1.203125 3.234375 1.484375q1.640625 0.28125 2.609375 -0.28125q2.796875 -1.84375 5.671875 -3.203125q2.875 -1.359375 5.609375 -1.671875q1.359375 -0.171875 3.1875 0.109375q1.84375 0.28125 3.640625 1.25q1.8125 0.953125 3.125 2.71875q1.3125 1.75 1.640625 4.46875q0.5625 4.640625 0.3125 11.328125q-0.234375 6.671875 -0.15625 16.203125zm52.00183 -36.25q0.15625 3.6875 0.109375 7.09375q-0.03125 3.390625 -0.03125 5.078125q0 0.875 0.03125 4.15625q0.046875 3.28125 0.078125 7.921875q0.046875 4.640625 -0.03125 9.609375q-0.078125 4.953125 -0.390625 9.1875q-0.328125 4.640625 -1.96875 8.15625q-1.640625 3.515625 -4.765625 5.203125q-3.109375 1.6875 -7.984375 0.953125q-3.6875 -0.546875 -5.578125 -2.234375q-1.875 -1.671875 -2.390625 -3.875q-0.515625 -2.203125 0 -4.484375q0.515625 -2.28125 1.5625 -4.046875q0.71875 0.890625 1.953125 1.890625q1.25 1.0 2.71875 1.515625q1.484375 0.515625 2.84375 0.203125q0.890625 -0.234375 1.359375 -0.921875q0.484375 -0.6875 0.328125 -1.640625q-0.15625 -0.953125 -2.28125 -2.1875q-2.125 -1.25 -5.484375 -1.09375q-1.28125 0.078125 -2.0 0.15625q-0.71875 0.078125 -1.671875 0.078125q-5.53125 0 -10.171875 -2.234375q-4.640625 -2.234375 -7.359375 -6.875q-2.71875 -4.640625 -2.390625 -11.84375q0.234375 -4.640625 2.234375 -8.359375q2.0 -3.71875 5.15625 -6.3125q3.171875 -2.609375 6.71875 -3.921875q3.5625 -1.328125 6.921875 -1.078125q0.40625 0 1.609375 0.234375q1.203125 0.234375 2.390625 0.4375q1.203125 0.203125 1.609375 0.28125q2.796875 0.484375 6.265625 0.125q3.484375 -0.359375 5.96875 -0.84375q1.609375 -0.234375 3.125 -0.28125q1.515625 -0.046875 1.515625 -0.046875zm-23.765625 14.0q-3.1875 0.328125 -4.75 2.40625q-1.5625 2.078125 -0.84375 5.203125q0.328125 1.4375 1.5625 2.84375q1.234375 1.390625 3.0 2.203125q1.765625 0.796875 3.515625 0.625q1.765625 -0.15625 3.125 -0.59375q1.359375 -0.4375 2.15625 -1.875q0.796875 -1.453125 0.796875 -4.5625q0 -3.125 -1.234375 -4.515625q-1.234375 -1.40625 -3.203125 -1.6875q-1.953125 -0.28125 -4.125 -0.046875zm106.64432 22.484375q1.359375 1.609375 4.0 2.234375q-0.390625 1.6875 -1.0 3.609375q-0.59375 1.921875 -1.84375 3.359375q-1.234375 1.4375 -3.546875 1.84375q-1.046875 0.234375 -2.65625 -0.171875q-1.59375 -0.390625 -3.828125 -0.953125q-1.4375 -0.40625 -3.6875 -0.203125q-2.234375 0.203125 -4.203125 0.515625q-1.953125 0.328125 -2.59375 0.484375q-0.875 0.25 -1.765625 0.28125q-0.875 0.046875 -1.75 0.046875q-4.15625 0 -8.203125 -1.484375q-4.046875 -1.484375 -7.25 -4.59375q-3.1875 -3.125 -4.828125 -7.921875q-1.640625 -4.8125 -0.921875 -11.53125q0.484375 -4.640625 2.515625 -8.640625q2.046875 -4.0 5.078125 -7.0q3.046875 -3.0 6.515625 -4.625q3.484375 -1.640625 6.84375 -1.640625q0.734375 0 1.40625 0q0.6875 0 1.328125 -0.09375q1.4375 -0.234375 2.796875 -1.59375q1.359375 -1.359375 1.84375 -3.359375q0.234375 -1.125 0.3125 -2.640625q0.078125 -1.515625 0.078125 -1.84375q0.234375 -1.84375 1.359375 -3.15625q1.125 -1.3125 2.640625 -2.125q2.078125 -1.109375 4.5625 -1.59375q2.484375 -0.484375 4.59375 -0.515625q2.125 -0.046875 3.171875 0.1875q-0.09375 0.484375 -0.328125 3.453125q-0.234375 2.953125 -0.5625 7.4375q-0.3125 4.46875 -0.640625 9.796875q-0.3125 5.3125 -0.515625 10.6875q-0.203125 5.359375 -0.203125 10.0q0 4.625 0.3125 7.75q0.328125 3.125 0.96875 4.0zm-29.75 -11.84375q-0.25 3.125 0.75 5.171875q1.0 2.03125 2.5625 3.03125q1.5625 1.0 3.078125 1.078125q2.875 0.078125 4.4375 -1.46875q1.5625 -1.5625 2.125 -4.15625q0.5625 -2.609375 0.5625 -5.578125q0 -4.46875 -1.765625 -6.46875q-1.75 -2.0 -5.515625 -1.765625q-2.40625 0.15625 -4.125 2.328125q-1.71875 2.15625 -2.109375 7.828125zm78.786804 -53.828125q2.171875 2.234375 2.40625 5.28125q0.234375 3.03125 -0.875 5.671875q-0.890625 1.921875 -4.015625 2.765625q-3.109375 0.828125 -6.625 -0.203125q-1.359375 -0.40625 -1.28125 0.3125q0.078125 0.71875 1.109375 1.84375q1.84375 1.921875 3.71875 3.765625q1.890625 1.84375 3.453125 3.25q1.5625 1.390625 2.4375 1.859375q-1.046875 1.765625 -3.484375 2.40625q-2.4375 0.640625 -5.390625 -0.15625q-1.6875 -0.40625 -3.25 -2.078125q-1.5625 -1.6875 -3.078125 -2.71875q-0.640625 -0.5625 -2.484375 -0.765625q-1.828125 -0.203125 -3.1875 0.921875q-1.375 1.03125 -2.9375 2.640625q-1.546875 1.59375 -3.15625 2.0q-2.953125 0.796875 -5.359375 0.15625q-2.390625 -0.640625 -3.515625 -2.40625q1.203125 -0.71875 3.390625 -2.875q2.203125 -2.15625 4.71875 -4.828125q2.53125 -2.6875 4.453125 -4.84375q0.71875 -0.71875 0.28125 -1.5625q-0.4375 -0.84375 -1.25 -0.28125q-0.625 0.484375 -1.3125 1.046875q-0.6875 0.546875 -1.71875 1.59375q-1.4375 1.4375 -3.5625 1.15625q-2.125 -0.28125 -3.96875 -1.515625q-1.828125 -1.25 -2.625 -2.609375q0.796875 -1.359375 2.390625 -3.03125q1.609375 -1.6875 3.5625 -3.359375q1.96875 -1.6875 3.96875 -2.921875q2.0 -1.234375 3.59375 -1.5625q3.515625 -0.71875 5.828125 -0.3125q2.328125 0.390625 4.046875 1.359375q1.71875 0.953125 3.234375 2.0q1.53125 1.03125 3.296875 1.671875q1.4375 0.484375 3.078125 0.171875q1.640625 -0.328125 2.828125 -1.359375q1.203125 -1.046875 1.28125 -2.484375zm3.203125 61.1875q0.078125 1.765625 0.28125 4.328125q0.203125 2.5625 1.0 4.96875q0.796875 2.390625 2.5625 3.828125q-4.234375 2.875 -8.15625 2.15625q-0.5625 -0.15625 -1.203125 -0.3125q-0.640625 -0.15625 -1.765625 -0.484375q-1.84375 -0.5625 -4.328125 -0.234375q-2.46875 0.3125 -5.1875 0.796875q-2.71875 0.484375 -5.28125 0.484375q-4.078125 0 -8.28125 -1.484375q-4.203125 -1.484375 -7.53125 -4.5625q-3.3125 -3.078125 -5.109375 -7.921875q-1.796875 -4.84375 -1.078125 -11.5625q0.484375 -4.640625 2.671875 -8.515625q2.203125 -3.875 5.359375 -6.71875q3.171875 -2.84375 6.734375 -4.390625q3.5625 -1.5625 6.921875 -1.484375q2.546875 0.078125 3.953125 0.203125q1.40625 0.109375 3.640625 0.4375q1.359375 0.15625 3.390625 -0.4375q2.046875 -0.609375 4.203125 -1.28125q2.171875 -0.6875 3.6875 -0.6875q2.3125 -0.078125 3.265625 0.125q0.96875 0.203125 1.609375 0.359375q-0.484375 1.515625 -0.796875 4.359375q-0.3125 2.84375 -0.4375 6.484375q-0.125 3.640625 -0.203125 7.5625q-0.078125 3.90625 -0.046875 7.546875q0.046875 3.640625 0.125 6.4375zm-30.078125 -7.4375q0.15625 4.0 1.46875 6.25q1.328125 2.234375 3.203125 3.125q1.890625 0.875 3.65625 0.875q3.515625 0 5.1875 -2.765625q1.6875 -2.765625 1.609375 -7.71875q0 -1.359375 -0.28125 -3.203125q-0.28125 -1.84375 -0.96875 -3.640625q-0.671875 -1.796875 -1.84375 -3.0q-1.15625 -1.203125 -2.984375 -1.203125q-3.6875 0.078125 -6.484375 2.8125q-2.796875 2.71875 -2.5625 8.46875zm83.91748 11.6875q0.078125 3.515625 1.078125 4.921875q1.0 1.390625 1.0 1.390625q0 0 -1.40625 1.0q-1.390625 1.0 -3.71875 2.046875q-2.3125 1.03125 -5.1875 1.03125q-4.25 0 -5.53125 -2.3125q-1.265625 -2.328125 -1.34375 -6.0q0 -0.640625 0.078125 -2.796875q0.078125 -2.171875 0.109375 -4.921875q0.046875 -2.765625 -0.03125 -5.125q-0.078125 -2.359375 -0.328125 -3.3125q-0.875 -3.203125 -3.4375 -2.8125q-2.0 0.25 -3.765625 2.296875q-1.75 2.03125 -2.875 4.828125q-1.125 2.796875 -1.125 5.28125q0 1.28125 -0.125 2.53125q-0.109375 1.234375 -0.1875 2.265625q-0.078125 0.71875 0.203125 1.765625q0.28125 1.03125 1.078125 1.671875q-0.5625 0.96875 -2.203125 2.484375q-1.640625 1.515625 -3.515625 2.765625q-1.875 1.234375 -3.25 1.390625q-1.265625 0.078125 -3.0 -0.796875q-1.71875 -0.875 -2.953125 -2.625q-1.234375 -1.765625 -1.3125 -4.25q0 -0.640625 0.03125 -2.953125q0.046875 -2.328125 0.078125 -5.609375q0.046875 -3.28125 0.078125 -6.953125q0.046875 -3.6875 0.046875 -7.125q0 -3.4375 0 -5.921875q0 -2.15625 -0.53125 -4.1875q-0.515625 -2.046875 -1.03125 -3.359375q-0.515625 -1.328125 -0.515625 -1.328125q0.71875 -0.171875 2.515625 -0.25q1.796875 -0.078125 4.03125 0.09375q2.25 0.15625 4.453125 0.71875q2.203125 0.546875 3.71875 1.75q1.59375 1.203125 3.234375 1.484375q1.640625 0.28125 2.609375 -0.28125q2.796875 -1.84375 5.671875 -3.203125q2.875 -1.359375 5.609375 -1.671875q1.359375 -0.171875 3.1875 0.109375q1.84375 0.28125 3.640625 1.25q1.8125 0.953125 3.125 2.71875q1.3125 1.75 1.640625 4.46875q0.5625 4.640625 0.3125 11.328125q-0.234375 6.671875 -0.15625 16.203125z" fill-rule="nonzero"/></g></svg>